{"glyphs":{"0":{"ha":808,"x_min":49,"x_max":760,"o":"m 414 711 q 497 711 414 711 q 670 614 581 711 q 760 363 760 517 q 660 97 760 208 q 394 -14 561 -14 q 138 83 228 -14 q 49 335 49 181 q 148 600 49 489 q 414 711 247 711 m 415 78 q 470 78 415 78 q 580 154 525 78 q 635 353 635 231 q 568 548 635 476 q 392 619 501 619 q 228 543 283 619 q 174 344 174 467 q 240 149 174 221 q 415 78 306 78 z "},"1":{"ha":500,"x_min":67,"x_max":458,"o":"m 321 701 l 321 146 q 327 104 321 115 q 354 92 333 93 l 458 82 l 458 0 l 67 0 l 67 82 l 178 92 q 205 105 199 94 q 211 146 211 115 l 211 574 l 72 511 l 72 611 l 249 701 l 321 701 z "},"2":{"ha":624,"x_min":46,"x_max":571,"o":"m 571 104 l 571 0 l 46 0 l 46 22 q 74 149 46 104 q 141 223 101 193 q 225 280 181 253 q 301 328 269 307 q 367 375 333 349 q 432 492 432 428 q 397 590 432 556 q 306 624 361 624 q 185 601 251 624 l 164 494 l 81 494 l 71 663 q 319 706 206 706 q 493 651 433 706 q 553 501 553 596 q 467 326 553 399 q 394 272 422 290 q 337 238 367 254 q 283 210 307 222 q 246 190 258 197 q 217 169 233 182 q 182 104 185 144 l 571 104 z "},"3":{"ha":640,"x_min":35,"x_max":582,"o":"m 165 208 l 158 297 q 319 350 229 308 q 399 415 368 374 q 431 507 431 456 q 396 592 431 558 q 308 626 361 626 q 224 620 256 626 q 182 613 193 614 l 167 513 l 81 513 l 71 674 q 332 706 228 706 q 493 648 436 706 q 550 504 550 590 q 368 279 550 354 q 523 206 464 256 q 582 42 582 156 q 501 -156 582 -72 q 290 -239 419 -239 q 35 -176 160 -239 l 56 -104 q 160 -128 83 -114 q 272 -143 236 -143 q 413 -84 364 -143 q 463 42 463 -25 q 297 197 463 182 l 165 208 z "},"4":{"ha":701,"x_min":35,"x_max":660,"o":"m 660 104 l 660 0 l 554 0 l 554 -228 l 444 -228 l 444 0 l 92 0 l 35 103 l 447 715 l 514 646 l 169 104 l 444 104 l 444 347 l 554 347 l 554 104 l 660 104 z "},"5":{"ha":638,"x_min":28,"x_max":578,"o":"m 550 700 l 550 597 l 229 597 l 208 347 l 354 325 q 542 225 494 306 q 578 79 578 163 q 491 -148 578 -62 q 278 -233 404 -233 q 28 -171 153 -233 l 49 -99 q 152 -123 81 -108 q 256 -137 224 -137 q 406 -73 354 -137 q 458 65 458 -8 q 418 178 458 139 q 281 232 378 218 l 100 258 l 136 700 l 550 700 z "},"6":{"ha":733,"x_min":61,"x_max":675,"o":"m 403 596 q 605 515 535 596 q 675 292 675 433 q 589 69 675 151 q 356 -14 503 -14 q 217 17 276 -14 q 125 103 158 49 q 61 363 61 208 q 106 642 61 518 q 254 867 150 765 q 610 1014 406 1014 l 610 928 q 330 792 447 921 q 188 500 213 663 q 283 576 232 556 q 403 596 333 596 m 556 296 q 376 500 556 500 q 287 482 326 500 q 229 440 247 464 q 190 291 189 386 q 241 138 190 196 q 381 81 292 81 q 513 142 471 81 q 556 296 556 203 z "},"7":{"ha":622,"x_min":28,"x_max":590,"o":"m 164 -246 l 69 -187 q 312 256 176 -1 q 467 593 447 514 l 189 593 q 149 586 161 593 q 136 556 138 579 l 128 463 l 40 463 l 28 700 l 590 700 l 590 669 q 574 570 590 615 q 493 397 557 525 q 164 -246 185 -208 z "},"8":{"ha":697,"x_min":56,"x_max":642,"o":"m 90 757 q 166 951 90 888 q 358 1014 242 1014 q 540 953 474 1014 q 607 788 607 893 q 579 663 607 728 q 541 613 571 643 q 501 574 511 582 q 449 531 492 567 q 561 450 524 483 q 642 251 642 376 q 556 56 642 126 q 340 -14 471 -14 q 132 49 208 -14 q 56 243 56 111 q 115 403 56 339 q 247 513 164 453 q 129 625 168 568 q 90 757 90 682 m 308 472 q 205 375 238 421 q 172 250 172 329 q 227 120 172 171 q 363 69 282 69 q 484 114 444 69 q 524 233 524 158 q 482 351 524 308 q 333 458 440 394 l 308 472 m 448 631 q 458 642 448 631 q 484 697 468 654 q 500 799 500 739 q 451 896 500 858 q 336 933 401 933 q 201 785 201 933 q 244 678 201 724 q 388 568 286 633 q 448 631 428 607 z "},"9":{"ha":718,"x_min":39,"x_max":651,"o":"m 321 97 q 254 97 321 97 q 113 179 188 97 q 39 404 39 261 q 121 628 39 547 q 345 710 203 710 q 569 613 488 710 q 651 353 651 515 q 422 -224 651 -24 q 114 -347 281 -347 l 93 -257 q 373 -122 242 -257 q 525 200 504 13 q 321 97 454 97 m 158 385 q 339 196 158 196 q 437 219 393 196 q 502 274 481 242 q 524 399 524 306 q 474 553 524 493 q 326 614 425 614 q 158 385 158 614 z "}," ":{"ha":354,"x_min":0,"x_max":0,"o":""},"!":{"ha":451,"x_min":139,"x_max":319,"o":"m 154 9 q 147 20 154 9 q 139 79 139 32 q 164 147 139 126 q 233 167 189 167 q 299 144 278 167 q 319 79 319 122 q 217 -14 319 -14 q 154 9 169 -14 m 183 242 l 163 775 l 157 1000 l 294 1000 l 290 775 l 268 242 l 183 242 z "},"\"":{"ha":508,"x_min":78,"x_max":431,"o":"m 151 1097 q 204 1047 204 1097 q 204 1036 204 1042 l 183 746 l 100 746 l 79 1036 q 79 1057 79 1042 q 93 1085 79 1072 q 151 1097 107 1097 m 376 1097 q 429 1047 429 1097 q 429 1036 429 1042 l 408 746 l 325 746 l 304 1036 q 304 1057 304 1042 q 318 1085 304 1072 q 376 1097 332 1097 z "},"#":{"ha":822,"x_min":56,"x_max":767,"o":"m 529 14 l 435 14 l 467 194 l 293 194 l 261 14 l 167 14 l 199 194 l 56 194 l 56 281 l 214 281 l 250 489 l 93 489 l 93 574 l 265 574 l 304 790 l 399 790 l 360 574 l 533 574 l 572 790 l 667 790 l 628 574 l 767 574 l 767 489 l 613 489 l 576 281 l 729 281 l 729 194 l 561 194 l 529 14 m 344 489 l 308 281 l 482 281 l 518 489 l 344 489 z "},"$":{"ha":769,"x_min":63,"x_max":699,"o":"m 668 899 l 651 701 l 553 701 l 533 818 q 377 854 463 854 q 255 825 292 854 q 218 738 218 796 q 250 649 218 679 q 365 574 282 619 l 518 500 q 654 408 610 456 q 699 258 699 360 q 624 87 699 157 q 418 7 549 17 l 424 -165 l 319 -165 l 325 6 q 173 24 228 8 q 63 58 118 40 l 83 261 l 183 256 l 196 133 q 371 100 276 100 q 518 138 465 100 q 571 235 571 175 q 545 324 571 296 q 426 401 519 351 l 257 490 q 133 581 175 533 q 92 716 92 629 q 153 865 92 803 q 324 939 214 926 l 318 1104 l 421 1104 l 414 940 q 668 899 528 936 z "},"%":{"ha":933,"x_min":93,"x_max":842,"o":"m 274 804 q 316 804 274 804 q 404 751 358 804 q 450 618 450 697 q 395 490 450 539 q 263 440 340 440 q 140 490 186 440 q 93 617 93 540 q 142 749 93 693 q 274 804 190 804 m 278 514 q 300 514 278 514 q 344 547 322 514 q 365 628 365 579 q 337 705 365 676 q 264 733 308 733 q 199 703 219 733 q 178 624 178 672 q 206 544 178 575 q 278 514 233 514 m 238 -32 l 165 18 l 692 826 l 763 776 l 238 -32 m 666 347 q 708 347 666 347 q 796 294 750 347 q 842 161 842 240 q 787 33 842 82 q 655 -17 732 -17 q 531 33 578 -17 q 485 160 485 83 q 533 292 485 236 q 666 347 582 347 m 670 53 q 692 53 670 53 q 735 86 714 53 q 757 168 757 119 q 728 245 757 217 q 656 274 700 274 q 590 243 611 274 q 569 163 569 213 q 598 83 569 114 q 670 53 626 53 z "},"&":{"ha":981,"x_min":43,"x_max":967,"o":"m 821 356 l 856 282 l 743 200 l 757 183 q 911 81 838 81 q 967 92 940 81 l 960 14 q 863 -14 911 -14 q 775 8 814 -14 q 715 51 736 29 q 644 129 693 72 q 590 94 638 125 q 506 43 542 63 q 410 4 471 24 q 286 -15 350 -15 q 170 10 222 -15 q 92 75 118 35 q 43 238 43 154 q 69 370 43 322 q 150 465 96 418 l 285 581 q 228 658 268 607 q 173 744 189 710 q 157 818 157 779 q 169 888 157 857 q 208 947 181 918 q 406 1014 268 1014 q 669 944 544 1014 l 644 756 l 540 756 l 540 889 q 399 929 488 929 q 323 900 351 929 q 294 824 294 871 q 350 700 294 769 q 409 628 381 660 q 443 589 438 596 l 689 271 l 821 356 m 585 201 l 354 510 l 269 426 q 199 343 215 374 q 182 250 182 313 q 224 139 182 188 q 349 90 265 90 q 473 129 401 90 q 585 201 544 168 z "},"'":{"ha":283,"x_min":72,"x_max":211,"o":"m 183 746 l 100 746 q 72 1046 72 1033 q 142 1097 72 1097 q 211 1046 211 1097 q 183 746 211 1014 z "},"(":{"ha":435,"x_min":83,"x_max":403,"o":"m 401 -235 l 336 -292 q 160 5 236 -182 q 83 400 83 192 q 160 794 83 608 q 338 1090 238 981 l 403 1028 q 252 713 299 886 q 206 397 206 539 q 251 81 206 254 q 401 -235 297 -93 z "},")":{"ha":435,"x_min":32,"x_max":351,"o":"m 99 -292 l 33 -235 q 183 81 138 -93 q 229 397 229 254 q 183 713 229 539 q 32 1028 136 886 l 97 1090 q 274 794 197 981 q 351 400 351 608 q 275 5 351 192 q 99 -292 199 -182 z "},"*":{"ha":489,"x_min":21,"x_max":454,"o":"m 250 996 l 281 994 l 265 818 q 399 896 378 896 q 430 886 421 896 q 454 844 439 876 l 293 768 l 400 715 q 436 667 436 697 q 414 618 436 654 l 265 719 q 274 601 274 633 q 259 556 274 569 q 228 542 244 542 q 194 544 211 542 l 208 719 q 115 657 140 672 q 72 642 89 642 q 45 653 56 642 q 21 693 35 664 l 181 768 q 63 829 88 811 q 39 865 39 847 q 61 919 39 883 l 208 818 q 201 928 201 888 q 250 996 201 996 z "},"+":{"ha":717,"x_min":56,"x_max":661,"o":"m 401 14 l 307 14 l 307 279 l 56 279 l 56 374 l 307 374 l 307 647 l 401 647 l 401 374 l 661 374 l 661 279 l 401 279 l 401 14 z "},",":{"ha":319,"x_min":60,"x_max":250,"o":"m 250 50 q 208 -84 250 -17 q 100 -190 165 -151 l 60 -149 q 164 -7 154 -89 q 128 -10 147 -10 q 90 10 110 -10 q 69 65 69 31 q 154 157 69 157 q 250 50 250 157 z "},"-":{"ha":550,"x_min":83,"x_max":467,"o":"m 83 297 l 83 401 l 467 401 l 467 297 l 83 297 z "},".":{"ha":317,"x_min":69,"x_max":247,"o":"m 232 147 q 240 136 232 147 q 247 75 247 125 q 225 8 247 25 q 146 -8 203 -8 q 69 69 69 -8 q 90 147 69 124 q 164 169 111 169 q 232 147 217 169 z "},"/":{"ha":574,"x_min":28,"x_max":556,"o":"m 450 1000 l 556 1000 l 133 -200 l 28 -200 l 450 1000 z "},":":{"ha":317,"x_min":69,"x_max":247,"o":"m 232 147 q 240 136 232 147 q 247 75 247 125 q 225 8 247 25 q 146 -8 203 -8 q 69 69 69 -8 q 90 147 69 124 q 164 169 111 169 q 232 147 217 169 m 232 658 q 240 647 232 658 q 247 586 247 636 q 225 519 247 536 q 146 503 203 503 q 69 581 69 503 q 90 658 69 635 q 164 681 111 681 q 232 658 217 681 z "},";":{"ha":319,"x_min":60,"x_max":251,"o":"m 250 50 q 208 -84 250 -17 q 100 -190 165 -151 l 60 -149 q 164 -7 154 -89 q 128 -10 147 -10 q 90 10 110 -10 q 69 65 69 31 q 154 157 69 157 q 250 50 250 157 m 236 658 q 244 647 236 658 q 251 586 251 636 q 229 519 251 536 q 150 503 207 503 q 74 581 74 503 q 94 658 74 635 q 168 681 115 681 q 236 658 221 681 z "},"<":{"ha":757,"x_min":63,"x_max":683,"o":"m 632 -28 l 63 333 l 632 694 l 683 625 l 232 333 l 681 42 l 632 -28 z "},"=":{"ha":756,"x_min":83,"x_max":672,"o":"m 83 400 l 83 492 l 672 492 l 672 400 l 83 400 m 83 160 l 83 251 l 672 251 l 672 160 l 83 160 z "},">":{"ha":757,"x_min":74,"x_max":694,"o":"m 125 694 l 694 333 l 125 -28 l 74 42 l 525 333 l 76 625 l 125 694 z "},"?":{"ha":625,"x_min":94,"x_max":613,"o":"m 500 801 q 353 931 500 931 q 213 901 283 931 l 199 792 l 110 792 l 94 968 q 356 1013 228 1013 q 549 954 485 1013 q 613 801 613 896 q 591 678 613 732 q 537 594 569 625 q 466 536 504 564 q 394 489 428 508 q 313 374 318 444 l 306 253 l 222 243 l 215 310 q 208 421 208 376 q 230 496 208 465 q 284 547 251 526 q 354 594 317 568 q 424 644 392 619 q 478 710 457 669 q 500 801 500 751 m 267 -15 q 240 -15 267 -15 q 200 4 214 -15 q 186 74 186 24 q 206 141 186 125 q 276 157 226 157 q 342 140 326 157 q 358 74 358 124 q 339 5 358 25 q 267 -15 319 -15 z "},"@":{"ha":1067,"x_min":43,"x_max":1018,"o":"m 693 617 l 782 633 l 736 343 q 733 315 733 332 q 747 282 733 299 q 785 265 761 265 q 876 342 838 265 q 915 525 915 419 q 823 739 915 663 q 594 815 731 815 q 459 800 532 815 q 343 757 386 785 q 219 593 278 717 q 161 333 161 469 q 260 78 161 165 q 499 -10 358 -10 q 908 94 686 -10 l 956 24 q 464 -112 711 -112 q 169 3 294 -112 q 43 303 43 119 q 92 577 43 461 q 201 757 142 693 q 608 917 353 917 q 910 805 803 917 q 1018 537 1018 693 q 941 276 1018 381 q 765 171 864 171 q 651 243 700 171 q 447 150 529 150 q 336 203 385 150 q 288 324 288 256 q 314 460 288 393 q 375 565 340 528 q 560 647 451 647 q 693 617 632 647 m 644 322 l 671 526 q 558 567 625 567 q 457 531 492 568 q 389 347 389 463 q 483 246 389 246 q 562 271 511 246 q 644 322 613 296 z "},"A":{"ha":921,"x_min":-21,"x_max":943,"o":"m 97 156 l 396 1000 l 525 1000 l 822 156 q 848 109 835 121 q 889 92 861 97 l 943 82 l 943 0 l 586 0 l 586 79 l 663 92 q 699 125 699 97 q 693 153 699 138 l 632 329 l 264 329 l 206 157 q 200 128 200 142 q 238 92 200 97 l 313 79 l 313 0 l -21 0 l -21 82 l 32 92 q 72 109 60 97 q 97 156 85 121 m 463 818 l 447 881 l 432 818 l 297 426 l 597 426 l 463 818 z "},"B":{"ha":858,"x_min":81,"x_max":825,"o":"m 194 147 l 194 853 q 187 891 194 881 q 154 906 179 901 l 81 918 l 81 1000 l 436 1000 q 676 953 596 1000 q 756 775 756 906 q 706 617 756 682 q 599 538 656 551 q 763 471 701 528 q 825 301 825 414 q 733 81 825 161 q 483 0 642 0 l 81 0 l 81 82 l 154 94 q 187 109 179 99 q 194 147 194 119 m 314 903 l 314 567 l 422 567 q 578 602 531 567 q 625 751 625 638 q 568 872 625 840 q 404 903 511 903 l 314 903 m 314 472 l 314 97 l 464 97 q 624 128 571 97 q 694 299 694 171 q 464 472 694 472 l 314 472 z "},"C":{"ha":883,"x_min":58,"x_max":822,"o":"m 789 160 l 817 69 q 779 53 813 65 q 719 32 746 42 q 665 15 693 22 q 606 0 638 7 q 475 -14 544 -14 q 58 489 58 -14 q 172 868 58 722 q 511 1014 285 1014 q 662 999 593 1014 q 822 935 731 985 l 800 708 l 700 708 l 671 861 q 576 899 617 888 q 465 910 535 910 q 351 890 394 910 q 272 836 307 871 q 215 694 238 801 q 193 499 193 586 q 272 203 193 311 q 500 94 351 94 q 789 160 615 94 z "},"D":{"ha":997,"x_min":81,"x_max":933,"o":"m 475 101 q 720 197 642 101 q 799 512 799 293 q 722 815 799 731 q 475 899 644 899 l 314 899 l 314 101 l 475 101 m 81 1000 l 496 1000 q 933 515 933 1000 q 828 138 933 276 q 496 0 722 0 l 81 0 l 81 83 l 154 96 q 187 112 179 100 q 194 151 194 124 l 194 858 q 187 899 194 886 q 154 914 179 911 l 81 922 l 81 1000 z "},"E":{"ha":861,"x_min":81,"x_max":800,"o":"m 800 0 l 81 0 l 81 83 l 154 96 q 187 110 179 100 q 194 149 194 121 l 194 858 q 187 899 194 886 q 154 914 179 911 l 81 922 l 81 1000 l 794 1000 l 786 761 l 697 761 l 689 858 q 675 891 688 883 q 636 899 663 899 l 314 899 l 314 572 l 639 572 l 639 471 l 314 471 l 314 101 l 638 101 q 676 109 664 101 q 690 142 689 117 l 699 246 l 792 246 l 800 0 z "},"F":{"ha":806,"x_min":81,"x_max":781,"o":"m 81 1000 l 781 1000 l 772 761 l 683 761 l 675 858 q 661 891 674 883 q 622 899 649 899 l 314 899 l 314 564 l 611 564 l 611 463 l 314 463 l 314 147 q 322 108 314 119 q 356 94 331 97 l 454 83 l 454 0 l 81 0 l 81 82 l 154 94 q 187 109 179 99 q 194 147 194 119 l 194 864 q 186 900 194 889 q 154 914 178 911 l 81 922 l 81 1000 z "},"G":{"ha":954,"x_min":63,"x_max":915,"o":"m 197 499 q 272 203 197 315 q 501 92 347 92 q 707 126 596 92 l 707 311 q 699 349 707 338 q 667 364 692 360 l 588 376 l 588 458 l 915 458 l 915 376 l 861 367 q 830 351 836 361 q 824 314 824 342 l 824 71 q 481 -14 632 -14 q 63 489 63 -14 q 176 868 63 722 q 515 1014 289 1014 q 675 999 601 1014 q 843 935 749 985 l 821 708 l 721 708 l 692 861 q 589 899 635 888 q 471 910 543 910 q 355 890 399 910 q 276 836 311 871 q 219 694 242 801 q 197 499 197 588 z "},"H":{"ha":1097,"x_min":81,"x_max":1017,"o":"m 903 853 l 903 147 q 910 109 903 119 q 943 94 918 99 l 1017 82 l 1017 0 l 663 0 l 663 82 l 743 94 q 776 109 768 99 q 783 147 783 119 l 783 474 l 314 474 l 314 147 q 322 109 314 119 q 354 94 329 99 l 435 82 l 435 0 l 81 0 l 81 82 l 154 94 q 187 109 179 99 q 194 147 194 119 l 194 853 q 187 891 194 881 q 154 906 179 901 l 81 918 l 81 1000 l 435 1000 l 435 918 l 354 906 q 322 891 329 901 q 314 853 314 881 l 314 574 l 783 574 l 783 853 q 776 891 783 881 q 743 906 768 901 l 663 918 l 663 1000 l 1017 1000 l 1017 918 l 943 906 q 910 891 918 901 q 903 853 903 881 z "},"I":{"ha":508,"x_min":81,"x_max":428,"o":"m 428 82 l 428 0 l 81 0 l 81 82 l 154 94 q 187 109 179 99 q 194 147 194 119 l 194 853 q 187 891 194 881 q 154 906 179 901 l 81 918 l 81 1000 l 428 1000 l 428 918 l 354 906 q 322 891 329 901 q 314 853 314 881 l 314 147 q 322 109 314 119 q 354 94 329 99 l 428 82 z "},"J":{"ha":474,"x_min":-35,"x_max":428,"o":"m 19 -214 l -35 -139 q 156 21 117 -46 q 194 249 194 88 l 194 853 q 187 891 194 881 q 154 906 179 901 l 81 918 l 81 1000 l 428 1000 l 428 918 l 354 906 q 322 891 329 901 q 314 853 314 881 l 314 206 q 294 24 314 74 q 258 -50 275 -25 q 203 -104 242 -75 q 19 -214 140 -151 z "},"K":{"ha":897,"x_min":81,"x_max":918,"o":"m 314 533 l 314 147 q 322 109 314 119 q 354 94 329 99 l 433 82 l 433 0 l 81 0 l 81 82 l 154 94 q 187 109 179 99 q 194 147 194 119 l 194 853 q 187 891 194 881 q 154 906 179 901 l 81 918 l 81 1000 l 433 1000 l 433 918 l 354 906 q 322 891 329 901 q 314 853 314 881 l 314 560 l 668 940 q 797 1000 724 1000 l 865 1000 l 865 914 q 792 903 819 914 q 731 857 765 893 l 450 553 l 700 213 q 788 110 756 136 q 856 83 821 83 q 918 93 890 83 l 910 13 q 797 -14 860 -14 q 693 22 733 -14 q 599 135 653 57 l 314 533 z "},"L":{"ha":772,"x_min":81,"x_max":753,"o":"m 753 0 l 81 0 l 81 82 l 154 94 q 187 109 179 99 q 194 147 194 119 l 194 853 q 187 891 194 881 q 154 906 179 901 l 81 918 l 81 1000 l 436 1000 l 436 918 l 354 906 q 322 891 329 901 q 314 853 314 881 l 314 101 l 590 101 q 629 109 617 101 q 643 142 642 117 l 651 246 l 744 246 l 753 0 z "},"M":{"ha":1240,"x_min":26,"x_max":1225,"o":"m 357 0 l 26 0 l 26 82 l 100 94 q 131 108 125 99 q 140 146 138 118 l 189 868 q 147 910 189 904 l 75 918 l 75 1000 l 353 1000 l 628 186 l 874 1000 l 1168 1000 l 1168 918 l 1090 910 q 1056 897 1065 907 q 1047 865 1047 888 l 1103 146 q 1112 108 1106 118 q 1143 94 1118 99 l 1225 82 l 1225 0 l 869 0 l 869 82 l 944 90 q 985 135 985 96 l 933 849 l 668 0 l 569 0 l 275 849 l 242 138 q 251 104 243 115 q 283 90 260 93 l 357 82 l 357 0 z "},"N":{"ha":1093,"x_min":81,"x_max":1046,"o":"m 314 781 l 314 147 q 322 109 314 119 q 354 94 329 99 l 428 82 l 428 0 l 81 0 l 81 82 l 154 94 q 187 109 179 99 q 194 147 194 119 l 194 854 q 187 894 194 882 q 154 910 179 907 l 82 918 l 82 1000 l 315 1000 l 814 219 l 814 854 q 807 894 814 882 q 775 910 800 907 l 703 918 l 703 1000 l 1046 1000 l 1046 918 l 974 910 q 941 894 949 907 q 933 854 933 882 l 933 0 l 811 0 l 314 781 z "},"O":{"ha":996,"x_min":58,"x_max":938,"o":"m 767 946 q 813 912 767 946 q 899 767 860 878 q 938 526 938 656 q 911 308 938 397 q 830 144 885 218 q 682 28 775 71 q 456 -14 589 -14 q 229 54 322 -14 q 97 233 136 122 q 58 474 58 344 q 85 692 58 603 q 166 856 111 782 q 314 972 221 929 q 540 1014 407 1014 q 767 946 674 1014 m 803 508 q 719 804 803 697 q 487 911 635 911 q 272 835 339 911 q 215 692 238 794 q 193 492 193 590 q 277 196 193 303 q 509 89 361 89 q 724 165 657 89 q 781 308 758 206 q 803 508 803 410 z "},"P":{"ha":790,"x_min":81,"x_max":769,"o":"m 314 903 l 314 485 l 410 485 q 563 517 522 485 q 619 597 603 550 q 635 728 635 644 q 433 903 635 903 l 314 903 m 194 147 l 194 853 q 187 891 194 881 q 154 906 179 901 l 81 918 l 81 1000 l 446 1000 q 687 944 604 1000 q 769 734 769 888 q 663 484 769 581 q 414 388 556 388 l 314 388 l 314 147 q 322 108 314 119 q 356 94 331 97 l 454 83 l 454 0 l 81 0 l 81 82 l 154 94 q 187 109 179 99 q 194 147 194 119 z "},"Q":{"ha":996,"x_min":58,"x_max":974,"o":"m 456 -68 q 498 -68 456 -68 q 667 -110 539 -68 q 847 -151 796 -151 q 953 -124 897 -151 l 974 -197 q 918 -236 960 -212 q 810 -260 876 -260 q 615 -214 743 -260 q 431 -168 486 -168 q 314 -186 376 -168 l 286 -114 q 456 -68 374 -68 m 767 946 q 813 912 767 946 q 899 767 860 878 q 938 526 938 656 q 911 308 938 397 q 830 144 885 218 q 682 28 775 71 q 456 -14 589 -14 q 229 54 322 -14 q 97 233 136 122 q 58 474 58 344 q 85 692 58 603 q 166 856 111 782 q 314 972 221 929 q 540 1014 407 1014 q 767 946 674 1014 m 803 508 q 719 804 803 697 q 487 911 635 911 q 272 835 339 911 q 215 692 238 794 q 193 492 193 590 q 277 196 193 303 q 509 89 361 89 q 724 165 657 89 q 781 308 758 206 q 803 508 803 410 z "},"R":{"ha":886,"x_min":81,"x_max":914,"o":"m 314 903 l 314 551 l 438 551 q 574 586 532 551 q 629 736 629 632 q 418 903 629 903 l 314 903 m 314 454 l 314 147 q 322 108 314 119 q 356 94 331 97 l 446 83 l 446 0 l 81 0 l 81 82 l 154 94 q 187 109 179 99 q 194 147 194 119 l 194 853 q 187 891 194 881 q 154 906 179 901 l 81 918 l 81 1000 l 446 1000 q 682 943 600 1000 q 764 750 764 886 q 639 525 764 596 q 513 481 576 489 q 603 394 554 471 l 756 156 q 865 82 803 82 q 914 92 885 82 l 907 15 q 797 -14 868 -14 q 635 103 711 -14 l 449 399 q 364 454 413 454 l 314 454 z "},"S":{"ha":746,"x_min":64,"x_max":714,"o":"m 182 274 l 203 132 q 378 83 283 83 q 532 128 474 83 q 590 245 590 174 q 555 356 590 317 q 419 432 519 394 l 250 496 q 115 592 165 528 q 64 749 64 656 q 144 941 64 869 q 364 1013 224 1013 q 661 975 504 1013 l 642 760 l 542 760 l 521 885 q 358 919 446 919 q 192 765 192 919 q 228 663 192 703 q 354 592 264 624 l 472 550 q 627 473 578 513 q 695 388 676 433 q 714 281 714 342 q 620 67 714 147 q 353 -14 526 -14 q 151 17 235 -14 q 64 50 122 26 l 81 274 l 182 274 z "},"T":{"ha":842,"x_min":10,"x_max":832,"o":"m 674 903 l 481 903 l 481 147 q 488 109 481 119 q 521 94 496 99 l 600 82 l 600 0 l 242 0 l 242 82 l 321 94 q 353 109 346 99 q 361 147 361 119 l 361 903 l 167 903 q 128 895 140 903 q 115 863 117 888 l 107 761 l 18 761 l 10 1000 l 832 1000 l 824 761 l 735 761 l 726 863 q 713 895 725 888 q 674 903 700 903 z "},"U":{"ha":1001,"x_min":39,"x_max":965,"o":"m 851 853 l 851 322 q 794 128 851 206 q 488 -14 694 -14 q 238 73 322 -14 q 153 322 153 160 l 153 853 q 145 891 153 881 q 113 906 138 901 l 39 918 l 39 1000 l 386 1000 l 386 918 l 313 906 q 280 891 288 901 q 272 853 272 881 l 272 344 q 531 97 272 97 q 684 147 631 97 q 738 356 738 197 l 738 853 q 730 891 738 881 q 697 906 722 901 l 624 918 l 624 1000 l 965 1000 l 965 918 l 892 906 q 859 891 867 901 q 851 853 851 881 z "},"V":{"ha":919,"x_min":-8,"x_max":928,"o":"m 810 854 l 532 1 l 431 1 l 122 854 q 92 899 111 888 q 40 914 72 910 l -8 919 l -8 1001 l 365 1001 l 365 921 l 292 913 q 260 905 269 910 q 251 888 251 900 q 258 854 251 875 l 489 179 l 693 854 q 699 883 699 876 q 656 913 699 908 l 582 921 l 582 1001 l 928 1001 l 928 919 l 876 914 q 835 900 849 911 q 810 854 822 889 z "},"W":{"ha":1307,"x_min":-4,"x_max":1307,"o":"m 1196 853 l 1013 0 l 844 0 l 665 726 l 490 0 l 321 0 l 126 853 q 101 897 119 886 q 50 913 82 908 l -4 918 l -4 1000 l 371 1000 l 371 919 l 292 911 q 261 903 269 910 q 253 885 253 896 q 256 853 253 875 l 415 133 l 599 897 l 751 897 l 938 133 l 1088 853 q 1089 876 1089 861 q 1043 911 1089 906 l 969 919 l 969 1000 l 1307 1000 l 1307 918 l 1258 913 q 1228 906 1239 910 q 1196 853 1206 899 z "},"X":{"ha":949,"x_min":8,"x_max":936,"o":"m 400 515 l 160 853 q 123 897 138 886 q 78 911 108 907 l 25 918 l 25 1000 l 397 1000 l 397 919 l 319 911 q 293 892 293 910 q 310 853 293 878 l 483 606 l 642 853 q 660 893 660 881 q 635 911 660 910 l 564 919 l 564 1000 l 917 1000 l 917 918 l 864 911 q 765 853 797 903 l 546 517 l 807 147 q 844 105 828 118 q 883 89 860 92 l 936 82 l 936 0 l 554 0 l 554 81 l 639 89 q 676 117 676 92 q 664 147 676 128 l 461 429 l 282 147 q 267 110 267 124 q 294 89 267 90 l 379 81 l 379 0 l 8 0 l 8 82 l 61 89 q 156 147 121 94 l 400 515 z "},"Y":{"ha":931,"x_min":-6,"x_max":928,"o":"m 406 353 l 131 853 q 96 895 113 883 q 47 911 79 907 l -6 918 l -6 1000 l 368 1000 l 368 919 l 299 911 q 254 885 254 904 q 265 853 254 875 l 483 460 l 692 853 q 701 882 701 871 q 653 910 701 903 l 583 918 l 583 1000 l 928 1000 l 928 918 l 875 911 q 835 897 847 907 q 806 853 824 886 l 525 356 l 525 147 q 533 109 525 119 q 565 94 540 99 l 644 82 l 644 0 l 286 0 l 286 82 l 365 94 q 398 109 390 99 q 406 147 406 119 l 406 353 z "},"Z":{"ha":867,"x_min":81,"x_max":821,"o":"m 651 903 l 263 903 q 224 895 236 903 q 210 863 211 888 l 201 765 l 110 765 l 101 1000 l 793 1000 l 793 903 l 222 101 l 658 101 q 697 109 685 101 q 711 142 710 117 l 719 246 l 813 246 l 821 0 l 81 0 l 81 101 l 651 903 z "},"[":{"ha":504,"x_min":139,"x_max":451,"o":"m 451 1083 l 451 999 l 243 999 l 243 -249 l 451 -249 l 451 -333 l 139 -333 l 139 1083 l 451 1083 z "},"\\":{"ha":574,"x_min":28,"x_max":540,"o":"m 28 961 l 118 1000 l 540 -200 l 450 -239 l 28 961 z "},"]":{"ha":504,"x_min":53,"x_max":365,"o":"m 53 999 l 53 1083 l 365 1083 l 365 -333 l 53 -333 l 53 -249 l 261 -249 l 261 999 l 53 999 z "},"^":{"ha":799,"x_min":86,"x_max":715,"o":"m 346 1000 l 447 1000 l 715 515 l 638 471 l 393 897 l 156 471 l 86 504 l 346 1000 z "},"_":{"ha":694,"x_min":0,"x_max":694,"o":"m 0 -239 l 0 -164 l 694 -164 l 694 -239 l 0 -239 z "},"`":{"ha":407,"x_min":63,"x_max":360,"o":"m 63 975 l 143 1058 l 360 814 q 299 783 324 783 q 253 803 274 783 l 63 975 z "},"a":{"ha":732,"x_min":51,"x_max":685,"o":"m 575 489 l 575 136 q 581 95 575 106 q 607 83 586 85 l 685 75 l 685 0 l 482 0 l 471 108 q 226 -14 356 -14 q 99 35 147 -14 q 51 166 51 85 q 100 299 51 247 q 240 363 149 350 l 465 393 l 465 486 q 315 597 465 597 q 193 571 251 597 l 174 469 l 93 469 l 83 629 q 328 681 226 681 q 502 633 429 681 q 575 489 575 586 m 465 318 l 272 286 q 194 250 222 279 q 167 176 167 221 q 195 108 167 132 q 268 85 224 85 q 465 194 343 85 l 465 318 z "},"b":{"ha":783,"x_min":35,"x_max":729,"o":"m 256 1083 l 256 585 q 471 681 336 681 q 656 594 583 681 q 729 351 729 508 q 644 90 729 194 q 397 -14 558 -14 q 146 49 263 -14 l 146 950 q 139 990 146 979 q 111 1003 132 1001 l 35 1011 l 35 1083 l 256 1083 m 256 494 l 256 135 q 422 78 322 78 q 560 124 522 78 q 610 330 610 196 q 558 526 610 464 q 424 589 507 589 q 323 558 368 589 q 256 494 278 528 z "},"c":{"ha":660,"x_min":56,"x_max":604,"o":"m 588 115 l 604 44 q 583 36 601 43 q 551 24 564 29 q 512 10 538 18 q 464 -3 486 3 q 354 -14 410 -14 q 131 69 207 -14 q 56 315 56 153 q 142 578 56 476 q 372 681 228 681 q 496 665 436 681 q 586 629 556 649 l 576 458 l 496 458 l 476 563 q 338 589 429 589 q 269 576 304 589 q 222 543 235 564 q 175 321 175 476 q 226 145 175 213 q 369 78 276 78 q 588 115 438 78 z "},"d":{"ha":790,"x_min":54,"x_max":750,"o":"m 528 185 l 528 535 q 374 589 474 589 q 232 551 275 589 q 189 458 204 528 q 174 332 174 389 q 353 78 174 78 q 467 117 417 78 q 528 185 517 157 m 638 1083 l 638 136 q 643 95 638 106 q 669 83 649 85 l 750 75 l 750 0 l 544 0 l 533 94 q 499 53 519 74 q 426 10 478 33 q 315 -14 375 -14 q 124 72 194 -14 q 54 310 54 158 q 143 572 54 463 q 383 681 232 681 q 528 656 453 681 l 528 950 q 521 990 528 979 q 493 1003 514 1001 l 410 1011 l 410 1083 l 638 1083 z "},"e":{"ha":672,"x_min":50,"x_max":618,"o":"m 618 336 l 171 304 q 375 78 178 78 q 593 118 472 78 l 613 50 q 514 14 572 29 q 336 -14 418 -14 q 120 77 190 -14 q 50 326 50 168 q 132 582 50 483 q 362 681 214 681 q 564 595 510 681 q 618 336 618 510 m 169 388 l 508 417 q 476 542 508 494 q 345 589 444 589 q 215 551 246 589 q 169 388 183 514 z "},"f":{"ha":464,"x_min":51,"x_max":571,"o":"m 51 661 l 164 674 l 167 674 l 167 819 q 238 1026 167 956 q 431 1097 310 1097 q 571 1071 500 1097 l 529 968 q 499 978 524 969 q 385 1000 439 1000 q 303 972 331 1000 q 276 897 276 944 l 276 674 l 454 688 l 454 594 l 276 594 l 276 136 q 282 95 276 106 q 308 83 288 85 l 417 74 l 417 0 l 56 0 l 56 75 l 135 83 q 161 95 156 85 q 167 136 167 106 l 167 594 l 51 594 l 51 661 z "},"g":{"ha":693,"x_min":33,"x_max":663,"o":"m 663 711 l 663 636 q 554 599 611 603 q 606 427 606 535 q 523 247 606 319 q 314 174 440 174 q 272 175 286 174 l 242 93 q 285 64 242 71 q 517 31 406 49 q 650 -112 650 10 q 559 -278 650 -210 q 322 -347 468 -347 q 153 -325 231 -347 q 33 -265 75 -303 l 63 -94 l 139 -94 l 139 -199 q 351 -247 213 -247 q 492 -223 444 -247 q 540 -136 540 -199 q 516 -92 540 -106 q 399 -69 492 -79 q 224 -43 306 -58 q 125 81 125 -24 l 196 192 q 49 426 49 247 q 122 605 49 528 q 347 682 196 682 l 353 682 q 523 685 467 682 q 663 711 579 689 m 463 310 q 490 433 490 347 q 318 604 490 604 q 194 560 225 604 q 164 433 164 517 q 206 301 164 349 q 335 254 247 254 q 463 310 422 254 z "},"h":{"ha":871,"x_min":56,"x_max":826,"o":"m 826 0 l 608 0 l 608 450 q 569 544 608 511 q 465 578 531 578 q 350 546 400 578 q 276 471 300 514 l 276 136 q 282 95 276 106 q 308 83 288 85 l 392 74 l 392 0 l 58 0 l 58 75 l 135 83 q 161 95 156 85 q 167 136 167 106 l 167 949 q 161 990 167 979 q 135 1003 156 1001 l 56 1011 l 56 1083 l 276 1083 l 276 567 q 328 617 307 599 q 399 658 349 636 q 507 681 450 681 q 667 623 617 681 q 718 478 718 565 l 718 136 q 724 95 718 106 q 750 83 729 85 l 826 75 l 826 0 z "},"i":{"ha":429,"x_min":58,"x_max":385,"o":"m 276 667 l 276 136 q 282 96 276 106 q 308 83 288 86 l 385 75 l 385 0 l 58 0 l 58 75 l 135 83 q 161 96 156 86 q 167 136 167 106 l 167 533 q 161 574 167 564 q 135 586 156 585 l 58 594 l 58 667 l 276 667 m 210 992 q 234 992 210 992 q 273 972 258 992 q 288 906 288 951 q 268 844 288 860 q 203 828 249 828 q 140 846 157 828 q 124 907 124 864 q 143 971 124 950 q 210 992 163 992 z "},"j":{"ha":401,"x_min":-32,"x_max":275,"o":"m 198 992 q 222 992 198 992 q 260 972 246 992 q 275 906 275 951 q 256 844 275 860 q 190 828 236 828 q 128 846 144 828 q 111 907 111 864 q 131 971 111 950 q 198 992 150 992 m 153 35 l 153 533 q 147 574 153 564 q 121 586 142 585 l 44 594 l 44 667 l 263 667 l 263 -4 q 247 -161 263 -108 q 185 -255 231 -214 q 36 -347 140 -296 l -32 -292 q 90 -203 56 -237 q 138 -118 124 -169 q 153 35 153 -67 z "},"k":{"ha":753,"x_min":58,"x_max":767,"o":"m 167 136 l 167 950 q 161 991 167 981 q 135 1003 156 1001 l 58 1011 l 58 1083 l 276 1083 l 276 401 l 472 600 q 540 653 513 640 q 606 667 568 667 l 668 667 l 668 586 l 646 586 q 576 565 614 586 q 514 522 539 544 q 451 458 489 499 l 396 400 l 396 390 l 564 175 q 715 76 639 76 q 745 80 726 76 q 767 83 764 83 l 753 7 q 658 -14 697 -14 q 515 71 579 -14 l 276 379 l 276 136 q 282 96 276 106 q 308 83 288 86 l 374 72 l 374 0 l 58 0 l 58 75 l 135 83 q 161 96 156 86 q 167 136 167 106 z "},"l":{"ha":429,"x_min":58,"x_max":385,"o":"m 58 1083 l 276 1083 l 276 136 q 282 96 276 106 q 308 83 288 86 l 385 75 l 385 0 l 58 0 l 58 75 l 135 83 q 161 96 156 86 q 167 136 167 106 l 167 953 q 161 992 167 982 q 135 1003 156 1001 l 58 1011 l 58 1083 z "},"m":{"ha":1269,"x_min":58,"x_max":1225,"o":"m 697 496 l 699 481 l 699 136 q 704 95 699 106 q 731 83 710 85 l 814 74 l 814 0 l 589 0 l 589 447 q 458 578 589 578 q 351 547 403 578 q 276 472 300 515 l 276 136 q 282 95 276 106 q 308 83 288 85 l 392 74 l 392 0 l 58 0 l 58 75 l 135 83 q 161 95 156 85 q 167 136 167 106 l 167 533 q 161 574 167 564 q 135 586 156 585 l 58 594 l 58 667 l 263 667 l 275 565 q 326 616 306 597 q 397 658 346 635 q 504 681 447 681 q 682 569 635 681 q 913 681 774 681 q 1067 622 1017 681 q 1117 481 1117 564 l 1117 136 q 1122 96 1117 106 q 1149 83 1128 86 l 1225 75 l 1225 0 l 1007 0 l 1007 447 q 971 544 1007 510 q 867 578 935 578 q 697 496 774 578 z "},"n":{"ha":871,"x_min":58,"x_max":826,"o":"m 826 0 l 608 0 l 608 449 q 569 544 608 511 q 465 578 531 578 q 350 546 400 578 q 276 472 300 514 l 276 136 q 282 95 276 106 q 308 83 288 85 l 392 74 l 392 0 l 58 0 l 58 75 l 135 83 q 161 95 156 85 q 167 136 167 106 l 167 533 q 161 574 167 564 q 135 586 156 585 l 58 594 l 58 667 l 263 667 l 275 567 q 328 618 307 600 q 399 658 349 636 q 507 681 450 681 q 668 624 618 681 q 718 482 718 567 l 718 136 q 724 96 718 106 q 750 83 729 86 l 826 75 l 826 0 z "},"o":{"ha":754,"x_min":56,"x_max":699,"o":"m 621 100 q 513 17 582 49 q 354 -14 444 -14 q 128 79 200 -14 q 56 333 56 172 q 133 567 56 464 q 241 649 172 618 q 400 681 310 681 q 626 588 554 681 q 699 349 699 494 q 621 100 699 203 m 579 339 q 524 522 579 456 q 370 589 468 589 q 238 555 272 589 q 190 456 204 521 q 175 328 175 392 q 231 144 175 211 q 384 78 286 78 q 516 112 482 78 q 565 210 550 146 q 579 339 579 275 z "},"p":{"ha":790,"x_min":42,"x_max":736,"o":"m 263 493 l 263 131 q 420 78 325 78 q 560 121 515 78 q 601 211 586 150 q 617 343 617 272 q 568 526 617 463 q 429 589 519 589 q 328 554 379 589 q 263 493 276 519 m 153 -197 l 153 533 q 147 574 153 564 q 121 586 142 585 l 44 594 l 44 667 l 249 667 l 260 578 q 476 681 347 681 q 670 590 604 681 q 736 344 736 499 q 640 88 736 189 q 400 -14 544 -14 q 263 15 317 -14 l 263 -197 q 268 -238 263 -228 q 294 -250 274 -249 l 396 -260 l 396 -333 l 42 -333 l 42 -258 l 121 -250 q 147 -238 142 -249 q 153 -197 153 -228 z "},"q":{"ha":778,"x_min":54,"x_max":747,"o":"m 529 165 l 529 556 q 458 579 507 569 q 365 589 408 589 q 247 559 285 589 q 192 465 210 529 q 174 332 174 401 q 223 141 174 204 q 363 78 272 78 q 472 108 425 78 q 529 165 518 138 m 529 -197 l 529 78 q 308 -14 450 -14 q 125 72 196 -14 q 54 317 54 158 q 140 578 54 475 q 378 681 225 681 q 478 666 436 681 q 529 650 521 651 l 639 667 l 639 -197 q 644 -238 639 -228 q 671 -250 650 -249 l 747 -258 l 747 -333 l 396 -333 l 396 -260 l 497 -250 q 524 -238 518 -249 q 529 -197 529 -228 z "},"r":{"ha":611,"x_min":56,"x_max":597,"o":"m 167 136 l 167 533 q 161 574 167 564 q 135 586 156 585 l 58 594 l 58 667 l 257 667 l 271 528 q 352 631 292 582 q 482 681 413 681 q 597 654 551 681 l 586 479 l 506 479 l 490 568 q 439 578 471 578 q 334 526 379 578 q 276 421 289 475 l 276 136 q 282 95 276 106 q 308 83 288 85 l 410 74 l 410 0 l 56 0 l 56 75 l 135 83 q 161 95 156 85 q 167 136 167 106 z "},"s":{"ha":611,"x_min":60,"x_max":560,"o":"m 69 507 q 69 549 69 507 q 140 636 69 592 q 307 681 210 681 q 529 642 404 681 l 519 479 l 439 479 l 419 581 q 304 601 364 601 q 178 514 178 601 q 217 446 178 471 q 358 387 256 421 q 510 311 461 353 q 560 194 560 269 q 484 42 560 99 q 294 -14 408 -14 q 60 35 181 -14 l 69 203 l 153 203 l 165 101 q 293 72 238 72 q 447 174 447 72 q 405 242 447 214 q 262 301 363 269 q 115 377 161 332 q 69 507 69 422 z "},"t":{"ha":492,"x_min":28,"x_max":474,"o":"m 28 588 l 28 654 l 132 667 l 132 790 l 242 815 l 242 667 l 426 681 l 426 588 l 242 588 l 242 272 q 266 117 242 161 q 375 74 290 74 q 474 83 411 74 l 461 13 q 390 -6 442 3 q 295 -14 339 -14 q 219 -1 251 -14 q 170 31 188 13 q 144 89 153 50 q 132 251 132 140 l 132 588 l 28 588 z "},"u":{"ha":842,"x_min":38,"x_max":799,"o":"m 579 193 l 579 533 q 574 574 579 564 q 547 586 568 585 l 471 594 l 471 667 l 689 667 l 689 136 q 694 95 689 106 q 721 83 700 85 l 799 75 l 799 0 l 599 0 l 588 106 q 360 -14 486 -14 q 201 38 257 -14 q 146 185 146 89 l 146 533 q 140 574 146 564 q 114 586 135 585 l 38 594 l 38 667 l 256 667 l 256 222 q 392 89 256 89 q 510 127 456 89 q 579 193 564 165 z "},"v":{"ha":715,"x_min":-24,"x_max":731,"o":"m 418 0 l 294 0 l 85 533 q 78 550 79 544 q 74 560 76 556 q 71 567 72 565 q 67 573 69 569 q 61 578 64 576 q 56 581 58 579 q 38 586 47 586 l -24 594 l -24 667 l 299 667 l 299 596 l 228 588 q 196 564 196 583 q 204 533 196 561 l 336 186 l 364 90 l 392 186 l 524 533 q 531 563 531 554 q 497 588 531 583 l 426 596 l 426 667 l 731 667 l 731 594 l 669 586 q 633 558 643 583 l 418 0 z "},"w":{"ha":1057,"x_min":1,"x_max":1043,"o":"m 228 533 l 324 183 l 338 106 l 353 183 l 475 596 l 583 596 l 710 183 l 726 99 l 740 183 l 836 533 q 843 563 843 554 q 810 588 843 583 l 739 596 l 739 667 l 1043 667 l 1043 594 l 982 586 q 935 533 950 582 l 772 0 l 658 0 l 531 401 l 519 457 l 508 401 l 385 0 l 271 0 l 110 533 q 103 550 104 544 q 99 560 101 556 q 96 567 97 565 q 92 573 94 569 q 86 578 89 576 q 81 581 83 579 q 63 586 72 586 l 1 594 l 1 667 l 322 667 l 322 596 l 251 588 q 219 564 219 583 q 228 533 219 561 z "},"x":{"ha":739,"x_min":15,"x_max":733,"o":"m 310 338 l 133 547 q 103 578 114 571 q 71 589 93 585 l 25 597 l 25 667 l 321 667 l 321 599 l 261 590 q 244 579 244 589 q 256 560 244 571 q 268 547 256 560 l 386 407 l 501 547 q 511 558 504 551 q 525 581 525 572 q 507 590 525 589 l 447 599 l 447 667 l 724 667 l 724 597 l 678 589 q 638 577 651 585 q 606 547 624 569 l 440 343 l 619 132 q 688 81 658 86 l 733 72 l 733 0 l 431 0 l 431 71 l 493 79 q 510 90 510 82 q 483 133 510 103 l 364 274 l 247 132 q 219 89 219 96 q 235 79 219 82 l 297 71 l 297 0 l 15 0 l 15 72 l 61 81 q 140 132 104 89 l 310 338 z "},"y":{"ha":726,"x_min":-19,"x_max":731,"o":"m 669 586 q 629 550 643 583 q 353 -181 622 533 q 146 -347 293 -347 q 21 -331 68 -347 l 7 -249 q 107 -260 78 -260 q 205 -223 161 -260 q 274 -118 249 -186 l 306 -31 l 89 533 q 82 550 83 544 q 78 560 81 556 q 75 567 76 565 q 71 573 74 569 q 65 578 68 576 q 58 581 63 579 q 42 586 51 586 l -19 594 l -19 667 l 303 667 l 303 596 l 232 588 q 200 564 200 583 q 208 533 200 554 l 368 106 l 524 533 q 531 563 531 554 q 497 588 531 583 l 426 596 l 426 667 l 731 667 l 731 594 l 669 586 z "},"z":{"ha":699,"x_min":60,"x_max":643,"o":"m 488 582 l 217 582 q 175 576 186 582 q 163 550 164 571 l 153 460 l 78 460 l 68 667 l 626 667 l 626 586 l 199 88 l 494 88 q 536 93 525 88 q 549 119 547 99 l 558 221 l 635 221 l 643 0 l 60 0 l 60 83 l 488 582 z "},"{":{"ha":468,"x_min":58,"x_max":400,"o":"m 58 344 l 58 403 q 160 619 160 403 l 160 928 q 194 1038 160 993 q 292 1083 229 1083 l 400 1083 l 400 1017 l 349 1017 q 285 987 301 1017 q 268 893 268 957 l 268 597 q 233 447 268 515 q 151 374 199 378 q 233 301 199 369 q 268 150 268 232 l 268 -146 q 285 -240 268 -210 q 349 -269 301 -269 l 400 -269 l 400 -336 l 292 -336 q 194 -291 229 -336 q 160 -181 160 -246 l 160 128 q 58 344 160 344 z "},"|":{"ha":415,"x_min":160,"x_max":256,"o":"m 160 1097 l 256 1097 l 256 -333 l 160 -333 l 160 1097 z "},"}":{"ha":468,"x_min":58,"x_max":400,"o":"m 400 403 l 400 344 q 299 128 299 344 l 299 -181 q 264 -291 299 -246 q 167 -336 229 -336 l 58 -336 l 58 -269 l 110 -269 q 174 -240 157 -269 q 190 -146 190 -210 l 190 150 q 224 301 190 233 q 306 374 258 369 q 224 446 258 378 q 190 597 190 514 l 190 893 q 174 987 190 957 q 110 1017 157 1017 l 58 1017 l 58 1083 l 167 1083 q 264 1038 229 1083 q 299 928 299 993 l 299 619 q 400 403 299 403 z "},"~":{"ha":792,"x_min":100,"x_max":692,"o":"m 515 264 q 390 303 472 264 q 281 342 308 342 q 230 334 253 342 q 192 319 207 326 q 117 278 146 297 l 100 343 q 289 442 221 442 q 416 403 336 442 q 536 364 496 364 q 675 418 576 364 l 692 353 q 515 264 600 264 z "},"¡":{"ha":449,"x_min":139,"x_max":319,"o":"m 164 520 q 151 530 164 520 q 139 588 139 540 q 154 658 139 635 q 222 681 169 681 q 297 656 274 681 q 319 588 319 631 q 299 522 319 544 q 233 500 278 500 q 164 520 189 500 m 163 -108 l 183 425 l 268 425 l 290 -108 l 294 -333 l 157 -333 l 163 -108 z "},"¢":{"ha":667,"x_min":63,"x_max":611,"o":"m 594 254 l 611 183 q 485 140 547 151 q 394 126 424 128 l 401 -53 l 303 -53 l 310 128 q 63 439 63 156 q 127 676 63 579 q 306 797 192 772 l 299 983 l 397 983 l 390 806 q 593 754 519 801 l 583 583 l 503 583 l 483 688 q 344 714 436 714 q 276 701 311 714 q 229 668 242 689 q 182 446 182 601 q 233 281 182 344 q 376 217 283 217 q 594 254 444 217 z "},"£":{"ha":825,"x_min":75,"x_max":751,"o":"m 86 392 l 86 475 l 200 475 q 192 640 192 567 q 215 776 192 713 q 272 873 239 839 q 350 928 304 907 q 497 961 422 961 q 696 907 621 961 l 636 785 q 450 851 547 851 q 348 815 382 851 q 314 716 314 779 q 325 475 314 653 l 547 475 l 522 392 l 328 392 q 331 285 331 319 q 257 99 331 172 q 364 114 321 114 q 482 101 407 114 q 589 88 557 88 q 651 146 651 88 l 651 221 l 735 221 l 751 6 q 640 -14 721 -14 q 449 -1 558 -14 q 278 13 340 13 q 117 -19 215 13 l 75 68 q 164 104 113 74 q 215 233 215 135 q 207 392 215 267 l 86 392 z "},"¤":{"ha":717,"x_min":42,"x_max":675,"o":"m 563 613 q 618 449 618 540 q 554 282 618 357 l 668 156 l 589 89 l 485 224 q 350 189 422 189 q 228 213 278 189 l 124 78 l 46 143 l 157 265 q 89 440 89 338 q 156 614 89 542 l 42 742 l 119 810 l 226 671 q 363 704 286 704 q 496 669 439 704 l 597 801 l 675 736 l 563 613 m 359 283 q 395 283 359 283 q 472 331 431 283 q 513 449 513 378 q 466 563 513 521 q 348 606 419 606 q 234 559 276 606 q 192 440 192 513 q 240 326 192 368 q 359 283 288 283 z "},"¥":{"ha":950,"x_min":24,"x_max":910,"o":"m 788 797 l 538 378 l 538 319 l 700 319 l 686 236 l 538 236 l 538 147 q 545 109 538 119 q 578 94 553 99 l 657 82 l 657 0 l 299 0 l 299 82 l 378 94 q 410 109 403 99 q 418 147 418 119 l 418 236 l 256 236 l 269 319 l 418 319 l 418 353 l 160 797 q 125 840 142 828 q 76 856 108 851 l 24 863 l 24 944 l 397 944 l 397 864 l 328 856 q 283 829 283 849 q 294 797 283 819 l 488 472 l 674 797 q 683 826 683 815 q 635 854 683 847 l 565 863 l 565 944 l 910 944 l 910 863 l 857 856 q 817 841 829 851 q 788 797 806 831 z "},"¦":{"ha":422,"x_min":160,"x_max":263,"o":"m 160 1097 l 263 1097 l 263 569 l 160 569 l 160 1097 m 160 194 l 263 194 l 263 -333 l 160 -333 l 160 194 z "},"§":{"ha":708,"x_min":56,"x_max":653,"o":"m 163 36 l 175 -86 q 333 -133 257 -133 q 456 -97 410 -133 q 503 -8 503 -61 q 475 75 503 44 q 371 138 447 106 l 229 197 q 114 276 151 229 q 76 392 76 322 q 97 493 76 461 q 192 590 118 525 q 86 790 86 660 q 156 953 86 892 q 349 1014 226 1014 q 600 982 472 1014 l 585 792 l 499 792 l 482 899 q 343 928 415 928 q 206 804 206 928 q 235 722 206 754 q 340 664 265 690 l 458 619 q 585 550 553 576 q 653 399 653 492 q 628 292 653 335 q 535 197 603 250 q 622 8 622 135 q 538 -160 622 -96 q 316 -225 454 -225 q 56 -161 178 -225 l 76 36 l 163 36 m 196 419 q 223 351 196 378 q 321 296 250 324 l 421 256 l 453 242 q 517 306 500 278 q 533 378 533 335 q 501 450 533 421 q 396 507 469 479 l 274 553 q 196 419 196 485 z "},"¨":{"ha":760,"x_min":160,"x_max":600,"o":"m 242 975 q 265 975 242 975 q 301 956 288 975 q 315 894 315 938 q 297 835 315 850 q 235 819 278 819 q 176 836 192 819 q 160 894 160 853 q 178 956 160 936 q 242 975 197 975 m 527 975 q 550 975 527 975 q 586 956 572 975 q 600 894 600 938 q 581 835 600 850 q 519 819 563 819 q 460 836 476 819 q 444 894 444 853 q 463 956 444 936 q 527 975 482 975 z "},"©":{"ha":1144,"x_min":65,"x_max":1093,"o":"m 579 -14 q 473 -14 579 -14 q 216 137 367 -14 q 65 500 65 288 q 216 863 65 713 q 579 1014 367 1014 q 942 863 792 1014 q 1093 500 1093 713 q 942 137 1093 288 q 579 -14 792 -14 m 578 944 q 487 944 578 944 q 265 813 396 944 q 135 499 135 682 q 266 186 135 317 q 579 56 397 56 q 892 186 761 56 q 1024 499 1024 317 q 892 813 1024 682 q 578 944 761 944 m 761 328 l 775 260 q 754 251 772 258 q 720 238 736 244 q 681 225 704 232 q 579 211 628 211 q 389 283 454 211 q 324 492 324 356 q 397 711 324 628 q 594 794 469 794 q 765 751 686 794 l 757 601 l 683 601 l 668 689 q 562 711 629 711 q 468 672 494 711 q 428 506 428 610 q 471 348 428 401 q 586 294 514 294 q 761 328 658 294 z "},"ª":{"ha":456,"x_min":35,"x_max":422,"o":"m 358 900 l 358 689 q 362 666 358 672 q 378 658 365 660 l 422 653 l 422 601 l 296 601 l 289 667 q 146 593 224 593 q 65 624 96 593 q 35 707 35 656 q 65 791 35 758 q 154 832 96 824 l 285 851 l 285 892 q 199 960 285 960 q 122 942 169 960 l 111 882 l 60 882 l 54 985 q 204 1014 138 1014 q 315 986 271 1014 q 358 900 358 958 m 285 792 l 174 775 q 115 713 115 765 q 167 663 115 663 q 285 729 218 663 l 285 792 m 44 451 l 44 529 l 415 529 l 415 451 l 44 451 z "},"«":{"ha":679,"x_min":78,"x_max":572,"o":"m 285 61 l 78 329 l 285 597 q 299 583 290 592 q 313 568 307 574 q 326 538 326 554 q 315 500 326 521 l 208 329 l 315 158 q 326 125 326 138 q 322 103 326 113 q 313 89 317 93 q 298 74 310 85 q 285 61 286 63 m 531 61 l 324 329 l 531 597 q 544 583 536 592 q 558 568 553 574 q 572 538 572 554 q 561 500 572 521 l 454 329 l 561 158 q 572 125 572 138 q 567 103 572 113 q 559 89 563 93 q 544 74 556 85 q 531 61 532 63 z "},"¬":{"ha":732,"x_min":56,"x_max":676,"o":"m 676 176 l 586 176 l 586 390 l 56 390 l 56 485 l 676 485 l 676 176 z "},"®":{"ha":722,"x_min":75,"x_max":632,"o":"m 353 506 q 295 506 353 506 q 156 586 236 506 q 75 784 75 667 q 156 982 75 901 q 353 1063 236 1063 q 551 982 471 1063 q 632 784 632 901 q 551 586 632 667 q 353 506 471 506 m 192 944 q 159 911 192 944 q 126 783 126 878 q 192 623 126 689 q 353 557 258 557 q 514 623 447 557 q 581 783 581 689 q 514 944 581 878 q 353 1011 447 1011 q 192 944 258 1011 m 351 799 q 407 861 407 799 q 391 897 407 888 q 342 907 375 907 l 315 907 l 315 799 l 351 799 m 315 754 l 315 678 q 325 658 315 660 l 354 654 l 354 626 l 235 626 l 235 654 l 258 658 q 269 678 269 663 l 269 890 q 258 911 269 907 l 235 914 l 235 946 l 353 946 q 456 858 456 946 q 374 768 456 793 q 408 738 390 764 l 447 685 q 478 658 467 658 q 497 661 489 658 l 494 628 q 460 624 474 624 q 407 665 433 624 l 356 739 q 324 754 347 754 l 315 754 z "},"¯":{"ha":522,"x_min":81,"x_max":465,"o":"m 81 858 l 94 956 l 465 956 l 451 858 l 81 858 z "},"°":{"ha":442,"x_min":17,"x_max":425,"o":"m 367 958 q 396 930 367 958 q 425 814 425 901 q 367 670 425 726 q 221 614 310 614 q 74 670 132 614 q 17 814 17 726 q 74 958 17 901 q 221 1014 132 1014 q 367 958 310 1014 m 312 722 q 328 739 312 722 q 344 814 344 756 q 312 906 344 872 q 221 940 279 940 q 130 906 163 940 q 97 814 97 872 q 130 722 97 756 q 221 688 163 688 q 312 722 279 688 z "},"±":{"ha":717,"x_min":56,"x_max":661,"o":"m 401 192 l 307 192 l 307 429 l 56 429 l 56 524 l 307 524 l 307 769 l 401 769 l 401 524 l 661 524 l 661 429 l 401 429 l 401 192 m 56 19 l 56 114 l 661 114 l 661 19 l 56 19 z "},"²":{"ha":499,"x_min":42,"x_max":457,"o":"m 457 471 l 457 388 l 42 388 l 42 407 q 89 554 42 501 q 133 597 114 582 q 198 640 153 611 q 270 690 243 669 q 325 751 297 711 q 353 833 353 790 q 247 935 353 935 q 149 915 193 935 l 129 818 l 58 818 l 50 969 q 264 1008 167 1008 q 409 963 361 1008 q 457 843 457 918 q 397 692 457 751 q 341 642 365 660 q 290 606 317 624 q 247 578 263 588 q 226 565 232 568 q 209 552 221 561 q 192 538 197 543 q 179 524 188 533 q 168 508 171 515 q 160 471 160 488 l 457 471 z "},"³":{"ha":496,"x_min":35,"x_max":461,"o":"m 153 672 l 147 738 q 343 872 343 774 q 317 920 343 901 q 241 939 290 939 q 154 928 192 939 l 140 851 l 75 851 l 67 981 q 268 1008 181 1008 q 398 972 356 1008 q 440 883 440 935 q 299 722 440 771 q 417 676 374 704 q 461 563 461 643 q 399 426 461 483 q 235 369 336 369 q 35 414 135 369 l 54 478 q 223 443 158 443 q 322 479 288 443 q 357 560 357 515 q 238 664 357 653 l 153 672 z "},"´":{"ha":396,"x_min":49,"x_max":346,"o":"m 265 1058 l 346 975 l 156 803 q 110 783 135 783 q 49 814 85 783 l 265 1058 z "},"µ":{"ha":840,"x_min":139,"x_max":801,"o":"m 140 17 l 139 246 l 139 667 l 249 667 l 249 222 q 385 89 249 89 q 503 127 449 89 q 572 193 557 165 l 572 667 l 682 667 l 682 139 q 747 76 682 76 q 801 85 783 76 l 788 7 q 700 -14 738 -14 q 624 15 663 -14 q 581 106 585 44 q 353 -14 479 -14 q 221 31 276 -14 q 285 -315 226 -103 l 167 -347 q 140 17 140 -229 z "},"¶":{"ha":786,"x_min":49,"x_max":661,"o":"m 351 -228 l 351 431 q 117 492 185 431 q 49 699 49 554 q 115 922 49 844 q 351 1000 181 1000 l 458 1000 l 458 -228 l 351 -228 m 554 -228 l 554 1000 l 661 1000 l 661 -228 l 554 -228 z "},"·":{"ha":303,"x_min":69,"x_max":233,"o":"m 156 479 q 181 479 156 479 q 219 459 206 479 q 233 393 233 439 q 213 331 233 347 q 142 315 193 315 q 69 389 69 315 q 88 458 69 438 q 156 479 107 479 z "},"¸":{"ha":447,"x_min":92,"x_max":364,"o":"m 189 18 l 251 1 l 251 -86 l 289 -99 q 349 -132 333 -112 q 364 -186 364 -151 q 319 -285 364 -250 q 214 -319 274 -319 q 92 -290 154 -319 l 108 -236 q 208 -256 157 -256 q 276 -189 276 -256 q 261 -157 276 -168 q 214 -139 246 -146 l 163 -128 l 189 18 z "},"¹":{"ha":424,"x_min":63,"x_max":396,"o":"m 283 999 l 283 506 q 288 468 283 478 q 313 457 293 458 l 396 449 l 396 382 l 85 382 l 85 449 l 165 457 q 190 469 185 458 q 196 506 196 479 l 196 888 l 63 831 l 63 918 l 228 999 l 283 999 z "},"º":{"ha":460,"x_min":35,"x_max":425,"o":"m 44 451 l 44 529 l 415 529 l 415 451 l 44 451 m 238 1014 q 288 1014 238 1014 q 381 957 338 1014 q 425 810 425 900 q 373 656 425 719 q 215 593 321 593 q 35 803 35 593 q 87 951 35 888 q 238 1014 139 1014 m 344 791 q 344 833 344 791 q 313 913 344 875 q 226 951 282 951 q 147 929 169 951 q 115 814 115 897 q 238 656 115 656 q 317 681 289 656 q 344 791 344 707 z "},"»":{"ha":679,"x_min":107,"x_max":601,"o":"m 601 329 l 394 61 q 381 74 393 63 q 367 89 369 85 q 353 121 353 104 q 364 158 353 138 l 471 329 l 364 500 q 353 534 353 521 q 358 556 353 547 q 377 578 364 565 q 394 597 390 592 l 601 329 m 356 329 l 149 61 q 135 74 147 63 q 119 89 124 85 q 107 121 107 104 q 118 158 107 138 l 225 329 l 118 500 q 107 534 107 521 q 113 556 107 547 q 131 578 118 565 q 149 597 144 592 l 356 329 z "},"¼":{"ha":1075,"x_min":63,"x_max":1075,"o":"m 283 999 l 283 506 q 288 468 283 478 q 313 457 293 458 l 396 449 l 396 382 l 85 382 l 85 449 l 165 457 q 190 469 185 458 q 196 506 196 479 l 196 888 l 63 831 l 63 918 l 228 999 l 283 999 m 867 1014 l 950 1014 l 325 0 l 243 0 l 867 1014 m 1075 214 l 1075 139 l 976 139 l 976 0 l 889 0 l 889 139 l 610 139 l 572 214 l 889 626 l 946 578 l 681 214 l 889 214 l 889 396 l 976 396 l 976 214 l 1075 214 z "},"½":{"ha":1210,"x_min":63,"x_max":1168,"o":"m 283 999 l 283 506 q 288 468 283 478 q 313 457 293 458 l 396 449 l 396 382 l 85 382 l 85 449 l 165 457 q 190 469 185 458 q 196 506 196 479 l 196 888 l 63 831 l 63 918 l 228 999 l 283 999 m 1168 83 l 1168 0 l 753 0 l 753 19 q 800 167 753 114 q 844 209 825 194 q 909 253 864 224 q 981 303 954 282 q 1036 363 1008 324 q 1064 446 1064 403 q 958 547 1064 547 q 860 528 904 547 l 840 431 l 769 431 l 761 582 q 975 621 878 621 q 1120 576 1072 621 q 1168 456 1168 531 q 1108 304 1168 364 q 1052 254 1076 272 q 1001 218 1028 236 q 958 190 974 200 q 938 177 943 181 q 920 165 932 174 q 903 151 908 156 q 890 137 899 146 q 879 121 882 128 q 871 83 871 100 l 1168 83 m 867 1014 l 950 1014 l 325 0 l 243 0 l 867 1014 z "},"¾":{"ha":1104,"x_min":35,"x_max":1104,"o":"m 896 1014 l 979 1014 l 354 0 l 272 0 l 896 1014 m 1104 214 l 1104 139 l 1006 139 l 1006 0 l 918 0 l 918 139 l 639 139 l 601 214 l 918 626 l 975 578 l 710 214 l 918 214 l 918 396 l 1006 396 l 1006 214 l 1104 214 m 153 672 l 147 738 q 343 872 343 774 q 317 920 343 901 q 241 939 290 939 q 154 928 192 939 l 140 851 l 75 851 l 67 981 q 268 1008 181 1008 q 398 972 356 1008 q 440 883 440 935 q 299 722 440 771 q 417 676 374 704 q 461 563 461 643 q 399 426 461 483 q 235 369 336 369 q 35 414 135 369 l 54 478 q 223 443 158 443 q 322 479 288 443 q 357 560 357 515 q 238 664 357 653 l 153 672 z "},"¿":{"ha":610,"x_min":53,"x_max":571,"o":"m 165 -135 q 313 -264 165 -264 q 453 -235 382 -264 l 467 -125 l 556 -125 l 571 -301 q 309 -346 438 -346 q 117 -287 181 -346 q 53 -135 53 -229 q 74 -12 53 -65 q 128 72 96 42 q 199 131 161 103 q 271 178 238 158 q 353 293 347 222 l 360 414 l 443 424 l 450 357 q 457 246 457 290 q 435 171 457 201 q 381 119 414 140 q 311 73 349 99 q 241 22 274 47 q 187 -44 208 -3 q 165 -135 165 -85 m 399 682 q 425 682 399 682 q 465 663 451 682 q 479 592 479 643 q 459 526 479 542 q 389 510 439 510 q 323 526 339 510 q 307 592 307 543 q 326 662 307 642 q 399 682 346 682 z "},"À":{"ha":921,"x_min":-21,"x_max":943,"o":"m 217 1206 l 285 1299 l 533 1088 q 467 1047 499 1047 q 429 1061 451 1047 l 217 1206 m 97 156 l 396 1000 l 525 1000 l 822 156 q 848 109 835 121 q 889 92 861 97 l 943 82 l 943 0 l 586 0 l 586 79 l 663 92 q 699 125 699 97 q 693 153 699 138 l 632 329 l 264 329 l 206 157 q 200 128 200 142 q 238 92 200 97 l 313 79 l 313 0 l -21 0 l -21 82 l 32 92 q 72 109 60 97 q 97 156 85 121 m 463 818 l 447 881 l 432 818 l 297 426 l 597 426 l 463 818 z "},"Á":{"ha":921,"x_min":-21,"x_max":943,"o":"m 640 1299 l 708 1206 l 496 1061 q 458 1047 474 1047 q 392 1088 426 1047 l 640 1299 m 97 156 l 396 1000 l 525 1000 l 822 156 q 848 109 835 121 q 889 92 861 97 l 943 82 l 943 0 l 586 0 l 586 79 l 663 92 q 699 125 699 97 q 693 153 699 138 l 632 329 l 264 329 l 206 157 q 200 128 200 142 q 238 92 200 97 l 313 79 l 313 0 l -21 0 l -21 82 l 32 92 q 72 109 60 97 q 97 156 85 121 m 463 818 l 447 881 l 432 818 l 297 426 l 597 426 l 463 818 z "},"Â":{"ha":921,"x_min":-21,"x_max":943,"o":"m 408 1268 l 513 1268 l 671 1081 l 618 1036 l 460 1183 l 303 1036 l 249 1081 l 408 1268 m 97 156 l 396 1000 l 525 1000 l 822 156 q 848 109 835 121 q 889 92 861 97 l 943 82 l 943 0 l 586 0 l 586 79 l 663 92 q 699 125 699 97 q 693 153 699 138 l 632 329 l 264 329 l 206 157 q 200 128 200 142 q 238 92 200 97 l 313 79 l 313 0 l -21 0 l -21 82 l 32 92 q 72 109 60 97 q 97 156 85 121 m 463 818 l 447 881 l 432 818 l 297 426 l 597 426 l 463 818 z "},"Ã":{"ha":921,"x_min":-21,"x_max":943,"o":"m 97 156 l 396 1000 l 525 1000 l 822 156 q 848 109 835 121 q 889 92 861 97 l 943 82 l 943 0 l 586 0 l 586 79 l 663 92 q 699 125 699 97 q 693 153 699 138 l 632 329 l 264 329 l 206 157 q 200 128 200 142 q 238 92 200 97 l 313 79 l 313 0 l -21 0 l -21 82 l 32 92 q 72 109 60 97 q 97 156 85 121 m 463 818 l 447 881 l 432 818 l 297 426 l 597 426 l 463 818 m 549 1075 q 449 1101 511 1075 q 351 1126 388 1126 q 263 1083 315 1126 l 242 1142 q 367 1222 299 1222 q 469 1198 408 1222 q 568 1174 531 1174 q 650 1211 606 1174 l 672 1156 q 549 1075 617 1075 z "},"Ä":{"ha":921,"x_min":-21,"x_max":943,"o":"m 97 156 l 396 1000 l 525 1000 l 822 156 q 848 109 835 121 q 889 92 861 97 l 943 82 l 943 0 l 586 0 l 586 79 l 663 92 q 699 125 699 97 q 693 153 699 138 l 632 329 l 264 329 l 206 157 q 200 128 200 142 q 238 92 200 97 l 313 79 l 313 0 l -21 0 l -21 82 l 32 92 q 72 109 60 97 q 97 156 85 121 m 463 818 l 447 881 l 432 818 l 297 426 l 597 426 l 463 818 m 319 1239 q 341 1239 319 1239 q 378 1220 364 1239 q 392 1158 392 1201 q 373 1099 392 1114 q 311 1083 354 1083 q 252 1100 268 1083 q 236 1158 236 1117 q 255 1219 236 1200 q 319 1239 274 1239 m 603 1239 q 626 1239 603 1239 q 663 1220 649 1239 q 676 1158 676 1201 q 658 1099 676 1114 q 596 1083 639 1083 q 537 1100 553 1083 q 521 1158 521 1117 q 540 1219 521 1200 q 603 1239 558 1239 z "},"Å":{"ha":921,"x_min":-21,"x_max":943,"o":"m 97 156 l 396 1000 l 525 1000 l 822 156 q 848 109 835 121 q 889 92 861 97 l 943 82 l 943 0 l 586 0 l 586 79 l 663 92 q 699 125 699 97 q 693 153 699 138 l 632 329 l 264 329 l 206 157 q 200 128 200 142 q 238 92 200 97 l 313 79 l 313 0 l -21 0 l -21 82 l 32 92 q 72 109 60 97 q 97 156 85 121 m 463 818 l 447 881 l 432 818 l 297 426 l 597 426 l 463 818 m 555 1270 q 572 1251 555 1270 q 589 1181 589 1232 q 551 1089 589 1129 q 453 1049 514 1049 q 358 1087 392 1049 q 324 1176 324 1125 q 361 1268 324 1228 q 460 1308 399 1308 q 555 1270 521 1308 m 519 1183 q 501 1225 519 1208 q 456 1242 482 1242 q 393 1172 393 1242 q 412 1131 393 1147 q 457 1114 431 1114 q 519 1183 519 1114 z "},"Æ":{"ha":1290,"x_min":32,"x_max":1236,"o":"m 360 922 l 360 1000 l 1218 1000 l 1210 761 l 1121 761 l 1113 858 q 1099 891 1111 883 q 1060 899 1086 899 l 764 899 l 764 519 l 1068 519 l 1068 422 l 764 422 l 764 101 l 1074 101 q 1113 109 1100 101 q 1126 142 1125 117 l 1135 246 l 1228 246 l 1236 0 l 535 0 l 535 83 l 608 96 q 641 110 633 100 q 649 149 649 121 l 649 421 l 363 421 l 264 157 q 257 128 257 139 q 296 92 257 99 l 371 79 l 371 0 l 32 0 l 32 82 l 90 92 q 131 109 118 97 q 156 156 143 121 l 447 911 q 433 915 446 913 l 360 922 m 649 518 l 649 843 q 641 884 649 871 q 608 899 633 897 l 543 903 l 399 518 l 649 518 z "},"Ç":{"ha":883,"x_min":58,"x_max":822,"o":"m 789 160 l 817 69 q 613 1 738 29 q 483 -14 546 -14 l 483 -86 l 521 -99 q 581 -132 565 -112 q 596 -186 596 -151 q 551 -285 596 -250 q 446 -319 506 -319 q 324 -290 386 -319 l 340 -236 q 440 -256 389 -256 q 508 -189 508 -256 q 493 -157 508 -168 q 446 -139 478 -146 l 394 -128 l 415 -11 q 58 489 58 22 q 172 868 58 722 q 511 1014 285 1014 q 662 999 593 1014 q 822 935 731 985 l 800 708 l 700 708 l 671 861 q 576 899 617 888 q 465 910 535 910 q 351 890 394 910 q 272 836 307 871 q 215 694 238 801 q 193 499 193 586 q 272 203 193 311 q 500 94 351 94 q 789 160 615 94 z "},"È":{"ha":861,"x_min":81,"x_max":800,"o":"m 214 1206 l 282 1299 l 531 1088 q 464 1047 496 1047 q 426 1061 449 1047 l 214 1206 m 800 0 l 81 0 l 81 83 l 154 96 q 187 110 179 100 q 194 149 194 121 l 194 858 q 187 899 194 886 q 154 914 179 911 l 81 922 l 81 1000 l 794 1000 l 786 761 l 697 761 l 689 858 q 675 891 688 883 q 636 899 663 899 l 314 899 l 314 572 l 639 572 l 639 471 l 314 471 l 314 101 l 638 101 q 676 109 664 101 q 690 142 689 117 l 699 246 l 792 246 l 800 0 z "},"É":{"ha":861,"x_min":81,"x_max":800,"o":"m 619 1299 l 688 1206 l 475 1061 q 438 1047 453 1047 q 371 1088 406 1047 l 619 1299 m 800 0 l 81 0 l 81 83 l 154 96 q 187 110 179 100 q 194 149 194 121 l 194 858 q 187 899 194 886 q 154 914 179 911 l 81 922 l 81 1000 l 794 1000 l 786 761 l 697 761 l 689 858 q 675 891 688 883 q 636 899 663 899 l 314 899 l 314 572 l 639 572 l 639 471 l 314 471 l 314 101 l 638 101 q 676 109 664 101 q 690 142 689 117 l 699 246 l 792 246 l 800 0 z "},"Ê":{"ha":861,"x_min":81,"x_max":800,"o":"m 410 1268 l 514 1268 l 672 1081 l 619 1036 l 461 1183 l 304 1036 l 250 1081 l 410 1268 m 800 0 l 81 0 l 81 83 l 154 96 q 187 110 179 100 q 194 149 194 121 l 194 858 q 187 899 194 886 q 154 914 179 911 l 81 922 l 81 1000 l 794 1000 l 786 761 l 697 761 l 689 858 q 675 891 688 883 q 636 899 663 899 l 314 899 l 314 572 l 639 572 l 639 471 l 314 471 l 314 101 l 638 101 q 676 109 664 101 q 690 142 689 117 l 699 246 l 792 246 l 800 0 z "},"Ë":{"ha":861,"x_min":81,"x_max":800,"o":"m 800 0 l 81 0 l 81 83 l 154 96 q 187 110 179 100 q 194 149 194 121 l 194 858 q 187 899 194 886 q 154 914 179 911 l 81 922 l 81 1000 l 794 1000 l 786 761 l 697 761 l 689 858 q 675 891 688 883 q 636 899 663 899 l 314 899 l 314 572 l 639 572 l 639 471 l 314 471 l 314 101 l 638 101 q 676 109 664 101 q 690 142 689 117 l 699 246 l 792 246 l 800 0 m 333 1239 q 355 1239 333 1239 q 392 1220 378 1239 q 406 1158 406 1201 q 387 1099 406 1114 q 325 1083 368 1083 q 266 1100 282 1083 q 250 1158 250 1117 q 269 1219 250 1200 q 333 1239 288 1239 m 617 1239 q 640 1239 617 1239 q 676 1220 663 1239 q 690 1158 690 1201 q 672 1099 690 1114 q 610 1083 653 1083 q 551 1100 567 1083 q 535 1158 535 1117 q 553 1219 535 1200 q 617 1239 572 1239 z "},"Ì":{"ha":508,"x_min":17,"x_max":428,"o":"m 17 1206 l 85 1299 l 333 1088 q 267 1047 299 1047 q 229 1061 251 1047 l 17 1206 m 428 82 l 428 0 l 81 0 l 81 82 l 154 94 q 187 109 179 99 q 194 147 194 119 l 194 853 q 187 891 194 881 q 154 906 179 901 l 81 918 l 81 1000 l 428 1000 l 428 918 l 354 906 q 322 891 329 901 q 314 853 314 881 l 314 147 q 322 109 314 119 q 354 94 329 99 l 428 82 z "},"Í":{"ha":508,"x_min":81,"x_max":492,"o":"m 424 1299 l 492 1206 l 279 1061 q 242 1047 257 1047 q 175 1088 210 1047 l 424 1299 m 428 82 l 428 0 l 81 0 l 81 82 l 154 94 q 187 109 179 99 q 194 147 194 119 l 194 853 q 187 891 194 881 q 154 906 179 901 l 81 918 l 81 1000 l 428 1000 l 428 918 l 354 906 q 322 891 329 901 q 314 853 314 881 l 314 147 q 322 109 314 119 q 354 94 329 99 l 428 82 z "},"Î":{"ha":508,"x_min":65,"x_max":446,"o":"m 204 1268 l 308 1268 l 446 1081 l 393 1036 l 256 1183 l 119 1036 l 65 1081 l 204 1268 m 428 82 l 428 0 l 81 0 l 81 82 l 154 94 q 187 109 179 99 q 194 147 194 119 l 194 853 q 187 891 194 881 q 154 906 179 901 l 81 918 l 81 1000 l 428 1000 l 428 918 l 354 906 q 322 891 329 901 q 314 853 314 881 l 314 147 q 322 109 314 119 q 354 94 329 99 l 428 82 z "},"Ï":{"ha":508,"x_min":47,"x_max":460,"o":"m 130 1239 q 152 1239 130 1239 q 189 1220 175 1239 q 203 1158 203 1201 q 184 1099 203 1114 q 122 1083 165 1083 q 63 1100 79 1083 q 47 1158 47 1117 q 66 1219 47 1200 q 130 1239 85 1239 m 387 1239 q 409 1239 387 1239 q 446 1220 432 1239 q 460 1158 460 1201 q 441 1099 460 1114 q 379 1083 422 1083 q 320 1100 336 1083 q 304 1158 304 1117 q 323 1219 304 1200 q 387 1239 342 1239 m 428 82 l 428 0 l 81 0 l 81 82 l 154 94 q 187 109 179 99 q 194 147 194 119 l 194 853 q 187 891 194 881 q 154 906 179 901 l 81 918 l 81 1000 l 428 1000 l 428 918 l 354 906 q 322 891 329 901 q 314 853 314 881 l 314 147 q 322 109 314 119 q 354 94 329 99 l 428 82 z "},"Ð":{"ha":997,"x_min":81,"x_max":933,"o":"m 81 443 l 81 544 l 194 544 l 194 858 q 187 899 194 886 q 154 914 179 911 l 81 922 l 81 1000 l 496 1000 q 933 515 933 1000 q 828 138 933 276 q 496 0 722 0 l 81 0 l 81 83 l 154 96 q 187 112 179 100 q 194 151 194 124 l 194 443 l 81 443 m 475 101 q 720 197 642 101 q 799 512 799 293 q 722 815 799 731 q 475 899 644 899 l 314 899 l 314 544 l 568 544 l 568 443 l 314 443 l 314 101 l 475 101 z "},"Ñ":{"ha":1093,"x_min":81,"x_max":1046,"o":"m 314 781 l 314 147 q 322 109 314 119 q 354 94 329 99 l 428 82 l 428 0 l 81 0 l 81 82 l 154 94 q 187 109 179 99 q 194 147 194 119 l 194 854 q 187 894 194 882 q 154 910 179 907 l 82 918 l 82 1000 l 315 1000 l 814 219 l 814 854 q 807 894 814 882 q 775 910 800 907 l 703 918 l 703 1000 l 1046 1000 l 1046 918 l 974 910 q 941 894 949 907 q 933 854 933 882 l 933 0 l 811 0 l 314 781 m 656 1074 q 556 1099 618 1074 q 458 1125 494 1125 q 369 1082 422 1125 l 349 1140 q 474 1221 406 1221 q 576 1197 515 1221 q 676 1172 638 1172 q 757 1210 714 1172 l 779 1154 q 656 1074 724 1074 z "},"Ò":{"ha":996,"x_min":58,"x_max":938,"o":"m 276 1206 l 344 1299 l 593 1088 q 526 1047 558 1047 q 489 1061 511 1047 l 276 1206 m 767 946 q 813 912 767 946 q 899 767 860 878 q 938 526 938 656 q 911 308 938 397 q 830 144 885 218 q 682 28 775 71 q 456 -14 589 -14 q 229 54 322 -14 q 97 233 136 122 q 58 474 58 344 q 85 692 58 603 q 166 856 111 782 q 314 972 221 929 q 540 1014 407 1014 q 767 946 674 1014 m 803 508 q 719 804 803 697 q 487 911 635 911 q 272 835 339 911 q 215 692 238 794 q 193 492 193 590 q 277 196 193 303 q 509 89 361 89 q 724 165 657 89 q 781 308 758 206 q 803 508 803 410 z "},"Ó":{"ha":996,"x_min":58,"x_max":938,"o":"m 697 1299 l 765 1206 l 553 1061 q 515 1047 531 1047 q 449 1088 483 1047 l 697 1299 m 767 946 q 813 912 767 946 q 899 767 860 878 q 938 526 938 656 q 911 308 938 397 q 830 144 885 218 q 682 28 775 71 q 456 -14 589 -14 q 229 54 322 -14 q 97 233 136 122 q 58 474 58 344 q 85 692 58 603 q 166 856 111 782 q 314 972 221 929 q 540 1014 407 1014 q 767 946 674 1014 m 803 508 q 719 804 803 697 q 487 911 635 911 q 272 835 339 911 q 215 692 238 794 q 193 492 193 590 q 277 196 193 303 q 509 89 361 89 q 724 165 657 89 q 781 308 758 206 q 803 508 803 410 z "},"Ô":{"ha":996,"x_min":58,"x_max":938,"o":"m 449 1268 l 553 1268 l 711 1081 l 658 1036 l 500 1183 l 343 1036 l 289 1081 l 449 1268 m 767 946 q 813 912 767 946 q 899 767 860 878 q 938 526 938 656 q 911 308 938 397 q 830 144 885 218 q 682 28 775 71 q 456 -14 589 -14 q 229 54 322 -14 q 97 233 136 122 q 58 474 58 344 q 85 692 58 603 q 166 856 111 782 q 314 972 221 929 q 540 1014 407 1014 q 767 946 674 1014 m 803 508 q 719 804 803 697 q 487 911 635 911 q 272 835 339 911 q 215 692 238 794 q 193 492 193 590 q 277 196 193 303 q 509 89 361 89 q 724 165 657 89 q 781 308 758 206 q 803 508 803 410 z "},"Õ":{"ha":996,"x_min":58,"x_max":938,"o":"m 767 946 q 813 912 767 946 q 899 767 860 878 q 938 526 938 656 q 911 308 938 397 q 830 144 885 218 q 682 28 775 71 q 456 -14 589 -14 q 229 54 322 -14 q 97 233 136 122 q 58 474 58 344 q 85 692 58 603 q 166 856 111 782 q 314 972 221 929 q 540 1014 407 1014 q 767 946 674 1014 m 803 508 q 719 804 803 697 q 487 911 635 911 q 272 835 339 911 q 215 692 238 794 q 193 492 193 590 q 277 196 193 303 q 509 89 361 89 q 724 165 657 89 q 781 308 758 206 q 803 508 803 410 m 590 1075 q 491 1101 553 1075 q 393 1126 429 1126 q 304 1083 357 1126 l 283 1142 q 408 1222 340 1222 q 511 1198 450 1222 q 610 1174 572 1174 q 692 1211 647 1174 l 714 1156 q 590 1075 658 1075 z "},"Ö":{"ha":996,"x_min":58,"x_max":938,"o":"m 767 946 q 813 912 767 946 q 899 767 860 878 q 938 526 938 656 q 911 308 938 397 q 830 144 885 218 q 682 28 775 71 q 456 -14 589 -14 q 229 54 322 -14 q 97 233 136 122 q 58 474 58 344 q 85 692 58 603 q 166 856 111 782 q 314 972 221 929 q 540 1014 407 1014 q 767 946 674 1014 m 803 508 q 719 804 803 697 q 487 911 635 911 q 272 835 339 911 q 215 692 238 794 q 193 492 193 590 q 277 196 193 303 q 509 89 361 89 q 724 165 657 89 q 781 308 758 206 q 803 508 803 410 m 360 1239 q 383 1239 360 1239 q 419 1220 406 1239 q 433 1158 433 1201 q 415 1099 433 1114 q 353 1083 396 1083 q 294 1100 310 1083 q 278 1158 278 1117 q 297 1219 278 1200 q 360 1239 315 1239 m 645 1239 q 668 1239 645 1239 q 704 1220 690 1239 q 718 1158 718 1201 q 699 1099 718 1114 q 638 1083 681 1083 q 578 1100 594 1083 q 563 1158 563 1117 q 581 1219 563 1200 q 645 1239 600 1239 z "},"×":{"ha":664,"x_min":60,"x_max":604,"o":"m 122 50 l 60 122 l 267 325 l 61 535 l 125 599 l 331 389 l 540 594 l 604 532 l 396 324 l 597 118 l 535 54 l 332 260 l 122 50 z "},"Ø":{"ha":996,"x_min":58,"x_max":938,"o":"m 269 -74 l 193 -37 l 233 50 q 58 500 58 169 q 167 856 58 711 q 314 972 221 929 q 509 1014 407 1014 q 674 993 611 1014 l 710 1069 l 786 1033 l 750 957 q 938 500 938 842 q 831 144 938 289 q 682 28 775 71 q 486 -14 589 -14 q 308 11 383 -14 l 269 -74 m 803 508 q 693 833 803 728 l 361 124 q 515 89 428 89 q 724 165 657 89 q 781 308 758 206 q 803 508 803 410 m 481 911 q 272 835 339 911 q 215 692 238 794 q 193 492 193 590 q 293 176 193 281 l 622 882 q 481 911 560 911 z "},"Ù":{"ha":1001,"x_min":39,"x_max":965,"o":"m 258 1206 l 326 1299 l 575 1088 q 508 1047 540 1047 q 471 1061 493 1047 l 258 1206 m 851 853 l 851 322 q 794 128 851 206 q 488 -14 694 -14 q 238 73 322 -14 q 153 322 153 160 l 153 853 q 145 891 153 881 q 113 906 138 901 l 39 918 l 39 1000 l 386 1000 l 386 918 l 313 906 q 280 891 288 901 q 272 853 272 881 l 272 344 q 531 97 272 97 q 684 147 631 97 q 738 356 738 197 l 738 853 q 730 891 738 881 q 697 906 722 901 l 624 918 l 624 1000 l 965 1000 l 965 918 l 892 906 q 859 891 867 901 q 851 853 851 881 z "},"Ú":{"ha":1001,"x_min":39,"x_max":965,"o":"m 692 1299 l 760 1206 l 547 1061 q 510 1047 525 1047 q 443 1088 478 1047 l 692 1299 m 851 853 l 851 322 q 794 128 851 206 q 488 -14 694 -14 q 238 73 322 -14 q 153 322 153 160 l 153 853 q 145 891 153 881 q 113 906 138 901 l 39 918 l 39 1000 l 386 1000 l 386 918 l 313 906 q 280 891 288 901 q 272 853 272 881 l 272 344 q 531 97 272 97 q 684 147 631 97 q 738 356 738 197 l 738 853 q 730 891 738 881 q 697 906 722 901 l 624 918 l 624 1000 l 965 1000 l 965 918 l 892 906 q 859 891 867 901 q 851 853 851 881 z "},"Û":{"ha":1001,"x_min":39,"x_max":965,"o":"m 454 1268 l 558 1268 l 717 1081 l 664 1036 l 506 1183 l 349 1036 l 294 1081 l 454 1268 m 851 853 l 851 322 q 794 128 851 206 q 488 -14 694 -14 q 238 73 322 -14 q 153 322 153 160 l 153 853 q 145 891 153 881 q 113 906 138 901 l 39 918 l 39 1000 l 386 1000 l 386 918 l 313 906 q 280 891 288 901 q 272 853 272 881 l 272 344 q 531 97 272 97 q 684 147 631 97 q 738 356 738 197 l 738 853 q 730 891 738 881 q 697 906 722 901 l 624 918 l 624 1000 l 965 1000 l 965 918 l 892 906 q 859 891 867 901 q 851 853 851 881 z "},"Ü":{"ha":1003,"x_min":39,"x_max":965,"o":"m 851 853 l 851 322 q 794 128 851 206 q 488 -14 694 -14 q 238 73 322 -14 q 153 322 153 160 l 153 853 q 145 891 153 881 q 113 906 138 901 l 39 918 l 39 1000 l 386 1000 l 386 918 l 313 906 q 280 891 288 901 q 272 853 272 881 l 272 344 q 531 97 272 97 q 684 147 631 97 q 738 356 738 197 l 738 853 q 730 891 738 881 q 697 906 722 901 l 624 918 l 624 1000 l 965 1000 l 965 918 l 892 906 q 859 891 867 901 q 851 853 851 881 m 365 1239 q 387 1239 365 1239 q 424 1220 410 1239 q 438 1158 438 1201 q 419 1099 438 1114 q 357 1083 400 1083 q 298 1100 314 1083 q 282 1158 282 1117 q 301 1219 282 1200 q 365 1239 319 1239 m 649 1239 q 672 1239 649 1239 q 708 1220 694 1239 q 722 1158 722 1201 q 703 1099 722 1114 q 642 1083 685 1083 q 583 1100 599 1083 q 567 1158 567 1117 q 585 1219 567 1200 q 649 1239 604 1239 z "},"Ý":{"ha":931,"x_min":-6,"x_max":928,"o":"m 658 1299 l 726 1206 l 514 1061 q 476 1047 492 1047 q 410 1088 444 1047 l 658 1299 m 406 353 l 131 853 q 96 895 113 883 q 47 911 79 907 l -6 918 l -6 1000 l 368 1000 l 368 919 l 299 911 q 254 885 254 904 q 265 853 254 875 l 483 460 l 692 853 q 701 882 701 871 q 653 910 701 903 l 583 918 l 583 1000 l 928 1000 l 928 918 l 875 911 q 835 897 847 907 q 806 853 824 886 l 525 356 l 525 147 q 533 109 525 119 q 565 94 540 99 l 644 82 l 644 0 l 286 0 l 286 82 l 365 94 q 398 109 390 99 q 406 147 406 119 l 406 353 z "},"Þ":{"ha":783,"x_min":78,"x_max":751,"o":"m 425 82 l 425 0 l 78 0 l 78 82 l 154 94 q 187 109 179 99 q 194 147 194 119 l 194 853 q 187 891 194 881 q 154 906 179 901 l 78 918 l 78 1000 l 425 1000 l 425 918 l 351 906 q 319 891 326 901 q 311 853 311 881 l 311 825 l 446 825 q 672 771 593 825 q 751 573 751 717 q 651 338 751 429 q 417 247 550 247 l 311 247 l 311 147 q 319 109 311 119 q 351 94 326 99 l 425 82 m 311 335 l 413 335 q 557 368 514 335 q 622 572 622 419 q 433 740 622 740 l 311 740 l 311 335 z "},"ß":{"ha":831,"x_min":50,"x_max":792,"o":"m 64 654 l 164 667 l 167 667 l 167 764 q 245 1013 167 929 q 467 1097 324 1097 q 640 1041 575 1097 q 706 869 706 985 q 688 765 706 810 q 642 696 669 719 q 583 651 614 672 q 524 615 551 629 q 460 529 460 583 q 481 461 460 481 q 495 448 492 453 q 516 435 499 443 q 539 424 533 426 q 635 380 564 411 q 749 311 707 349 q 792 201 792 274 q 724 49 792 106 q 552 -7 656 -7 q 346 42 449 -7 l 354 210 l 432 210 l 443 108 q 551 79 504 79 q 682 181 682 79 q 646 249 682 221 q 524 308 610 276 q 397 385 438 340 q 356 497 356 431 q 380 599 356 564 q 438 651 404 633 q 507 689 472 669 q 566 751 542 708 q 590 860 590 793 q 428 1000 590 1000 q 301 956 335 1000 q 276 842 276 922 l 276 0 l 56 0 l 56 75 l 135 83 q 161 95 156 85 q 167 136 167 106 l 167 581 l 50 581 l 64 654 z "},"à":{"ha":729,"x_min":49,"x_max":682,"o":"m 572 489 l 572 136 q 578 95 572 106 q 604 83 583 85 l 682 75 l 682 0 l 479 0 l 468 108 q 224 -14 353 -14 q 97 35 144 -14 q 49 166 49 85 q 97 299 49 247 q 238 363 146 350 l 463 393 l 463 486 q 313 597 463 597 q 190 571 249 597 l 171 469 l 90 469 l 81 629 q 325 681 224 681 q 499 633 426 681 q 572 489 572 586 m 463 318 l 269 286 q 192 250 219 279 q 164 176 164 221 q 192 108 164 132 q 265 85 221 85 q 463 194 340 85 l 463 318 m 101 961 l 182 1044 l 399 800 q 338 769 363 769 q 292 789 313 769 l 101 961 z "},"á":{"ha":729,"x_min":49,"x_max":682,"o":"m 572 489 l 572 136 q 578 95 572 106 q 604 83 583 85 l 682 75 l 682 0 l 479 0 l 468 108 q 224 -14 353 -14 q 97 35 144 -14 q 49 166 49 85 q 97 299 49 247 q 238 363 146 350 l 463 393 l 463 486 q 313 597 463 597 q 190 571 249 597 l 171 469 l 90 469 l 81 629 q 325 681 224 681 q 499 633 426 681 q 572 489 572 586 m 463 318 l 269 286 q 192 250 219 279 q 164 176 164 221 q 192 108 164 132 q 265 85 221 85 q 463 194 340 85 l 463 318 m 479 1044 l 560 961 l 369 789 q 324 769 349 769 q 263 800 299 769 l 479 1044 z "},"â":{"ha":729,"x_min":49,"x_max":682,"o":"m 572 489 l 572 136 q 578 95 572 106 q 604 83 583 85 l 682 75 l 682 0 l 479 0 l 468 108 q 224 -14 353 -14 q 97 35 144 -14 q 49 166 49 85 q 97 299 49 247 q 238 363 146 350 l 463 393 l 463 486 q 313 597 463 597 q 190 571 249 597 l 171 469 l 90 469 l 81 629 q 325 681 224 681 q 499 633 426 681 q 572 489 572 586 m 463 318 l 269 286 q 192 250 219 279 q 164 176 164 221 q 192 108 164 132 q 265 85 221 85 q 463 194 340 85 l 463 318 m 278 1011 l 382 1011 l 532 803 l 479 758 l 329 926 l 179 758 l 125 803 l 278 1011 z "},"ã":{"ha":729,"x_min":49,"x_max":682,"o":"m 572 489 l 572 136 q 578 95 572 106 q 604 83 583 85 l 682 75 l 682 0 l 479 0 l 468 108 q 224 -14 353 -14 q 97 35 144 -14 q 49 166 49 85 q 97 299 49 247 q 238 363 146 350 l 463 393 l 463 486 q 313 597 463 597 q 190 571 249 597 l 171 469 l 90 469 l 81 629 q 325 681 224 681 q 499 633 426 681 q 572 489 572 586 m 463 318 l 269 286 q 192 250 219 279 q 164 176 164 221 q 192 108 164 132 q 265 85 221 85 q 463 194 340 85 l 463 318 m 397 797 q 298 823 360 797 q 200 849 236 849 q 111 806 164 849 l 90 864 q 215 944 147 944 q 318 920 257 944 q 417 896 379 896 q 499 933 456 896 l 521 878 q 397 797 465 797 z "},"ä":{"ha":729,"x_min":49,"x_max":682,"o":"m 572 489 l 572 136 q 578 95 572 106 q 604 83 583 85 l 682 75 l 682 0 l 479 0 l 468 108 q 224 -14 353 -14 q 97 35 144 -14 q 49 166 49 85 q 97 299 49 247 q 238 363 146 350 l 463 393 l 463 486 q 313 597 463 597 q 190 571 249 597 l 171 469 l 90 469 l 81 629 q 325 681 224 681 q 499 633 426 681 q 572 489 572 586 m 463 318 l 269 286 q 192 250 219 279 q 164 176 164 221 q 192 108 164 132 q 265 85 221 85 q 463 194 340 85 l 463 318 m 188 961 q 211 961 188 961 q 247 942 233 961 q 261 880 261 924 q 242 821 261 836 q 181 806 224 806 q 122 822 138 806 q 106 881 106 839 q 124 942 106 922 q 188 961 143 961 m 473 961 q 495 961 473 961 q 532 942 518 961 q 546 880 546 924 q 527 821 546 836 q 465 806 508 806 q 406 822 422 806 q 390 881 390 839 q 409 942 390 922 q 473 961 428 961 z "},"å":{"ha":729,"x_min":49,"x_max":682,"o":"m 572 489 l 572 136 q 578 95 572 106 q 604 83 583 85 l 682 75 l 682 0 l 479 0 l 468 108 q 224 -14 353 -14 q 97 35 144 -14 q 49 166 49 85 q 97 299 49 247 q 238 363 146 350 l 463 393 l 463 486 q 313 597 463 597 q 190 571 249 597 l 171 469 l 90 469 l 81 629 q 325 681 224 681 q 499 633 426 681 q 572 489 572 586 m 463 318 l 269 286 q 192 250 219 279 q 164 176 164 221 q 192 108 164 132 q 265 85 221 85 q 463 194 340 85 l 463 318 m 408 992 q 425 973 408 992 q 442 903 442 954 q 404 811 442 851 q 306 771 367 771 q 210 809 244 771 q 176 899 176 847 q 214 990 176 950 q 313 1031 251 1031 q 408 992 374 1031 m 372 906 q 353 947 372 931 q 308 964 335 964 q 246 894 246 964 q 265 853 246 869 q 310 836 283 836 q 372 906 372 836 z "},"æ":{"ha":1067,"x_min":49,"x_max":1013,"o":"m 1013 336 l 568 304 q 769 78 571 78 q 988 118 867 78 l 1007 50 q 908 14 967 29 q 731 -14 813 -14 q 492 106 554 -14 q 426 50 457 72 q 340 7 396 28 q 215 -14 285 -14 q 97 35 144 -14 q 49 164 49 85 q 92 292 49 243 q 200 353 135 340 q 363 380 265 367 q 463 393 461 393 l 463 486 q 313 597 463 597 q 190 571 249 597 l 171 469 l 90 469 l 81 629 q 317 681 224 681 q 538 590 475 681 q 760 681 615 681 q 958 595 904 681 q 1013 336 1013 510 m 567 388 l 903 417 q 871 542 903 494 q 750 589 839 589 q 660 581 692 589 q 608 547 628 574 q 581 488 588 521 q 567 388 574 454 m 254 281 q 164 175 164 263 q 192 109 164 133 q 267 85 219 85 q 372 113 314 85 q 463 178 429 142 l 463 315 q 425 308 458 314 q 254 281 301 290 z "},"ç":{"ha":660,"x_min":56,"x_max":604,"o":"m 588 115 l 604 44 q 419 -10 528 6 q 364 -14 392 -14 l 364 -86 l 401 -99 q 461 -132 446 -112 q 476 -186 476 -151 q 431 -285 476 -250 q 326 -319 386 -319 q 204 -290 267 -319 l 221 -236 q 321 -256 269 -256 q 389 -189 389 -256 q 374 -157 389 -168 q 326 -139 358 -146 l 275 -128 l 296 -10 q 56 314 56 19 q 142 578 56 476 q 372 681 228 681 q 496 665 436 681 q 586 629 556 649 l 576 458 l 496 458 l 476 563 q 338 589 429 589 q 269 576 304 589 q 222 543 235 564 q 175 321 175 476 q 226 145 175 213 q 369 78 276 78 q 588 115 438 78 z "},"è":{"ha":672,"x_min":50,"x_max":618,"o":"m 618 336 l 171 304 q 375 78 178 78 q 593 118 472 78 l 613 50 q 514 14 572 29 q 336 -14 418 -14 q 120 77 190 -14 q 50 326 50 168 q 132 582 50 483 q 362 681 214 681 q 564 595 510 681 q 618 336 618 510 m 169 388 l 508 417 q 476 542 508 494 q 345 589 444 589 q 215 551 246 589 q 169 388 183 514 m 107 961 l 188 1044 l 404 800 q 343 769 368 769 q 297 789 318 769 l 107 961 z "},"é":{"ha":672,"x_min":50,"x_max":618,"o":"m 618 336 l 171 304 q 375 78 178 78 q 593 118 472 78 l 613 50 q 514 14 572 29 q 336 -14 418 -14 q 120 77 190 -14 q 50 326 50 168 q 132 582 50 483 q 362 681 214 681 q 564 595 510 681 q 618 336 618 510 m 169 388 l 508 417 q 476 542 508 494 q 345 589 444 589 q 215 551 246 589 q 169 388 183 514 m 493 1044 l 574 961 l 383 789 q 338 769 363 769 q 276 800 313 769 l 493 1044 z "},"ê":{"ha":672,"x_min":50,"x_max":618,"o":"m 618 336 l 171 304 q 375 78 178 78 q 593 118 472 78 l 613 50 q 514 14 572 29 q 336 -14 418 -14 q 120 77 190 -14 q 50 326 50 168 q 132 582 50 483 q 362 681 214 681 q 564 595 510 681 q 618 336 618 510 m 169 388 l 508 417 q 476 542 508 494 q 345 589 444 589 q 215 551 246 589 q 169 388 183 514 m 283 1011 l 388 1011 l 538 803 l 485 758 l 335 926 l 185 758 l 131 803 l 283 1011 z "},"ë":{"ha":672,"x_min":50,"x_max":618,"o":"m 618 336 l 171 304 q 375 78 178 78 q 593 118 472 78 l 613 50 q 514 14 572 29 q 336 -14 418 -14 q 120 77 190 -14 q 50 326 50 168 q 132 582 50 483 q 362 681 214 681 q 564 595 510 681 q 618 336 618 510 m 169 388 l 508 417 q 476 542 508 494 q 345 589 444 589 q 215 551 246 589 q 169 388 183 514 m 194 961 q 216 961 194 961 q 253 942 239 961 q 267 880 267 924 q 248 821 267 836 q 186 806 229 806 q 127 822 143 806 q 111 881 111 839 q 130 942 111 922 q 194 961 149 961 m 478 961 q 501 961 478 961 q 538 942 524 961 q 551 880 551 924 q 533 821 551 836 q 471 806 514 806 q 412 822 428 806 q 396 881 396 839 q 415 942 396 922 q 478 961 433 961 z "},"ì":{"ha":429,"x_min":-18,"x_max":385,"o":"m 276 667 l 276 136 q 282 96 276 106 q 308 83 288 86 l 385 75 l 385 0 l 58 0 l 58 75 l 135 83 q 161 96 156 86 q 167 136 167 106 l 167 533 q 161 574 167 564 q 135 586 156 585 l 58 594 l 58 667 l 276 667 m -18 961 l 63 1044 l 279 800 q 218 769 243 769 q 172 789 193 769 l -18 961 z "},"í":{"ha":429,"x_min":58,"x_max":407,"o":"m 276 667 l 276 136 q 282 96 276 106 q 308 83 288 86 l 385 75 l 385 0 l 58 0 l 58 75 l 135 83 q 161 96 156 86 q 167 136 167 106 l 167 533 q 161 574 167 564 q 135 586 156 585 l 58 594 l 58 667 l 276 667 m 326 1044 l 407 961 l 217 789 q 171 769 196 769 q 110 800 146 769 l 326 1044 z "},"î":{"ha":429,"x_min":-4,"x_max":385,"o":"m 136 1011 l 228 1011 l 364 803 l 311 758 l 181 921 l 50 758 l -4 803 l 136 1011 m 276 667 l 276 136 q 282 96 276 106 q 308 83 288 86 l 385 75 l 385 0 l 58 0 l 58 75 l 135 83 q 161 96 156 86 q 167 136 167 106 l 167 533 q 161 574 167 564 q 135 586 156 585 l 58 594 l 58 667 l 276 667 z "},"ï":{"ha":429,"x_min":-11,"x_max":385,"o":"m 72 961 q 94 961 72 961 q 131 942 117 961 q 144 880 144 924 q 126 821 144 836 q 64 806 107 806 q 5 822 21 806 q -11 881 -11 839 q 8 942 -11 922 q 72 961 26 961 m 301 961 q 323 961 301 961 q 360 942 346 961 q 374 880 374 924 q 355 821 374 836 q 293 806 336 806 q 234 822 250 806 q 218 881 218 839 q 237 942 218 922 q 301 961 256 961 m 276 667 l 276 136 q 282 96 276 106 q 308 83 288 86 l 385 75 l 385 0 l 58 0 l 58 75 l 135 83 q 161 96 156 86 q 167 136 167 106 l 167 533 q 161 574 167 564 q 135 586 156 585 l 58 594 l 58 667 l 276 667 z "},"ð":{"ha":718,"x_min":35,"x_max":649,"o":"m 649 390 q 564 98 649 210 q 307 -14 479 -14 q 101 80 168 -14 q 35 333 35 174 q 124 573 35 465 q 360 681 213 681 q 445 664 403 681 q 501 626 488 647 q 338 900 461 778 l 186 806 l 144 869 l 278 953 q 167 1029 217 1000 l 213 1100 q 364 1006 293 1060 l 494 1088 l 535 1025 l 422 954 q 649 390 649 738 m 332 589 q 207 544 254 589 q 168 456 182 521 q 154 328 154 390 q 202 144 154 210 q 342 78 250 78 q 475 121 435 78 q 529 329 529 179 q 492 534 529 479 q 332 589 454 589 z "},"ñ":{"ha":871,"x_min":58,"x_max":826,"o":"m 826 0 l 608 0 l 608 449 q 569 544 608 511 q 465 578 531 578 q 350 546 400 578 q 276 472 300 514 l 276 136 q 282 95 276 106 q 308 83 288 85 l 392 74 l 392 0 l 58 0 l 58 75 l 135 83 q 161 95 156 85 q 167 136 167 106 l 167 533 q 161 574 167 564 q 135 586 156 585 l 58 594 l 58 667 l 263 667 l 275 567 q 328 618 307 600 q 399 658 349 636 q 507 681 450 681 q 668 624 618 681 q 718 482 718 567 l 718 136 q 724 96 718 106 q 750 83 729 86 l 826 75 l 826 0 m 531 811 q 431 837 493 811 q 333 863 369 863 q 244 819 297 863 l 224 878 q 349 958 281 958 q 451 934 390 958 q 551 910 513 910 q 632 947 589 910 l 654 892 q 531 811 599 811 z "},"ò":{"ha":754,"x_min":56,"x_max":699,"o":"m 621 100 q 513 17 582 49 q 354 -14 444 -14 q 128 79 200 -14 q 56 333 56 172 q 133 567 56 464 q 241 649 172 618 q 400 681 310 681 q 626 588 554 681 q 699 349 699 494 q 621 100 699 203 m 579 339 q 524 522 579 456 q 370 589 468 589 q 238 555 272 589 q 190 456 204 521 q 175 328 175 392 q 231 144 175 211 q 384 78 286 78 q 516 112 482 78 q 565 210 550 146 q 579 339 579 275 m 151 961 l 232 1044 l 449 800 q 388 769 413 769 q 342 789 363 769 l 151 961 z "},"ó":{"ha":754,"x_min":56,"x_max":699,"o":"m 621 100 q 513 17 582 49 q 354 -14 444 -14 q 128 79 200 -14 q 56 333 56 172 q 133 567 56 464 q 241 649 172 618 q 400 681 310 681 q 626 588 554 681 q 699 349 699 494 q 621 100 699 203 m 579 339 q 524 522 579 456 q 370 589 468 589 q 238 555 272 589 q 190 456 204 521 q 175 328 175 392 q 231 144 175 211 q 384 78 286 78 q 516 112 482 78 q 565 210 550 146 q 579 339 579 275 m 538 1044 l 618 961 l 428 789 q 382 769 407 769 q 321 800 357 769 l 538 1044 z "},"ô":{"ha":754,"x_min":56,"x_max":699,"o":"m 621 100 q 513 17 582 49 q 354 -14 444 -14 q 128 79 200 -14 q 56 333 56 172 q 133 567 56 464 q 241 649 172 618 q 400 681 310 681 q 626 588 554 681 q 699 349 699 494 q 621 100 699 203 m 579 339 q 524 522 579 456 q 370 589 468 589 q 238 555 272 589 q 190 456 204 521 q 175 328 175 392 q 231 144 175 211 q 384 78 286 78 q 516 112 482 78 q 565 210 550 146 q 579 339 579 275 m 328 1011 l 432 1011 l 582 803 l 529 758 l 379 926 l 229 758 l 175 803 l 328 1011 z "},"õ":{"ha":754,"x_min":56,"x_max":699,"o":"m 621 100 q 513 17 582 49 q 354 -14 444 -14 q 128 79 200 -14 q 56 333 56 172 q 133 567 56 464 q 241 649 172 618 q 400 681 310 681 q 626 588 554 681 q 699 349 699 494 q 621 100 699 203 m 579 339 q 524 522 579 456 q 370 589 468 589 q 238 555 272 589 q 190 456 204 521 q 175 328 175 392 q 231 144 175 211 q 384 78 286 78 q 516 112 482 78 q 565 210 550 146 q 579 339 579 275 m 468 797 q 369 823 431 797 q 271 849 307 849 q 182 806 235 849 l 161 864 q 286 944 218 944 q 389 920 328 944 q 488 896 450 896 q 569 933 525 896 l 592 878 q 468 797 536 797 z "},"ö":{"ha":754,"x_min":56,"x_max":699,"o":"m 621 100 q 513 17 582 49 q 354 -14 444 -14 q 128 79 200 -14 q 56 333 56 172 q 133 567 56 464 q 241 649 172 618 q 400 681 310 681 q 626 588 554 681 q 699 349 699 494 q 621 100 699 203 m 579 339 q 524 522 579 456 q 370 589 468 589 q 238 555 272 589 q 190 456 204 521 q 175 328 175 392 q 231 144 175 211 q 384 78 286 78 q 516 112 482 78 q 565 210 550 146 q 579 339 579 275 m 238 961 q 261 961 238 961 q 297 942 283 961 q 311 880 311 924 q 292 821 311 836 q 231 806 274 806 q 172 822 188 806 q 156 881 156 839 q 174 942 156 922 q 238 961 193 961 m 523 961 q 545 961 523 961 q 582 942 568 961 q 596 880 596 924 q 577 821 596 836 q 515 806 558 806 q 456 822 472 806 q 440 881 440 839 q 459 942 440 922 q 523 961 478 961 z "},"÷":{"ha":717,"x_min":56,"x_max":661,"o":"m 360 165 q 383 165 360 165 q 420 147 407 165 q 433 83 433 128 q 413 22 433 38 q 344 7 393 7 q 275 78 275 7 q 294 144 275 124 q 360 165 313 165 m 360 661 q 383 661 360 661 q 420 642 407 661 q 433 578 433 624 q 413 518 433 533 q 344 503 393 503 q 275 574 275 503 q 294 640 275 619 q 360 661 313 661 m 56 282 l 56 372 l 661 372 l 661 282 l 56 282 z "},"ø":{"ha":754,"x_min":56,"x_max":699,"o":"m 208 -75 l 139 -43 l 175 35 q 56 333 56 119 q 133 567 56 464 q 241 649 172 618 q 400 681 310 681 q 474 674 435 681 l 504 739 l 574 707 l 547 650 q 699 333 699 575 q 621 100 699 203 q 513 17 582 49 q 369 -14 444 -14 q 244 1 294 -14 l 208 -75 m 579 339 q 499 546 579 482 l 289 99 q 389 78 333 78 q 516 112 482 78 q 565 210 550 146 q 579 339 579 275 m 365 589 q 238 555 272 589 q 190 456 204 521 q 175 328 175 392 q 228 147 175 213 l 431 581 q 365 589 400 589 z "},"ù":{"ha":842,"x_min":38,"x_max":799,"o":"m 579 193 l 579 533 q 574 574 579 564 q 547 586 568 585 l 471 594 l 471 667 l 689 667 l 689 136 q 694 95 689 106 q 721 83 700 85 l 799 75 l 799 0 l 599 0 l 588 106 q 360 -14 486 -14 q 201 38 257 -14 q 146 185 146 89 l 146 533 q 140 574 146 564 q 114 586 135 585 l 38 594 l 38 667 l 256 667 l 256 222 q 392 89 256 89 q 510 127 456 89 q 579 193 564 165 m 150 961 l 231 1044 l 447 800 q 386 769 411 769 q 340 789 361 769 l 150 961 z "},"ú":{"ha":842,"x_min":38,"x_max":799,"o":"m 579 193 l 579 533 q 574 574 579 564 q 547 586 568 585 l 471 594 l 471 667 l 689 667 l 689 136 q 694 95 689 106 q 721 83 700 85 l 799 75 l 799 0 l 599 0 l 588 106 q 360 -14 486 -14 q 201 38 257 -14 q 146 185 146 89 l 146 533 q 140 574 146 564 q 114 586 135 585 l 38 594 l 38 667 l 256 667 l 256 222 q 392 89 256 89 q 510 127 456 89 q 579 193 564 165 m 536 1044 l 617 961 l 426 789 q 381 769 406 769 q 319 800 356 769 l 536 1044 z "},"û":{"ha":842,"x_min":38,"x_max":799,"o":"m 579 193 l 579 533 q 574 574 579 564 q 547 586 568 585 l 471 594 l 471 667 l 689 667 l 689 136 q 694 95 689 106 q 721 83 700 85 l 799 75 l 799 0 l 599 0 l 588 106 q 360 -14 486 -14 q 201 38 257 -14 q 146 185 146 89 l 146 533 q 140 574 146 564 q 114 586 135 585 l 38 594 l 38 667 l 256 667 l 256 222 q 392 89 256 89 q 510 127 456 89 q 579 193 564 165 m 354 1011 l 458 1011 l 608 803 l 556 758 l 406 926 l 256 758 l 201 803 l 354 1011 z "},"ü":{"ha":842,"x_min":38,"x_max":799,"o":"m 579 193 l 579 533 q 574 574 579 564 q 547 586 568 585 l 471 594 l 471 667 l 689 667 l 689 136 q 694 95 689 106 q 721 83 700 85 l 799 75 l 799 0 l 599 0 l 588 106 q 360 -14 486 -14 q 201 38 257 -14 q 146 185 146 89 l 146 533 q 140 574 146 564 q 114 586 135 585 l 38 594 l 38 667 l 256 667 l 256 222 q 392 89 256 89 q 510 127 456 89 q 579 193 564 165 m 265 961 q 287 961 265 961 q 324 942 310 961 q 338 880 338 924 q 319 821 338 836 q 257 806 300 806 q 198 822 214 806 q 182 881 182 839 q 201 942 182 922 q 265 961 219 961 m 549 961 q 572 961 549 961 q 608 942 594 961 q 622 880 622 924 q 603 821 622 836 q 542 806 585 806 q 483 822 499 806 q 467 881 467 839 q 485 942 467 922 q 549 961 504 961 z "},"ý":{"ha":726,"x_min":-19,"x_max":731,"o":"m 669 586 q 629 550 643 583 q 353 -181 622 533 q 146 -347 293 -347 q 21 -331 68 -347 l 7 -249 q 107 -260 78 -260 q 205 -223 161 -260 q 274 -118 249 -186 l 306 -31 l 89 533 q 82 550 83 544 q 78 560 81 556 q 75 567 76 565 q 71 573 74 569 q 65 578 68 576 q 58 581 63 579 q 42 586 51 586 l -19 594 l -19 667 l 303 667 l 303 596 l 232 588 q 200 564 200 583 q 208 533 200 554 l 368 106 l 524 533 q 531 563 531 554 q 497 588 531 583 l 426 596 l 426 667 l 731 667 l 731 594 l 669 586 m 517 1044 l 597 961 l 407 789 q 361 769 386 769 q 300 800 336 769 l 517 1044 z "},"þ":{"ha":790,"x_min":42,"x_max":736,"o":"m 153 -197 l 153 950 q 146 990 153 979 q 118 1003 139 1001 l 42 1011 l 42 1083 l 263 1083 l 263 581 q 474 681 344 681 q 670 590 604 681 q 736 344 736 499 q 640 88 736 189 q 400 -14 544 -14 q 263 15 317 -14 l 263 -197 q 268 -238 263 -228 q 294 -250 274 -249 l 396 -260 l 396 -333 l 42 -333 l 42 -258 l 121 -250 q 147 -238 142 -249 q 153 -197 153 -228 m 263 493 l 263 131 q 420 78 325 78 q 560 121 515 78 q 601 211 586 150 q 617 343 617 272 q 568 526 617 463 q 429 589 519 589 q 328 554 379 589 q 263 493 276 519 z "},"ÿ":{"ha":726,"x_min":-19,"x_max":731,"o":"m 669 586 q 629 550 643 583 q 353 -181 622 533 q 146 -347 293 -347 q 21 -331 68 -347 l 7 -249 q 107 -260 78 -260 q 205 -223 161 -260 q 274 -118 249 -186 l 306 -31 l 89 533 q 82 550 83 544 q 78 560 81 556 q 75 567 76 565 q 71 573 74 569 q 65 578 68 576 q 58 581 63 579 q 42 586 51 586 l -19 594 l -19 667 l 303 667 l 303 596 l 232 588 q 200 564 200 583 q 208 533 200 554 l 368 106 l 524 533 q 531 563 531 554 q 497 588 531 583 l 426 596 l 426 667 l 731 667 l 731 594 l 669 586 m 223 961 q 245 961 223 961 q 282 942 268 961 q 296 880 296 924 q 277 821 296 836 q 215 806 258 806 q 156 822 172 806 q 140 881 140 839 q 159 942 140 922 q 223 961 178 961 m 508 961 q 530 961 508 961 q 567 942 553 961 q 581 880 581 924 q 562 821 581 836 q 500 806 543 806 q 441 822 457 806 q 425 881 425 839 q 444 942 425 922 q 508 961 463 961 z "},"Ā":{"ha":921,"x_min":-21,"x_max":943,"o":"m 97 156 l 396 1000 l 525 1000 l 822 156 q 848 109 835 121 q 889 92 861 97 l 943 82 l 943 0 l 586 0 l 586 79 l 663 92 q 699 125 699 97 q 693 153 699 138 l 632 329 l 264 329 l 206 157 q 200 128 200 142 q 238 92 200 97 l 313 79 l 313 0 l -21 0 l -21 82 l 32 92 q 72 109 60 97 q 97 156 85 121 m 463 818 l 447 881 l 432 818 l 297 426 l 597 426 l 463 818 m 269 1122 l 283 1219 l 654 1219 l 640 1122 l 269 1122 z "},"ā":{"ha":688,"x_min":49,"x_max":682,"o":"m 572 489 l 572 136 q 578 95 572 106 q 604 83 583 85 l 682 75 l 682 0 l 479 0 l 468 108 q 224 -14 353 -14 q 97 35 144 -14 q 49 166 49 85 q 97 299 49 247 q 238 363 146 350 l 463 393 l 463 486 q 313 597 463 597 q 190 571 249 597 l 171 469 l 90 469 l 81 629 q 325 681 224 681 q 499 633 426 681 q 572 489 572 586 m 463 318 l 269 286 q 192 250 219 279 q 164 176 164 221 q 192 108 164 132 q 265 85 221 85 q 463 194 340 85 l 463 318 m 139 844 l 153 942 l 524 942 l 510 844 l 139 844 z "},"Ă":{"ha":921,"x_min":-21,"x_max":943,"o":"m 97 156 l 396 1000 l 525 1000 l 822 156 q 848 109 835 121 q 889 92 861 97 l 943 82 l 943 0 l 586 0 l 586 79 l 663 92 q 699 125 699 97 q 693 153 699 138 l 632 329 l 264 329 l 206 157 q 200 128 200 142 q 238 92 200 97 l 313 79 l 313 0 l -21 0 l -21 82 l 32 92 q 72 109 60 97 q 97 156 85 121 m 463 818 l 447 881 l 432 818 l 297 426 l 597 426 l 463 818 m 599 1254 l 665 1233 q 590 1113 643 1160 q 457 1067 536 1067 q 324 1113 378 1067 q 249 1233 271 1160 l 315 1254 q 376 1186 339 1214 q 457 1158 413 1158 q 538 1186 501 1158 q 599 1254 575 1214 z "},"ă":{"ha":729,"x_min":49,"x_max":682,"o":"m 572 489 l 572 136 q 578 95 572 106 q 604 83 583 85 l 682 75 l 682 0 l 479 0 l 468 108 q 224 -14 353 -14 q 97 35 144 -14 q 49 166 49 85 q 97 299 49 247 q 238 363 146 350 l 463 393 l 463 486 q 313 597 463 597 q 190 571 249 597 l 171 469 l 90 469 l 81 629 q 325 681 224 681 q 499 633 426 681 q 572 489 572 586 m 463 318 l 269 286 q 192 250 219 279 q 164 176 164 221 q 192 108 164 132 q 265 85 221 85 q 463 194 340 85 l 463 318 m 468 976 l 535 956 q 459 835 513 882 q 326 789 406 789 q 194 835 247 789 q 118 956 140 882 l 185 976 q 245 908 208 936 q 326 881 282 881 q 408 908 371 881 q 468 976 444 936 z "},"Ą":{"ha":921,"x_min":-21,"x_max":943,"o":"m 674 -184 q 674 -160 674 -184 q 687 -117 674 -136 q 707 -87 700 -97 q 733 -63 714 -78 q 758 -43 751 -49 q 789 -21 764 -37 q 819 0 814 -4 l 586 0 l 586 79 l 663 92 q 699 125 699 97 q 693 153 699 138 l 632 329 l 264 329 l 206 157 q 200 128 200 142 q 238 92 200 97 l 313 79 l 313 0 l -21 0 l -21 82 l 32 92 q 72 109 60 97 q 97 156 85 121 l 396 1000 l 525 1000 l 822 156 q 848 109 835 121 q 889 92 861 97 l 943 82 l 943 0 l 936 0 q 888 -30 926 -4 q 832 -69 849 -56 q 765 -157 765 -121 q 783 -215 765 -193 q 831 -236 801 -236 q 924 -218 861 -236 l 940 -275 q 921 -283 939 -275 q 889 -297 903 -292 q 806 -312 843 -312 q 709 -272 744 -312 q 674 -184 674 -232 m 463 818 l 447 881 l 432 818 l 297 426 l 597 426 l 463 818 z "},"ą":{"ha":729,"x_min":49,"x_max":682,"o":"m 414 -184 q 414 -160 414 -184 q 427 -117 414 -136 q 447 -87 440 -97 q 473 -63 454 -78 q 498 -43 492 -49 q 529 -21 504 -37 q 560 0 554 -4 l 479 0 l 468 108 q 224 -14 353 -14 q 97 35 144 -14 q 49 166 49 85 q 97 299 49 247 q 238 363 146 350 l 463 393 l 463 486 q 313 597 463 597 q 190 571 249 597 l 171 469 l 90 469 l 81 629 q 325 681 224 681 q 499 633 426 681 q 572 489 572 586 l 572 136 q 578 95 572 106 q 604 83 583 85 l 682 75 l 682 0 l 676 0 q 628 -30 667 -4 q 572 -69 589 -56 q 506 -157 506 -121 q 524 -215 506 -193 q 571 -236 542 -236 q 664 -218 600 -236 l 681 -275 q 661 -283 679 -275 q 629 -297 643 -292 q 546 -312 583 -312 q 449 -272 485 -312 q 414 -184 414 -232 m 463 318 l 269 286 q 192 250 219 279 q 164 176 164 221 q 192 108 164 132 q 265 85 221 85 q 463 194 340 85 l 463 318 z "},"Ć":{"ha":883,"x_min":58,"x_max":822,"o":"m 653 1299 l 721 1206 l 508 1061 q 471 1047 486 1047 q 404 1088 439 1047 l 653 1299 m 789 160 l 817 69 q 779 53 813 65 q 719 32 746 42 q 665 15 693 22 q 606 0 638 7 q 475 -14 544 -14 q 58 489 58 -14 q 172 868 58 722 q 511 1014 285 1014 q 662 999 593 1014 q 822 935 731 985 l 800 708 l 700 708 l 671 861 q 576 899 617 888 q 465 910 535 910 q 351 890 394 910 q 272 836 307 871 q 215 694 238 801 q 193 499 193 586 q 272 203 193 311 q 500 94 351 94 q 789 160 615 94 z "},"ć":{"ha":660,"x_min":56,"x_max":604,"o":"m 588 115 l 604 44 q 583 36 601 43 q 551 24 564 29 q 512 10 538 18 q 464 -3 486 3 q 354 -14 410 -14 q 131 69 207 -14 q 56 315 56 153 q 142 578 56 476 q 372 681 228 681 q 496 665 436 681 q 586 629 556 649 l 576 458 l 496 458 l 476 563 q 338 589 429 589 q 269 576 304 589 q 222 543 235 564 q 175 321 175 476 q 226 145 175 213 q 369 78 276 78 q 588 115 438 78 m 482 1043 l 563 960 l 372 788 q 326 768 351 768 q 265 799 301 768 l 482 1043 z "},"Ĉ":{"ha":883,"x_min":58,"x_max":822,"o":"m 438 1268 l 542 1268 l 700 1081 l 647 1036 l 489 1183 l 332 1036 l 278 1081 l 438 1268 m 789 160 l 817 69 q 779 53 813 65 q 719 32 746 42 q 665 15 693 22 q 606 0 638 7 q 475 -14 544 -14 q 58 489 58 -14 q 172 868 58 722 q 511 1014 285 1014 q 662 999 593 1014 q 822 935 731 985 l 800 708 l 700 708 l 671 861 q 576 899 617 888 q 465 910 535 910 q 351 890 394 910 q 272 836 307 871 q 215 694 238 801 q 193 499 193 586 q 272 203 193 311 q 500 94 351 94 q 789 160 615 94 z "},"ĉ":{"ha":660,"x_min":56,"x_max":604,"o":"m 288 1011 l 392 1011 l 542 803 l 489 758 l 339 926 l 189 758 l 135 803 l 288 1011 m 588 115 l 604 44 q 583 36 601 43 q 551 24 564 29 q 512 10 538 18 q 464 -3 486 3 q 354 -14 410 -14 q 131 69 207 -14 q 56 315 56 153 q 142 578 56 476 q 372 681 228 681 q 496 665 436 681 q 586 629 556 649 l 576 458 l 496 458 l 476 563 q 338 589 429 589 q 269 576 304 589 q 222 543 235 564 q 175 321 175 476 q 226 145 175 213 q 369 78 276 78 q 588 115 438 78 z "},"Ċ":{"ha":883,"x_min":58,"x_max":822,"o":"m 789 160 l 817 69 q 779 53 813 65 q 719 32 746 42 q 665 15 693 22 q 606 0 638 7 q 475 -14 544 -14 q 58 489 58 -14 q 172 868 58 722 q 511 1014 285 1014 q 662 999 593 1014 q 822 935 731 985 l 800 708 l 700 708 l 671 861 q 576 899 617 888 q 465 910 535 910 q 351 890 394 910 q 272 836 307 871 q 215 694 238 801 q 193 499 193 586 q 272 203 193 311 q 500 94 351 94 q 789 160 615 94 m 444 1326 q 468 1326 444 1326 q 506 1306 492 1326 q 521 1240 521 1286 q 501 1178 521 1194 q 436 1163 482 1163 q 374 1181 390 1163 q 357 1242 357 1199 q 376 1306 357 1285 q 444 1326 396 1326 z "},"ċ":{"ha":660,"x_min":56,"x_max":604,"o":"m 588 115 l 604 44 q 583 36 601 43 q 551 24 564 29 q 512 10 538 18 q 464 -3 486 3 q 354 -14 410 -14 q 131 69 207 -14 q 56 315 56 153 q 142 578 56 476 q 372 681 228 681 q 496 665 436 681 q 586 629 556 649 l 576 458 l 496 458 l 476 563 q 338 589 429 589 q 269 576 304 589 q 222 543 235 564 q 175 321 175 476 q 226 145 175 213 q 369 78 276 78 q 588 115 438 78 m 331 993 q 355 993 331 993 q 394 973 379 993 q 408 907 408 953 q 389 845 408 861 q 324 829 369 829 q 261 847 278 829 q 244 908 244 865 q 264 972 244 951 q 331 993 283 993 z "},"Č":{"ha":883,"x_min":58,"x_max":822,"o":"m 540 1046 l 436 1046 l 278 1233 l 331 1278 l 489 1131 l 646 1278 l 700 1233 l 540 1046 m 789 160 l 817 69 q 779 53 813 65 q 719 32 746 42 q 665 15 693 22 q 606 0 638 7 q 475 -14 544 -14 q 58 489 58 -14 q 172 868 58 722 q 511 1014 285 1014 q 662 999 593 1014 q 822 935 731 985 l 800 708 l 700 708 l 671 861 q 576 899 617 888 q 465 910 535 910 q 351 890 394 910 q 272 836 307 871 q 215 694 238 801 q 193 499 193 586 q 272 203 193 311 q 500 94 351 94 q 789 160 615 94 z "},"č":{"ha":660,"x_min":56,"x_max":604,"o":"m 588 115 l 604 44 q 583 36 601 43 q 551 24 564 29 q 512 10 538 18 q 464 -3 486 3 q 354 -14 410 -14 q 131 69 207 -14 q 56 315 56 153 q 142 578 56 476 q 372 681 228 681 q 496 665 436 681 q 586 629 556 649 l 576 458 l 496 458 l 476 563 q 338 589 429 589 q 269 576 304 589 q 222 543 235 564 q 175 321 175 476 q 226 145 175 213 q 369 78 276 78 q 588 115 438 78 m 376 783 l 272 783 l 122 992 l 175 1036 l 325 868 l 475 1036 l 529 992 l 376 783 z "},"Ď":{"ha":992,"x_min":81,"x_max":933,"o":"m 540 1046 l 436 1046 l 278 1233 l 331 1278 l 489 1131 l 646 1278 l 700 1233 l 540 1046 m 475 101 q 720 197 642 101 q 799 512 799 293 q 722 815 799 731 q 475 899 644 899 l 314 899 l 314 101 l 475 101 m 81 1000 l 496 1000 q 933 515 933 1000 q 828 138 933 276 q 496 0 722 0 l 81 0 l 81 83 l 154 96 q 187 112 179 100 q 194 151 194 124 l 194 858 q 187 899 194 886 q 154 914 179 911 l 81 922 l 81 1000 z "},"ď":{"ha":899,"x_min":63,"x_max":894,"o":"m 894 958 q 757 739 894 824 l 719 779 q 779 831 750 796 q 808 896 808 865 q 778 895 803 894 q 734 917 753 896 q 715 969 715 938 q 797 1054 715 1054 q 869 1028 844 1054 q 894 958 894 1001 m 536 208 l 536 558 q 383 613 482 613 q 240 575 283 613 q 197 482 213 551 q 182 356 182 413 q 361 101 182 101 q 475 141 425 101 q 536 208 525 181 m 646 1107 l 646 160 q 651 119 646 129 q 678 107 657 108 l 758 99 l 758 24 l 553 24 l 542 118 q 507 77 528 97 q 435 33 486 57 q 324 10 383 10 q 133 96 203 10 q 63 334 63 182 q 151 595 63 486 q 392 704 240 704 q 536 679 461 704 l 536 974 q 529 1014 536 1003 q 501 1026 522 1025 l 418 1035 l 418 1107 l 646 1107 z "},"Đ":{"ha":992,"x_min":81,"x_max":933,"o":"m 85 483 l 85 579 l 194 579 l 194 858 q 187 899 194 886 q 154 914 179 911 l 81 922 l 81 1000 l 496 1000 q 933 515 933 1000 q 828 138 933 276 q 496 0 722 0 l 81 0 l 81 83 l 154 96 q 187 112 179 100 q 194 151 194 124 l 194 483 l 85 483 m 475 101 q 720 197 642 101 q 799 512 799 293 q 722 815 799 731 q 475 899 644 899 l 314 899 l 314 579 l 556 579 l 556 483 l 314 483 l 314 101 l 475 101 z "},"đ":{"ha":813,"x_min":61,"x_max":757,"o":"m 254 803 l 254 893 l 535 893 l 535 950 q 528 990 535 979 q 500 1003 521 1001 l 417 1011 l 417 1083 l 644 1083 l 644 893 l 744 893 l 744 803 l 644 803 l 644 136 q 650 95 644 106 q 676 83 656 85 l 757 75 l 757 0 l 551 0 l 540 94 q 506 53 526 74 q 433 10 485 33 q 322 -14 382 -14 q 131 72 201 -14 q 61 310 61 158 q 150 572 61 463 q 390 681 239 681 q 535 656 460 681 l 535 803 l 254 803 m 535 185 l 535 535 q 382 589 481 589 q 239 551 283 589 q 196 458 211 528 q 181 332 181 389 q 360 78 181 78 q 474 117 424 78 q 535 185 524 157 z "},"Ē":{"ha":861,"x_min":81,"x_max":800,"o":"m 800 0 l 81 0 l 81 83 l 154 96 q 187 110 179 100 q 194 149 194 121 l 194 858 q 187 899 194 886 q 154 914 179 911 l 81 922 l 81 1000 l 794 1000 l 786 761 l 697 761 l 689 858 q 675 891 688 883 q 636 899 663 899 l 314 899 l 314 572 l 639 572 l 639 471 l 314 471 l 314 101 l 638 101 q 676 109 664 101 q 690 142 689 117 l 699 246 l 792 246 l 800 0 m 283 1122 l 297 1219 l 668 1219 l 654 1122 l 283 1122 z "},"ē":{"ha":672,"x_min":50,"x_max":618,"o":"m 618 336 l 171 304 q 375 78 178 78 q 593 118 472 78 l 613 50 q 514 14 572 29 q 336 -14 418 -14 q 120 77 190 -14 q 50 326 50 168 q 132 582 50 483 q 362 681 214 681 q 564 595 510 681 q 618 336 618 510 m 169 388 l 508 417 q 476 542 508 494 q 345 589 444 589 q 215 551 246 589 q 169 388 183 514 m 163 844 l 176 942 l 547 942 l 533 844 l 163 844 z "},"Ĕ":{"ha":861,"x_min":81,"x_max":800,"o":"m 800 0 l 81 0 l 81 83 l 154 96 q 187 110 179 100 q 194 149 194 121 l 194 858 q 187 899 194 886 q 154 914 179 911 l 81 922 l 81 1000 l 794 1000 l 786 761 l 697 761 l 689 858 q 675 891 688 883 q 636 899 663 899 l 314 899 l 314 572 l 639 572 l 639 471 l 314 471 l 314 101 l 638 101 q 676 109 664 101 q 690 142 689 117 l 699 246 l 792 246 l 800 0 m 613 1254 l 679 1233 q 603 1113 657 1160 q 471 1067 550 1067 q 338 1113 392 1067 q 263 1233 285 1160 l 329 1254 q 390 1186 353 1214 q 471 1158 426 1158 q 552 1186 515 1158 q 613 1254 589 1214 z "},"ĕ":{"ha":672,"x_min":50,"x_max":618,"o":"m 618 336 l 171 304 q 375 78 178 78 q 593 118 472 78 l 613 50 q 514 14 572 29 q 336 -14 418 -14 q 120 77 190 -14 q 50 326 50 168 q 132 582 50 483 q 362 681 214 681 q 564 595 510 681 q 618 336 618 510 m 169 388 l 508 417 q 476 542 508 494 q 345 589 444 589 q 215 551 246 589 q 169 388 183 514 m 474 976 l 540 956 q 465 835 518 882 q 332 789 411 789 q 199 835 253 789 q 124 956 146 882 l 190 976 q 251 908 214 936 q 332 881 288 881 q 413 908 376 881 q 474 976 450 936 z "},"Ė":{"ha":861,"x_min":81,"x_max":800,"o":"m 800 0 l 81 0 l 81 83 l 154 96 q 187 110 179 100 q 194 149 194 121 l 194 858 q 187 899 194 886 q 154 914 179 911 l 81 922 l 81 1000 l 794 1000 l 786 761 l 697 761 l 689 858 q 675 891 688 883 q 636 899 663 899 l 314 899 l 314 572 l 639 572 l 639 471 l 314 471 l 314 101 l 638 101 q 676 109 664 101 q 690 142 689 117 l 699 246 l 792 246 l 800 0 m 476 1257 q 500 1257 476 1257 q 538 1237 524 1257 q 553 1171 553 1217 q 533 1109 553 1125 q 468 1093 514 1093 q 406 1111 422 1093 q 389 1172 389 1129 q 408 1236 389 1215 q 476 1257 428 1257 z "},"ė":{"ha":672,"x_min":50,"x_max":618,"o":"m 618 336 l 171 304 q 375 78 178 78 q 593 118 472 78 l 613 50 q 514 14 572 29 q 336 -14 418 -14 q 120 77 190 -14 q 50 326 50 168 q 132 582 50 483 q 362 681 214 681 q 564 595 510 681 q 618 336 618 510 m 169 388 l 508 417 q 476 542 508 494 q 345 589 444 589 q 215 551 246 589 q 169 388 183 514 m 337 979 q 361 979 337 979 q 399 959 385 979 q 414 893 414 939 q 394 831 414 847 q 329 815 375 815 q 267 833 283 815 q 250 894 250 851 q 269 958 250 938 q 337 979 289 979 z "},"Ę":{"ha":861,"x_min":81,"x_max":800,"o":"m 531 -184 q 531 -160 531 -184 q 544 -117 531 -136 q 564 -87 557 -97 q 590 -63 571 -78 q 615 -43 608 -49 q 646 -21 621 -37 q 676 0 671 -4 l 81 0 l 81 83 l 154 96 q 187 110 179 100 q 194 149 194 121 l 194 858 q 187 899 194 886 q 154 914 179 911 l 81 922 l 81 1000 l 794 1000 l 786 761 l 697 761 l 689 858 q 675 891 688 883 q 636 899 663 899 l 314 899 l 314 572 l 639 572 l 639 471 l 314 471 l 314 101 l 638 101 q 676 109 664 101 q 690 142 689 117 l 699 246 l 792 246 l 800 0 l 793 0 q 744 -30 783 -4 q 689 -69 706 -56 q 622 -157 622 -121 q 640 -215 622 -193 q 688 -236 658 -236 q 781 -218 717 -236 l 797 -275 q 778 -283 796 -275 q 746 -297 760 -292 q 663 -312 700 -312 q 566 -272 601 -312 q 531 -184 531 -232 z "},"ę":{"ha":672,"x_min":50,"x_max":618,"o":"m 618 336 l 171 304 q 375 78 178 78 q 593 118 472 78 l 613 50 l 614 51 l 613 50 q 610 49 610 50 q 521 -22 574 25 q 458 -76 468 -68 q 444 -89 449 -85 q 431 -101 440 -93 q 417 -116 422 -110 q 407 -131 413 -122 q 396 -170 396 -147 q 414 -215 396 -193 q 462 -236 432 -236 q 554 -218 492 -236 l 571 -275 q 551 -283 569 -275 q 519 -297 533 -292 q 436 -312 474 -312 q 340 -272 375 -312 q 304 -187 304 -232 q 324 -112 304 -142 q 370 -63 344 -83 q 454 -3 396 -43 q 336 -14 399 -14 q 120 77 190 -14 q 50 326 50 168 q 132 582 50 483 q 362 681 214 681 q 564 595 510 681 q 618 336 618 510 m 169 388 l 508 417 q 476 542 508 494 q 345 589 444 589 q 215 551 246 589 q 169 388 183 514 z "},"Ě":{"ha":861,"x_min":81,"x_max":800,"o":"m 526 1046 l 422 1046 l 263 1233 l 317 1278 l 474 1131 l 632 1278 l 685 1233 l 526 1046 m 800 0 l 81 0 l 81 83 l 154 96 q 187 110 179 100 q 194 149 194 121 l 194 858 q 187 899 194 886 q 154 914 179 911 l 81 922 l 81 1000 l 794 1000 l 786 761 l 697 761 l 689 858 q 675 891 688 883 q 636 899 663 899 l 314 899 l 314 572 l 639 572 l 639 471 l 314 471 l 314 101 l 638 101 q 676 109 664 101 q 690 142 689 117 l 699 246 l 792 246 l 800 0 z "},"ě":{"ha":672,"x_min":50,"x_max":618,"o":"m 618 336 l 171 304 q 375 78 178 78 q 593 118 472 78 l 613 50 q 514 14 572 29 q 336 -14 418 -14 q 120 77 190 -14 q 50 326 50 168 q 132 582 50 483 q 362 681 214 681 q 564 595 510 681 q 618 336 618 510 m 169 388 l 508 417 q 476 542 508 494 q 345 589 444 589 q 215 551 246 589 q 169 388 183 514 m 385 769 l 281 769 l 131 978 l 183 1022 l 333 854 l 483 1022 l 538 978 l 385 769 z "},"Ĝ":{"ha":986,"x_min":58,"x_max":911,"o":"m 422 1268 l 526 1268 l 685 1081 l 632 1036 l 474 1183 l 317 1036 l 263 1081 l 422 1268 m 193 499 q 268 203 193 315 q 497 92 343 92 q 703 126 592 92 l 703 311 q 695 349 703 338 q 663 364 688 360 l 583 376 l 583 458 l 911 458 l 911 376 l 857 367 q 826 351 832 361 q 819 314 819 342 l 819 71 q 476 -14 628 -14 q 58 489 58 -14 q 172 868 58 722 q 511 1014 285 1014 q 671 999 597 1014 q 839 935 744 985 l 817 708 l 717 708 l 688 861 q 585 899 631 888 q 467 910 539 910 q 351 890 394 910 q 272 836 307 871 q 215 694 238 801 q 193 499 193 588 z "},"ĝ":{"ha":693,"x_min":33,"x_max":663,"o":"m 663 711 l 663 636 q 554 599 611 603 q 606 427 606 535 q 523 247 606 319 q 314 174 440 174 q 272 175 286 174 l 242 93 q 285 64 242 71 q 517 31 406 49 q 650 -112 650 10 q 559 -278 650 -210 q 322 -347 468 -347 q 153 -325 231 -347 q 33 -265 75 -303 l 63 -94 l 139 -94 l 139 -199 q 351 -247 213 -247 q 492 -223 444 -247 q 540 -136 540 -199 q 516 -92 540 -106 q 399 -69 492 -79 q 224 -43 306 -58 q 125 81 125 -24 l 196 192 q 49 426 49 247 q 122 605 49 528 q 347 682 196 682 l 353 682 q 523 685 467 682 q 663 711 579 689 m 463 310 q 490 433 490 347 q 318 604 490 604 q 194 560 225 604 q 164 433 164 517 q 206 301 164 349 q 335 254 247 254 q 463 310 422 254 m 278 1011 l 382 1011 l 532 803 l 479 758 l 329 926 l 179 758 l 125 803 l 278 1011 z "},"Ğ":{"ha":986,"x_min":58,"x_max":911,"o":"m 193 499 q 268 203 193 315 q 497 92 343 92 q 703 126 592 92 l 703 311 q 695 349 703 338 q 663 364 688 360 l 583 376 l 583 458 l 911 458 l 911 376 l 857 367 q 826 351 832 361 q 819 314 819 342 l 819 71 q 476 -14 628 -14 q 58 489 58 -14 q 172 868 58 722 q 511 1014 285 1014 q 671 999 597 1014 q 839 935 744 985 l 817 708 l 717 708 l 688 861 q 585 899 631 888 q 467 910 539 910 q 351 890 394 910 q 272 836 307 871 q 215 694 238 801 q 193 499 193 588 m 599 1254 l 665 1233 q 590 1113 643 1160 q 457 1067 536 1067 q 324 1113 378 1067 q 249 1233 271 1160 l 315 1254 q 376 1186 339 1214 q 457 1158 413 1158 q 538 1186 501 1158 q 599 1254 575 1214 z "},"ğ":{"ha":693,"x_min":33,"x_max":663,"o":"m 663 711 l 663 636 q 554 599 611 603 q 606 427 606 535 q 523 247 606 319 q 314 174 440 174 q 272 175 286 174 l 242 93 q 285 64 242 71 q 517 31 406 49 q 650 -112 650 10 q 559 -278 650 -210 q 322 -347 468 -347 q 153 -325 231 -347 q 33 -265 75 -303 l 63 -94 l 139 -94 l 139 -199 q 351 -247 213 -247 q 492 -223 444 -247 q 540 -136 540 -199 q 516 -92 540 -106 q 399 -69 492 -79 q 224 -43 306 -58 q 125 81 125 -24 l 196 192 q 49 426 49 247 q 122 605 49 528 q 347 682 196 682 l 353 682 q 523 685 467 682 q 663 711 579 689 m 463 310 q 490 433 490 347 q 318 604 490 604 q 194 560 225 604 q 164 433 164 517 q 206 301 164 349 q 335 254 247 254 q 463 310 422 254 m 468 976 l 535 956 q 459 835 513 882 q 326 789 406 789 q 194 835 247 789 q 118 956 140 882 l 185 976 q 245 908 208 936 q 326 881 282 881 q 408 908 371 881 q 468 976 444 936 z "},"Ġ":{"ha":986,"x_min":58,"x_max":911,"o":"m 193 499 q 268 203 193 315 q 497 92 343 92 q 703 126 592 92 l 703 311 q 695 349 703 338 q 663 364 688 360 l 583 376 l 583 458 l 911 458 l 911 376 l 857 367 q 826 351 832 361 q 819 314 819 342 l 819 71 q 476 -14 628 -14 q 58 489 58 -14 q 172 868 58 722 q 511 1014 285 1014 q 671 999 597 1014 q 839 935 744 985 l 817 708 l 717 708 l 688 861 q 585 899 631 888 q 467 910 539 910 q 351 890 394 910 q 272 836 307 871 q 215 694 238 801 q 193 499 193 588 m 476 1257 q 500 1257 476 1257 q 538 1237 524 1257 q 553 1171 553 1217 q 533 1109 553 1125 q 468 1093 514 1093 q 406 1111 422 1093 q 389 1172 389 1129 q 408 1236 389 1215 q 476 1257 428 1257 z "},"ġ":{"ha":693,"x_min":33,"x_max":663,"o":"m 663 711 l 663 636 q 554 599 611 603 q 606 427 606 535 q 523 247 606 319 q 314 174 440 174 q 272 175 286 174 l 242 93 q 285 64 242 71 q 517 31 406 49 q 650 -112 650 10 q 559 -278 650 -210 q 322 -347 468 -347 q 153 -325 231 -347 q 33 -265 75 -303 l 63 -94 l 139 -94 l 139 -199 q 351 -247 213 -247 q 492 -223 444 -247 q 540 -136 540 -199 q 516 -92 540 -106 q 399 -69 492 -79 q 224 -43 306 -58 q 125 81 125 -24 l 196 192 q 49 426 49 247 q 122 605 49 528 q 347 682 196 682 l 353 682 q 523 685 467 682 q 663 711 579 689 m 463 310 q 490 433 490 347 q 318 604 490 604 q 194 560 225 604 q 164 433 164 517 q 206 301 164 349 q 335 254 247 254 q 463 310 422 254 m 331 979 q 355 979 331 979 q 394 959 379 979 q 408 893 408 939 q 389 831 408 847 q 324 815 369 815 q 261 833 278 815 q 244 894 244 851 q 264 958 244 938 q 331 979 283 979 z "},"Ģ":{"ha":986,"x_min":58,"x_max":911,"o":"m 497 -51 q 586 -160 586 -51 q 547 -269 586 -214 q 456 -349 508 -325 l 424 -315 q 487 -260 460 -292 q 514 -203 514 -228 q 477 -207 503 -207 q 434 -185 451 -207 q 417 -132 417 -164 q 497 -51 417 -51 m 193 499 q 268 203 193 315 q 497 92 343 92 q 703 126 592 92 l 703 311 q 695 349 703 338 q 663 364 688 360 l 583 376 l 583 458 l 911 458 l 911 376 l 857 367 q 826 351 832 361 q 819 314 819 342 l 819 71 q 476 -14 628 -14 q 58 489 58 -14 q 172 868 58 722 q 511 1014 285 1014 q 671 999 597 1014 q 839 935 744 985 l 817 708 l 717 708 l 688 861 q 585 899 631 888 q 467 910 539 910 q 351 890 394 910 q 272 836 307 871 q 215 694 238 801 q 193 499 193 588 z "},"ģ":{"ha":693,"x_min":33,"x_max":663,"o":"m 325 768 q 236 876 236 768 q 275 986 236 931 q 367 1065 314 1042 l 399 1032 q 335 976 363 1008 q 308 919 308 944 q 344 924 318 924 q 388 902 371 924 q 406 849 406 881 q 325 768 406 768 m 663 711 l 663 636 q 554 599 611 603 q 606 427 606 535 q 523 247 606 319 q 314 174 440 174 q 272 175 286 174 l 242 93 q 285 64 242 71 q 517 31 406 49 q 650 -112 650 10 q 559 -278 650 -210 q 322 -347 468 -347 q 153 -325 231 -347 q 33 -265 75 -303 l 63 -94 l 139 -94 l 139 -199 q 351 -247 213 -247 q 492 -223 444 -247 q 540 -136 540 -199 q 516 -92 540 -106 q 399 -69 492 -79 q 224 -43 306 -58 q 125 81 125 -24 l 196 192 q 49 426 49 247 q 122 605 49 528 q 347 682 196 682 l 353 682 q 523 685 467 682 q 663 711 579 689 m 463 310 q 490 433 490 347 q 318 604 490 604 q 194 560 225 604 q 164 433 164 517 q 206 301 164 349 q 335 254 247 254 q 463 310 422 254 z "},"Ĥ":{"ha":1097,"x_min":81,"x_max":1017,"o":"m 503 1268 l 607 1268 l 765 1081 l 713 1036 l 554 1183 l 397 1036 l 343 1081 l 503 1268 m 903 853 l 903 147 q 910 109 903 119 q 943 94 918 99 l 1017 82 l 1017 0 l 663 0 l 663 82 l 743 94 q 776 109 768 99 q 783 147 783 119 l 783 474 l 314 474 l 314 147 q 322 109 314 119 q 354 94 329 99 l 435 82 l 435 0 l 81 0 l 81 82 l 154 94 q 187 109 179 99 q 194 147 194 119 l 194 853 q 187 891 194 881 q 154 906 179 901 l 81 918 l 81 1000 l 435 1000 l 435 918 l 354 906 q 322 891 329 901 q 314 853 314 881 l 314 574 l 783 574 l 783 853 q 776 891 783 881 q 743 906 768 901 l 663 918 l 663 1000 l 1017 1000 l 1017 918 l 943 906 q 910 891 918 901 q 903 853 903 881 z "},"ĥ":{"ha":871,"x_min":56,"x_max":826,"o":"m 442 1268 l 546 1268 l 697 1081 l 644 1036 l 493 1183 l 343 1036 l 289 1081 l 442 1268 m 826 0 l 608 0 l 608 450 q 569 544 608 511 q 465 578 531 578 q 350 546 400 578 q 276 471 300 514 l 276 136 q 282 95 276 106 q 308 83 288 85 l 392 74 l 392 0 l 58 0 l 58 75 l 135 83 q 161 95 156 85 q 167 136 167 106 l 167 949 q 161 990 167 979 q 135 1003 156 1001 l 56 1011 l 56 1083 l 276 1083 l 276 567 q 328 617 307 599 q 399 658 349 636 q 507 681 450 681 q 667 623 617 681 q 718 478 718 565 l 718 136 q 724 95 718 106 q 750 83 729 85 l 826 75 l 826 0 z "},"Ħ":{"ha":1097,"x_min":81,"x_max":1017,"o":"m 903 853 l 903 785 l 983 785 l 983 701 l 903 701 l 903 147 q 910 109 903 119 q 943 94 918 99 l 1017 82 l 1017 0 l 663 0 l 663 82 l 743 94 q 776 109 768 99 q 783 147 783 119 l 783 474 l 314 474 l 314 147 q 322 109 314 119 q 354 94 329 99 l 435 82 l 435 0 l 81 0 l 81 82 l 154 94 q 187 109 179 99 q 194 147 194 119 l 194 701 l 108 701 l 108 785 l 194 785 l 194 853 q 187 891 194 881 q 154 906 179 901 l 81 918 l 81 1000 l 435 1000 l 435 918 l 354 906 q 322 891 329 901 q 314 853 314 881 l 314 785 l 783 785 l 783 853 q 776 891 783 881 q 743 906 768 901 l 663 918 l 663 1000 l 1017 1000 l 1017 918 l 943 906 q 910 891 918 901 q 903 853 903 881 m 314 574 l 783 574 l 783 701 l 314 701 l 314 574 z "},"ħ":{"ha":871,"x_min":56,"x_max":826,"o":"m 826 0 l 608 0 l 608 450 q 569 544 608 511 q 465 578 531 578 q 350 546 400 578 q 276 471 300 514 l 276 136 q 282 95 276 106 q 308 83 288 85 l 392 74 l 392 0 l 58 0 l 58 75 l 135 83 q 161 95 156 85 q 167 136 167 106 l 167 810 l 67 810 l 67 893 l 167 893 l 167 949 q 161 990 167 979 q 135 1003 156 1001 l 56 1011 l 56 1083 l 276 1083 l 276 893 l 557 893 l 557 810 l 276 810 l 276 567 q 328 617 307 599 q 399 658 349 636 q 507 681 450 681 q 667 623 617 681 q 718 478 718 565 l 718 136 q 724 95 718 106 q 750 83 729 85 l 826 75 l 826 0 z "},"Ĩ":{"ha":508,"x_min":46,"x_max":463,"o":"m 339 1075 q 247 1101 304 1075 q 155 1126 190 1126 q 67 1083 119 1126 l 46 1142 q 171 1222 103 1222 q 265 1198 208 1222 q 349 1174 322 1174 q 440 1211 397 1174 l 463 1156 q 339 1075 407 1075 m 428 82 l 428 0 l 81 0 l 81 82 l 154 94 q 187 109 179 99 q 194 147 194 119 l 194 853 q 187 891 194 881 q 154 906 179 901 l 81 918 l 81 1000 l 428 1000 l 428 918 l 354 906 q 322 891 329 901 q 314 853 314 881 l 314 147 q 322 109 314 119 q 354 94 329 99 l 428 82 z "},"ĩ":{"ha":429,"x_min":-1,"x_max":385,"o":"m 174 822 q 146 835 174 822 q 90 847 118 847 q 19 819 63 847 l -1 878 q 100 942 49 942 q 193 918 135 942 q 279 894 251 894 q 344 917 307 894 l 365 861 q 263 797 318 797 q 174 822 231 797 m 276 667 l 276 136 q 282 96 276 106 q 308 83 288 86 l 385 75 l 385 0 l 58 0 l 58 75 l 135 83 q 161 96 156 86 q 167 136 167 106 l 167 533 q 161 574 167 564 q 135 586 156 585 l 58 594 l 58 667 l 276 667 z "},"ī":{"ha":429,"x_min":11,"x_max":385,"o":"m 11 844 l 25 942 l 354 942 l 340 844 l 11 844 m 276 667 l 276 136 q 282 96 276 106 q 308 83 288 86 l 385 75 l 385 0 l 58 0 l 58 75 l 135 83 q 161 96 156 86 q 167 136 167 106 l 167 533 q 161 574 167 564 q 135 586 156 585 l 58 594 l 58 667 l 276 667 z "},"Ĭ":{"ha":508,"x_min":46,"x_max":463,"o":"m 428 82 l 428 0 l 81 0 l 81 82 l 154 94 q 187 109 179 99 q 194 147 194 119 l 194 853 q 187 891 194 881 q 154 906 179 901 l 81 918 l 81 1000 l 428 1000 l 428 918 l 354 906 q 322 891 329 901 q 314 853 314 881 l 314 147 q 322 109 314 119 q 354 94 329 99 l 428 82 m 396 1254 l 463 1233 q 387 1113 440 1160 q 254 1067 333 1067 q 122 1113 175 1067 q 46 1233 68 1160 l 113 1254 q 173 1186 136 1214 q 254 1158 210 1158 q 335 1186 299 1158 q 396 1254 372 1214 z "},"Į":{"ha":508,"x_min":81,"x_max":428,"o":"m 160 -184 q 160 -160 160 -184 q 173 -117 160 -136 q 193 -87 186 -97 q 219 -63 200 -78 q 244 -43 238 -49 q 275 -21 250 -37 q 306 0 300 -4 l 81 0 l 81 82 l 154 94 q 187 109 179 99 q 194 147 194 119 l 194 853 q 187 891 194 881 q 154 906 179 901 l 81 918 l 81 1000 l 428 1000 l 428 918 l 354 906 q 322 891 329 901 q 314 853 314 881 l 314 147 q 322 109 314 119 q 354 94 329 99 l 428 82 l 428 0 l 422 0 q 374 -30 413 -4 q 318 -69 335 -56 q 251 -157 251 -121 q 269 -215 251 -193 q 317 -236 288 -236 q 410 -218 346 -236 l 426 -275 q 407 -283 425 -275 q 375 -297 389 -292 q 292 -312 329 -312 q 195 -272 231 -312 q 160 -184 160 -232 z "},"į":{"ha":429,"x_min":58,"x_max":385,"o":"m 118 -184 q 118 -160 118 -184 q 131 -117 118 -136 q 151 -87 144 -97 q 177 -63 158 -78 q 202 -43 196 -49 q 233 -21 208 -37 q 264 0 258 -4 l 58 0 l 58 75 l 135 83 q 161 96 156 86 q 167 136 167 106 l 167 533 q 161 574 167 564 q 135 586 156 585 l 58 594 l 58 667 l 276 667 l 276 136 q 282 96 276 106 q 308 83 288 86 l 385 75 l 385 0 l 381 0 q 332 -30 371 -4 q 276 -69 293 -56 q 210 -157 210 -121 q 228 -215 210 -193 q 276 -236 246 -236 q 368 -218 306 -236 l 385 -275 q 365 -283 383 -275 q 333 -297 347 -292 q 250 -312 288 -312 q 153 -272 189 -312 q 118 -184 118 -232 m 210 992 q 234 992 210 992 q 273 972 258 992 q 288 906 288 951 q 268 844 288 860 q 203 828 249 828 q 140 846 157 828 q 124 907 124 864 q 143 971 124 950 q 210 992 163 992 z "},"İ":{"ha":508,"x_min":81,"x_max":428,"o":"m 428 82 l 428 0 l 81 0 l 81 82 l 154 94 q 187 109 179 99 q 194 147 194 119 l 194 853 q 187 891 194 881 q 154 906 179 901 l 81 918 l 81 1000 l 428 1000 l 428 918 l 354 906 q 322 891 329 901 q 314 853 314 881 l 314 147 q 322 109 314 119 q 354 94 329 99 l 428 82 m 259 1257 q 283 1257 259 1257 q 322 1237 307 1257 q 336 1171 336 1217 q 317 1109 336 1125 q 251 1093 297 1093 q 189 1111 206 1093 q 172 1172 172 1129 q 192 1236 172 1215 q 259 1257 211 1257 z "},"ı":{"ha":429,"x_min":58,"x_max":385,"o":"m 276 667 l 276 136 q 282 96 276 106 q 308 83 288 86 l 385 75 l 385 0 l 58 0 l 58 75 l 135 83 q 161 96 156 86 q 167 136 167 106 l 167 533 q 161 574 167 564 q 135 586 156 585 l 58 594 l 58 667 l 276 667 z "},"Ĳ":{"ha":914,"x_min":81,"x_max":868,"o":"m 428 82 l 428 0 l 81 0 l 81 82 l 154 94 q 187 109 179 99 q 194 147 194 119 l 194 853 q 187 891 194 881 q 154 906 179 901 l 81 918 l 81 1000 l 428 1000 l 428 918 l 354 906 q 322 891 329 901 q 314 853 314 881 l 314 147 q 322 109 314 119 q 354 94 329 99 l 428 82 m 460 -214 l 406 -139 q 596 21 557 -46 q 635 249 635 88 l 635 853 q 627 891 635 881 q 594 906 619 901 l 521 918 l 521 1000 l 868 1000 l 868 918 l 794 906 q 762 891 769 901 q 754 853 754 881 l 754 206 q 735 24 754 74 q 699 -50 715 -25 q 643 -104 682 -75 q 460 -214 581 -151 z "},"ĳ":{"ha":804,"x_min":58,"x_max":678,"o":"m 276 667 l 276 136 q 282 96 276 106 q 308 83 288 86 l 385 75 l 385 0 l 58 0 l 58 75 l 135 83 q 161 96 156 86 q 167 136 167 106 l 167 533 q 161 574 167 564 q 135 586 156 585 l 58 594 l 58 667 l 276 667 m 210 992 q 234 992 210 992 q 273 972 258 992 q 288 906 288 951 q 268 844 288 860 q 203 828 249 828 q 140 846 157 828 q 124 907 124 864 q 143 971 124 950 q 210 992 163 992 m 601 992 q 625 992 601 992 q 663 972 649 992 q 678 906 678 951 q 658 844 678 860 q 593 828 639 828 q 531 846 547 828 q 514 907 514 864 q 533 971 514 950 q 601 992 553 992 m 556 35 l 556 533 q 550 574 556 564 q 524 586 544 585 l 447 594 l 447 667 l 665 667 l 665 -4 q 649 -161 665 -108 q 588 -255 633 -214 q 439 -347 543 -296 l 371 -292 q 492 -203 458 -237 q 541 -118 526 -169 q 556 35 556 -67 z "},"Ĵ":{"ha":474,"x_min":-35,"x_max":439,"o":"m 197 1268 l 301 1268 l 439 1081 l 386 1036 l 249 1183 l 113 1036 l 58 1081 l 197 1268 m 19 -214 l -35 -139 q 156 21 117 -46 q 194 249 194 88 l 194 853 q 187 891 194 881 q 154 906 179 901 l 81 918 l 81 1000 l 428 1000 l 428 918 l 354 906 q 322 891 329 901 q 314 853 314 881 l 314 206 q 294 24 314 74 q 258 -50 275 -25 q 203 -104 242 -75 q 19 -214 140 -151 z "},"ĵ":{"ha":401,"x_min":-32,"x_max":353,"o":"m 153 35 l 153 533 q 147 574 153 564 q 121 586 142 585 l 44 594 l 44 667 l 263 667 l 263 -4 q 247 -161 263 -108 q 185 -255 231 -214 q 36 -347 140 -296 l -32 -292 q 90 -203 56 -237 q 138 -118 124 -169 q 153 35 153 -67 m 125 1011 l 217 1011 l 353 803 l 300 758 l 169 921 l 39 758 l -15 803 l 125 1011 z "},"Ķ":{"ha":897,"x_min":81,"x_max":918,"o":"m 314 533 l 314 147 q 322 109 314 119 q 354 94 329 99 l 433 82 l 433 0 l 81 0 l 81 82 l 154 94 q 187 109 179 99 q 194 147 194 119 l 194 853 q 187 891 194 881 q 154 906 179 901 l 81 918 l 81 1000 l 433 1000 l 433 918 l 354 906 q 322 891 329 901 q 314 853 314 881 l 314 560 l 668 940 q 797 1000 724 1000 l 865 1000 l 865 914 q 792 903 819 914 q 731 857 765 893 l 450 553 l 700 213 q 788 110 756 136 q 856 83 821 83 q 918 93 890 83 l 910 13 q 797 -14 860 -14 q 693 22 733 -14 q 599 135 653 57 l 314 533 m 493 -50 q 582 -158 582 -50 q 543 -268 582 -212 q 451 -347 504 -324 l 419 -314 q 483 -258 456 -290 q 510 -201 510 -226 q 474 -206 500 -206 q 430 -184 447 -206 q 413 -131 413 -162 q 493 -50 413 -50 z "},"ķ":{"ha":753,"x_min":58,"x_max":767,"o":"m 167 136 l 167 950 q 161 991 167 981 q 135 1003 156 1001 l 58 1011 l 58 1083 l 276 1083 l 276 401 l 472 600 q 540 653 513 640 q 606 667 568 667 l 668 667 l 668 586 l 646 586 q 576 565 614 586 q 514 522 539 544 q 451 458 489 499 l 396 400 l 396 390 l 564 175 q 715 76 639 76 q 745 80 726 76 q 767 83 764 83 l 753 7 q 658 -14 697 -14 q 515 71 579 -14 l 276 379 l 276 136 q 282 96 276 106 q 308 83 288 86 l 374 72 l 374 0 l 58 0 l 58 75 l 135 83 q 161 96 156 86 q 167 136 167 106 m 406 -50 q 494 -158 494 -50 q 456 -268 494 -212 q 364 -347 417 -324 l 332 -314 q 395 -258 368 -290 q 422 -201 422 -226 q 386 -206 413 -206 q 342 -184 360 -206 q 325 -131 325 -162 q 406 -50 325 -50 z "},"ĸ":{"ha":715,"x_min":58,"x_max":715,"o":"m 276 333 l 276 136 q 282 95 276 106 q 308 83 288 85 l 392 74 l 392 0 l 58 0 l 58 75 l 135 83 q 161 95 156 85 q 167 136 167 106 l 167 546 q 159 574 165 567 q 135 583 153 582 l 58 592 l 58 667 l 392 667 l 392 593 l 308 583 q 284 574 290 582 q 276 546 278 567 l 276 358 l 538 629 q 625 667 574 667 l 682 667 l 682 582 q 585 549 618 582 l 382 351 l 556 154 q 672 71 629 71 q 715 78 701 71 l 710 4 q 631 -14 676 -14 q 486 69 553 -14 l 276 333 z "},"Ĺ":{"ha":772,"x_min":81,"x_max":753,"o":"m 439 1299 l 507 1206 l 294 1061 q 257 1047 272 1047 q 190 1088 225 1047 l 439 1299 m 753 0 l 81 0 l 81 82 l 154 94 q 187 109 179 99 q 194 147 194 119 l 194 853 q 187 891 194 881 q 154 906 179 901 l 81 918 l 81 1000 l 436 1000 l 436 918 l 354 906 q 322 891 329 901 q 314 853 314 881 l 314 101 l 590 101 q 629 109 617 101 q 643 142 642 117 l 651 246 l 744 246 l 753 0 z "},"ĺ":{"ha":429,"x_min":58,"x_max":399,"o":"m 331 1376 l 399 1283 l 186 1139 q 149 1125 164 1125 q 82 1165 117 1125 l 331 1376 m 58 1083 l 276 1083 l 276 136 q 282 96 276 106 q 308 83 288 86 l 385 75 l 385 0 l 58 0 l 58 75 l 135 83 q 161 96 156 86 q 167 136 167 106 l 167 953 q 161 992 167 982 q 135 1003 156 1001 l 58 1011 l 58 1083 z "},"Ļ":{"ha":772,"x_min":81,"x_max":753,"o":"m 753 0 l 81 0 l 81 82 l 154 94 q 187 109 179 99 q 194 147 194 119 l 194 853 q 187 891 194 881 q 154 906 179 901 l 81 918 l 81 1000 l 436 1000 l 436 918 l 354 906 q 322 891 329 901 q 314 853 314 881 l 314 101 l 590 101 q 629 109 617 101 q 643 142 642 117 l 651 246 l 744 246 l 753 0 m 383 -50 q 472 -158 472 -50 q 433 -268 472 -212 q 342 -347 394 -324 l 310 -314 q 373 -258 346 -290 q 400 -201 400 -226 q 363 -206 389 -206 q 320 -184 338 -206 q 303 -131 303 -162 q 383 -50 303 -50 z "},"ļ":{"ha":429,"x_min":58,"x_max":385,"o":"m 58 1083 l 276 1083 l 276 136 q 282 96 276 106 q 308 83 288 86 l 385 75 l 385 0 l 58 0 l 58 75 l 135 83 q 161 96 156 86 q 167 136 167 106 l 167 953 q 161 992 167 982 q 135 1003 156 1001 l 58 1011 l 58 1083 m 214 -50 q 303 -158 303 -50 q 264 -268 303 -212 q 172 -347 225 -324 l 140 -314 q 203 -258 176 -290 q 231 -201 231 -226 q 194 -206 219 -206 q 151 -184 168 -206 q 133 -131 133 -162 q 214 -50 133 -50 z "},"Ľ":{"ha":786,"x_min":81,"x_max":753,"o":"m 728 958 q 590 739 728 824 l 553 779 q 613 831 583 796 q 642 896 642 865 q 611 895 636 894 q 567 917 586 896 q 549 969 549 938 q 631 1054 549 1054 q 703 1028 678 1054 q 728 958 728 1001 m 753 0 l 81 0 l 81 82 l 154 94 q 187 109 179 99 q 194 147 194 119 l 194 853 q 187 891 194 881 q 154 906 179 901 l 81 918 l 81 1000 l 436 1000 l 436 918 l 354 906 q 322 891 329 901 q 314 853 314 881 l 314 101 l 590 101 q 629 109 617 101 q 643 142 642 117 l 651 246 l 744 246 l 753 0 z "},"ľ":{"ha":526,"x_min":58,"x_max":525,"o":"m 525 958 q 388 739 525 824 l 350 779 q 410 831 381 796 q 439 896 439 865 q 408 895 433 894 q 365 917 383 896 q 346 969 346 938 q 428 1054 346 1054 q 500 1028 475 1054 q 525 958 525 1001 m 58 1083 l 276 1083 l 276 136 q 282 96 276 106 q 308 83 288 86 l 385 75 l 385 0 l 58 0 l 58 75 l 135 83 q 161 96 156 86 q 167 136 167 106 l 167 953 q 161 992 167 982 q 135 1003 156 1001 l 58 1011 l 58 1083 z "},"Ŀ":{"ha":772,"x_min":81,"x_max":753,"o":"m 570 590 q 595 590 570 590 q 633 570 619 590 q 647 504 647 550 q 627 442 647 458 q 556 426 607 426 q 483 500 483 426 q 502 569 483 549 q 570 590 521 590 m 753 0 l 81 0 l 81 82 l 154 94 q 187 109 179 99 q 194 147 194 119 l 194 853 q 187 891 194 881 q 154 906 179 901 l 81 918 l 81 1000 l 436 1000 l 436 918 l 354 906 q 322 891 329 901 q 314 853 314 881 l 314 101 l 590 101 q 629 109 617 101 q 643 142 642 117 l 651 246 l 744 246 l 753 0 z "},"ŀ":{"ha":526,"x_min":58,"x_max":544,"o":"m 58 1083 l 276 1083 l 276 136 q 282 96 276 106 q 308 83 288 86 l 385 75 l 385 0 l 58 0 l 58 75 l 135 83 q 161 96 156 86 q 167 136 167 106 l 167 953 q 161 992 167 982 q 135 1003 156 1001 l 58 1011 l 58 1083 m 467 618 q 492 618 467 618 q 531 598 517 618 q 544 532 544 578 q 524 470 544 486 q 453 454 504 454 q 381 528 381 454 q 399 597 381 576 q 467 618 418 618 z "},"Ł":{"ha":772,"x_min":81,"x_max":753,"o":"m 85 336 l 85 433 l 194 497 l 194 853 q 187 891 194 881 q 154 906 179 901 l 81 918 l 81 1000 l 436 1000 l 436 918 l 354 906 q 322 891 329 901 q 314 853 314 881 l 314 567 l 515 683 l 515 588 l 314 469 l 314 101 l 590 101 q 629 109 617 101 q 643 142 642 117 l 651 246 l 744 246 l 753 0 l 81 0 l 81 82 l 154 94 q 187 109 179 99 q 194 147 194 119 l 194 400 l 85 336 z "},"ł":{"ha":429,"x_min":58,"x_max":385,"o":"m 58 1083 l 276 1083 l 276 628 l 371 683 l 371 588 l 276 532 l 276 136 q 282 96 276 106 q 308 83 288 86 l 385 75 l 385 0 l 58 0 l 58 75 l 135 83 q 161 96 156 86 q 167 136 167 106 l 167 468 l 76 415 l 76 510 l 167 563 l 167 953 q 161 992 167 982 q 135 1003 156 1001 l 58 1011 l 58 1083 z "},"Ń":{"ha":1093,"x_min":81,"x_max":1046,"o":"m 657 1299 l 725 1206 l 513 1061 q 475 1047 490 1047 q 408 1088 443 1047 l 657 1299 m 314 781 l 314 147 q 322 109 314 119 q 354 94 329 99 l 428 82 l 428 0 l 81 0 l 81 82 l 154 94 q 187 109 179 99 q 194 147 194 119 l 194 854 q 187 894 194 882 q 154 910 179 907 l 82 918 l 82 1000 l 315 1000 l 814 219 l 814 854 q 807 894 814 882 q 775 910 800 907 l 703 918 l 703 1000 l 1046 1000 l 1046 918 l 974 910 q 941 894 949 907 q 933 854 933 882 l 933 0 l 811 0 l 314 781 z "},"ń":{"ha":871,"x_min":58,"x_max":826,"o":"m 826 0 l 608 0 l 608 449 q 569 544 608 511 q 465 578 531 578 q 350 546 400 578 q 276 472 300 514 l 276 136 q 282 95 276 106 q 308 83 288 85 l 392 74 l 392 0 l 58 0 l 58 75 l 135 83 q 161 95 156 85 q 167 136 167 106 l 167 533 q 161 574 167 564 q 135 586 156 585 l 58 594 l 58 667 l 263 667 l 275 567 q 328 618 307 600 q 399 658 349 636 q 507 681 450 681 q 668 624 618 681 q 718 482 718 567 l 718 136 q 724 96 718 106 q 750 83 729 86 l 826 75 l 826 0 m 535 1044 l 615 961 l 425 789 q 379 769 404 769 q 318 800 354 769 l 535 1044 z "},"Ņ":{"ha":1093,"x_min":81,"x_max":1046,"o":"m 314 781 l 314 147 q 322 109 314 119 q 354 94 329 99 l 428 82 l 428 0 l 81 0 l 81 82 l 154 94 q 187 109 179 99 q 194 147 194 119 l 194 854 q 187 894 194 882 q 154 910 179 907 l 82 918 l 82 1000 l 315 1000 l 814 219 l 814 854 q 807 894 814 882 q 775 910 800 907 l 703 918 l 703 1000 l 1046 1000 l 1046 918 l 974 910 q 941 894 949 907 q 933 854 933 882 l 933 0 l 811 0 l 314 781 m 593 -50 q 682 -158 682 -50 q 643 -268 682 -212 q 551 -347 604 -324 l 519 -314 q 583 -258 556 -290 q 610 -201 610 -226 q 574 -206 600 -206 q 530 -184 547 -206 q 513 -131 513 -162 q 593 -50 513 -50 z "},"ņ":{"ha":871,"x_min":58,"x_max":826,"o":"m 826 0 l 608 0 l 608 449 q 569 544 608 511 q 465 578 531 578 q 350 546 400 578 q 276 472 300 514 l 276 136 q 282 95 276 106 q 308 83 288 85 l 392 74 l 392 0 l 58 0 l 58 75 l 135 83 q 161 95 156 85 q 167 136 167 106 l 167 533 q 161 574 167 564 q 135 586 156 585 l 58 594 l 58 667 l 263 667 l 275 567 q 328 618 307 600 q 399 658 349 636 q 507 681 450 681 q 668 624 618 681 q 718 482 718 567 l 718 136 q 724 96 718 106 q 750 83 729 86 l 826 75 l 826 0 m 453 -50 q 542 -158 542 -50 q 503 -268 542 -212 q 411 -347 464 -324 l 379 -314 q 442 -258 415 -290 q 469 -201 469 -226 q 433 -206 460 -206 q 390 -184 407 -206 q 372 -131 372 -162 q 453 -50 372 -50 z "},"Ň":{"ha":1093,"x_min":81,"x_max":1046,"o":"m 314 781 l 314 147 q 322 109 314 119 q 354 94 329 99 l 428 82 l 428 0 l 81 0 l 81 82 l 154 94 q 187 109 179 99 q 194 147 194 119 l 194 854 q 187 894 194 882 q 154 910 179 907 l 82 918 l 82 1000 l 315 1000 l 814 219 l 814 854 q 807 894 814 882 q 775 910 800 907 l 703 918 l 703 1000 l 1046 1000 l 1046 918 l 974 910 q 941 894 949 907 q 933 854 933 882 l 933 0 l 811 0 l 314 781 m 617 1046 l 513 1046 l 363 1254 l 415 1299 l 565 1131 l 715 1299 l 769 1254 l 617 1046 z "},"ň":{"ha":871,"x_min":58,"x_max":826,"o":"m 826 0 l 608 0 l 608 449 q 569 544 608 511 q 465 578 531 578 q 350 546 400 578 q 276 472 300 514 l 276 136 q 282 95 276 106 q 308 83 288 85 l 392 74 l 392 0 l 58 0 l 58 75 l 135 83 q 161 95 156 85 q 167 136 167 106 l 167 533 q 161 574 167 564 q 135 586 156 585 l 58 594 l 58 667 l 263 667 l 275 567 q 328 618 307 600 q 399 658 349 636 q 507 681 450 681 q 668 624 618 681 q 718 482 718 567 l 718 136 q 724 96 718 106 q 750 83 729 86 l 826 75 l 826 0 m 489 783 l 385 783 l 235 992 l 288 1036 l 438 868 l 588 1036 l 642 992 l 489 783 z "},"ŉ":{"ha":871,"x_min":21,"x_max":826,"o":"m 200 958 q 63 739 200 824 l 25 779 q 85 831 56 796 q 114 896 114 865 q 83 895 108 894 q 40 917 58 896 q 21 969 21 938 q 103 1054 21 1054 q 175 1028 150 1054 q 200 958 200 1001 m 826 0 l 608 0 l 608 449 q 569 544 608 511 q 465 578 531 578 q 350 546 400 578 q 276 472 300 514 l 276 136 q 282 95 276 106 q 308 83 288 85 l 392 74 l 392 0 l 58 0 l 58 75 l 135 83 q 161 95 156 85 q 167 136 167 106 l 167 533 q 161 574 167 564 q 135 586 156 585 l 58 594 l 58 667 l 263 667 l 275 567 q 328 618 307 600 q 399 658 349 636 q 507 681 450 681 q 668 624 618 681 q 718 482 718 567 l 718 136 q 724 96 718 106 q 750 83 729 86 l 826 75 l 826 0 z "},"Ŋ":{"ha":1082,"x_min":78,"x_max":922,"o":"m 800 213 l 800 694 q 743 848 800 797 q 595 899 686 899 q 431 854 504 899 q 317 738 357 810 l 317 157 q 322 112 317 124 q 350 96 328 100 l 439 81 l 439 0 l 78 0 l 78 82 l 160 96 q 188 112 182 100 q 194 157 194 124 l 194 853 q 187 894 194 882 q 153 910 179 907 l 82 918 l 82 1000 l 303 1000 l 318 850 q 465 971 388 928 q 663 1014 543 1014 q 853 942 783 1014 q 922 751 922 869 l 922 178 q 792 -121 922 -24 q 625 -214 733 -165 l 571 -129 q 756 10 713 -61 q 800 213 800 81 z "},"ŋ":{"ha":872,"x_min":56,"x_max":715,"o":"m 715 482 l 715 18 q 675 -206 715 -136 q 489 -347 635 -275 l 421 -292 q 570 -165 535 -225 q 606 22 606 -104 l 606 449 q 567 544 606 511 q 463 578 528 578 q 347 546 397 578 q 274 472 297 514 l 274 136 q 279 95 274 106 q 306 83 285 85 l 389 74 l 389 0 l 56 0 l 56 75 l 132 83 q 158 95 153 85 q 164 136 164 106 l 164 533 q 158 574 164 564 q 132 586 153 585 l 56 594 l 56 667 l 260 667 l 272 567 q 325 618 304 600 q 397 658 346 636 q 504 681 447 681 q 665 624 615 681 q 715 482 715 567 z "},"Ō":{"ha":996,"x_min":58,"x_max":938,"o":"m 767 946 q 813 912 767 946 q 899 767 860 878 q 938 526 938 656 q 911 308 938 397 q 830 144 885 218 q 682 28 775 71 q 456 -14 589 -14 q 229 54 322 -14 q 97 233 136 122 q 58 474 58 344 q 85 692 58 603 q 166 856 111 782 q 314 972 221 929 q 540 1014 407 1014 q 767 946 674 1014 m 803 508 q 719 804 803 697 q 487 911 635 911 q 272 835 339 911 q 215 692 238 794 q 193 492 193 590 q 277 196 193 303 q 509 89 361 89 q 724 165 657 89 q 781 308 758 206 q 803 508 803 410 m 311 1122 l 325 1219 l 696 1219 l 682 1122 l 311 1122 z "},"ō":{"ha":754,"x_min":56,"x_max":699,"o":"m 621 100 q 513 17 582 49 q 354 -14 444 -14 q 128 79 200 -14 q 56 333 56 172 q 133 567 56 464 q 241 649 172 618 q 400 681 310 681 q 626 588 554 681 q 699 349 699 494 q 621 100 699 203 m 579 339 q 524 522 579 456 q 370 589 468 589 q 238 555 272 589 q 190 456 204 521 q 175 328 175 392 q 231 144 175 211 q 384 78 286 78 q 516 112 482 78 q 565 210 550 146 q 579 339 579 275 m 189 844 l 203 942 l 574 942 l 560 844 l 189 844 z "},"Ŏ":{"ha":996,"x_min":58,"x_max":938,"o":"m 767 946 q 813 912 767 946 q 899 767 860 878 q 938 526 938 656 q 911 308 938 397 q 830 144 885 218 q 682 28 775 71 q 456 -14 589 -14 q 229 54 322 -14 q 97 233 136 122 q 58 474 58 344 q 85 692 58 603 q 166 856 111 782 q 314 972 221 929 q 540 1014 407 1014 q 767 946 674 1014 m 803 508 q 719 804 803 697 q 487 911 635 911 q 272 835 339 911 q 215 692 238 794 q 193 492 193 590 q 277 196 193 303 q 509 89 361 89 q 724 165 657 89 q 781 308 758 206 q 803 508 803 410 m 640 1254 l 707 1233 q 631 1113 685 1160 q 499 1067 578 1067 q 366 1113 419 1067 q 290 1233 313 1160 l 357 1254 q 417 1186 381 1214 q 499 1158 454 1158 q 580 1186 543 1158 q 640 1254 617 1214 z "},"ŏ":{"ha":754,"x_min":56,"x_max":699,"o":"m 621 100 q 513 17 582 49 q 354 -14 444 -14 q 128 79 200 -14 q 56 333 56 172 q 133 567 56 464 q 241 649 172 618 q 400 681 310 681 q 626 588 554 681 q 699 349 699 494 q 621 100 699 203 m 579 339 q 524 522 579 456 q 370 589 468 589 q 238 555 272 589 q 190 456 204 521 q 175 328 175 392 q 231 144 175 211 q 384 78 286 78 q 516 112 482 78 q 565 210 550 146 q 579 339 579 275 m 518 976 l 585 956 q 509 835 563 882 q 376 789 456 789 q 244 835 297 789 q 168 956 190 882 l 235 976 q 295 908 258 936 q 376 881 332 881 q 458 908 421 881 q 518 976 494 936 z "},"Ő":{"ha":996,"x_min":58,"x_max":938,"o":"m 767 946 q 813 912 767 946 q 899 767 860 878 q 938 526 938 656 q 911 308 938 397 q 830 144 885 218 q 682 28 775 71 q 456 -14 589 -14 q 229 54 322 -14 q 97 233 136 122 q 58 474 58 344 q 85 692 58 603 q 166 856 111 782 q 314 972 221 929 q 540 1014 407 1014 q 767 946 674 1014 m 803 508 q 719 804 803 697 q 487 911 635 911 q 272 835 339 911 q 215 692 238 794 q 193 492 193 590 q 277 196 193 303 q 509 89 361 89 q 724 165 657 89 q 781 308 758 206 q 803 508 803 410 m 463 1344 l 558 1283 l 422 1081 q 374 1049 399 1049 q 310 1063 349 1049 l 463 1344 m 678 1344 l 774 1283 l 638 1081 q 589 1049 614 1049 q 525 1063 564 1049 l 678 1344 z "},"ő":{"ha":754,"x_min":56,"x_max":699,"o":"m 621 100 q 513 17 582 49 q 354 -14 444 -14 q 128 79 200 -14 q 56 333 56 172 q 133 567 56 464 q 241 649 172 618 q 400 681 310 681 q 626 588 554 681 q 699 349 699 494 q 621 100 699 203 m 579 339 q 524 522 579 456 q 370 589 468 589 q 238 555 272 589 q 190 456 204 521 q 175 328 175 392 q 231 144 175 211 q 384 78 286 78 q 516 112 482 78 q 565 210 550 146 q 579 339 579 275 m 353 1067 l 449 1006 l 313 803 q 264 771 289 771 q 200 785 239 771 l 353 1067 m 568 1067 l 664 1006 l 528 803 q 479 771 504 771 q 415 785 454 771 l 568 1067 z "},"Œ":{"ha":1410,"x_min":58,"x_max":1368,"o":"m 1368 0 l 782 0 l 782 126 q 465 -14 675 -14 q 229 54 322 -14 q 97 233 136 122 q 58 474 58 344 q 84 692 58 604 q 163 855 110 781 q 311 972 217 929 q 532 1014 406 1014 q 781 900 693 1014 l 781 1000 l 1357 1000 l 1349 761 l 1260 761 l 1251 858 q 1238 891 1250 883 q 1199 899 1225 899 l 897 899 l 897 558 l 1188 558 l 1188 457 l 897 457 l 897 101 l 1206 101 q 1244 109 1232 101 q 1258 142 1257 117 l 1267 246 l 1360 246 l 1368 0 m 467 911 q 272 835 339 911 q 215 692 238 794 q 193 492 193 590 q 277 196 193 303 q 515 89 361 89 q 715 176 639 89 q 772 529 772 275 q 703 815 772 719 q 467 911 635 911 z "},"œ":{"ha":1186,"x_min":56,"x_max":1132,"o":"m 1132 336 l 685 304 q 889 78 692 78 q 1107 118 986 78 l 1126 50 q 1028 14 1086 29 q 850 -14 932 -14 q 617 101 690 -14 q 365 -14 529 -14 q 128 79 200 -14 q 56 333 56 172 q 133 567 56 464 q 241 649 172 618 q 400 681 310 681 q 633 567 567 681 q 869 681 715 681 q 1078 595 1024 681 q 1132 336 1132 510 m 579 339 q 524 522 579 456 q 370 589 468 589 q 238 555 272 589 q 190 456 204 521 q 175 328 175 392 q 231 144 175 211 q 384 78 286 78 q 516 112 482 78 q 565 210 550 146 q 579 339 579 275 m 683 388 l 1022 417 q 990 542 1022 494 q 859 589 958 589 q 728 551 760 589 q 683 388 697 514 z "},"Ŕ":{"ha":886,"x_min":81,"x_max":914,"o":"m 550 1299 l 618 1206 l 406 1061 q 368 1047 383 1047 q 301 1088 336 1047 l 550 1299 m 314 903 l 314 551 l 438 551 q 574 586 532 551 q 629 736 629 632 q 418 903 629 903 l 314 903 m 314 454 l 314 147 q 322 108 314 119 q 356 94 331 97 l 446 83 l 446 0 l 81 0 l 81 82 l 154 94 q 187 109 179 99 q 194 147 194 119 l 194 853 q 187 891 194 881 q 154 906 179 901 l 81 918 l 81 1000 l 446 1000 q 682 943 600 1000 q 764 750 764 886 q 639 525 764 596 q 513 481 576 489 q 603 394 554 471 l 756 156 q 865 82 803 82 q 914 92 885 82 l 907 15 q 797 -14 868 -14 q 635 103 711 -14 l 449 399 q 364 454 413 454 l 314 454 z "},"ŕ":{"ha":611,"x_min":56,"x_max":597,"o":"m 167 136 l 167 533 q 161 574 167 564 q 135 586 156 585 l 58 594 l 58 667 l 257 667 l 271 528 q 352 631 292 582 q 482 681 413 681 q 597 654 551 681 l 586 479 l 506 479 l 490 568 q 439 578 471 578 q 334 526 379 578 q 276 421 289 475 l 276 136 q 282 95 276 106 q 308 83 288 85 l 410 74 l 410 0 l 56 0 l 56 75 l 135 83 q 161 95 156 85 q 167 136 167 106 m 439 1044 l 519 961 l 329 789 q 283 769 308 769 q 222 800 258 769 l 439 1044 z "},"Ŗ":{"ha":886,"x_min":81,"x_max":914,"o":"m 314 903 l 314 551 l 438 551 q 574 586 532 551 q 629 736 629 632 q 418 903 629 903 l 314 903 m 314 454 l 314 147 q 322 108 314 119 q 356 94 331 97 l 446 83 l 446 0 l 81 0 l 81 82 l 154 94 q 187 109 179 99 q 194 147 194 119 l 194 853 q 187 891 194 881 q 154 906 179 901 l 81 918 l 81 1000 l 446 1000 q 682 943 600 1000 q 764 750 764 886 q 639 525 764 596 q 513 481 576 489 q 603 394 554 471 l 756 156 q 865 82 803 82 q 914 92 885 82 l 907 15 q 797 -14 868 -14 q 635 103 711 -14 l 449 399 q 364 454 413 454 l 314 454 m 513 -50 q 601 -158 601 -50 q 563 -268 601 -212 q 471 -347 524 -324 l 439 -314 q 502 -258 475 -290 q 529 -201 529 -226 q 492 -206 518 -206 q 449 -184 467 -206 q 432 -131 432 -162 q 513 -50 432 -50 z "},"ŗ":{"ha":611,"x_min":56,"x_max":597,"o":"m 167 136 l 167 533 q 161 574 167 564 q 135 586 156 585 l 58 594 l 58 667 l 257 667 l 271 528 q 352 631 292 582 q 482 681 413 681 q 597 654 551 681 l 586 479 l 506 479 l 490 568 q 439 578 471 578 q 334 526 379 578 q 276 421 289 475 l 276 136 q 282 95 276 106 q 308 83 288 85 l 410 74 l 410 0 l 56 0 l 56 75 l 135 83 q 161 95 156 85 q 167 136 167 106 m 210 -50 q 299 -158 299 -50 q 260 -268 299 -212 q 168 -347 221 -324 l 136 -314 q 199 -258 172 -290 q 226 -201 226 -226 q 190 -206 215 -206 q 147 -184 164 -206 q 129 -131 129 -162 q 210 -50 129 -50 z "},"Ř":{"ha":886,"x_min":81,"x_max":914,"o":"m 492 1046 l 388 1046 l 228 1233 l 282 1278 l 439 1131 l 597 1278 l 650 1233 l 492 1046 m 314 903 l 314 551 l 438 551 q 574 586 532 551 q 629 736 629 632 q 418 903 629 903 l 314 903 m 314 454 l 314 147 q 322 108 314 119 q 356 94 331 97 l 446 83 l 446 0 l 81 0 l 81 82 l 154 94 q 187 109 179 99 q 194 147 194 119 l 194 853 q 187 891 194 881 q 154 906 179 901 l 81 918 l 81 1000 l 446 1000 q 682 943 600 1000 q 764 750 764 886 q 639 525 764 596 q 513 481 576 489 q 603 394 554 471 l 756 156 q 865 82 803 82 q 914 92 885 82 l 907 15 q 797 -14 868 -14 q 635 103 711 -14 l 449 399 q 364 454 413 454 l 314 454 z "},"ř":{"ha":611,"x_min":56,"x_max":597,"o":"m 167 136 l 167 533 q 161 574 167 564 q 135 586 156 585 l 58 594 l 58 667 l 257 667 l 271 528 q 352 631 292 582 q 482 681 413 681 q 597 654 551 681 l 586 479 l 506 479 l 490 568 q 439 578 471 578 q 334 526 379 578 q 276 421 289 475 l 276 136 q 282 95 276 106 q 308 83 288 85 l 410 74 l 410 0 l 56 0 l 56 75 l 135 83 q 161 95 156 85 q 167 136 167 106 m 408 769 l 304 769 l 154 978 l 207 1022 l 357 854 l 507 1022 l 561 978 l 408 769 z "},"Ś":{"ha":746,"x_min":64,"x_max":714,"o":"m 182 274 l 203 132 q 378 83 283 83 q 532 128 474 83 q 590 245 590 174 q 555 356 590 317 q 419 432 519 394 l 250 496 q 115 592 165 528 q 64 749 64 656 q 144 941 64 869 q 364 1013 224 1013 q 661 975 504 1013 l 642 760 l 542 760 l 521 885 q 358 919 446 919 q 192 765 192 919 q 228 663 192 703 q 354 592 264 624 l 472 550 q 627 473 578 513 q 695 388 676 433 q 714 281 714 342 q 620 67 714 147 q 353 -14 526 -14 q 151 17 235 -14 q 64 50 122 26 l 81 274 l 182 274 m 550 1322 l 631 1239 l 440 1067 q 394 1047 419 1047 q 333 1078 369 1047 l 550 1322 z "},"ś":{"ha":611,"x_min":60,"x_max":560,"o":"m 69 507 q 69 549 69 507 q 140 636 69 592 q 307 681 210 681 q 529 642 404 681 l 519 479 l 439 479 l 419 581 q 304 601 364 601 q 178 514 178 601 q 217 446 178 471 q 358 387 256 421 q 510 311 461 353 q 560 194 560 269 q 484 42 560 99 q 294 -14 408 -14 q 60 35 181 -14 l 69 203 l 153 203 l 165 101 q 293 72 238 72 q 447 174 447 72 q 405 242 447 214 q 262 301 363 269 q 115 377 161 332 q 69 507 69 422 m 421 1044 l 501 961 l 311 789 q 265 769 290 769 q 204 800 240 769 l 421 1044 z "},"Ŝ":{"ha":746,"x_min":64,"x_max":714,"o":"m 336 1268 l 440 1268 l 599 1081 l 546 1036 l 388 1183 l 231 1036 l 176 1081 l 336 1268 m 182 274 l 203 132 q 378 83 283 83 q 532 128 474 83 q 590 245 590 174 q 555 356 590 317 q 419 432 519 394 l 250 496 q 115 592 165 528 q 64 749 64 656 q 144 941 64 869 q 364 1013 224 1013 q 661 975 504 1013 l 642 760 l 542 760 l 521 885 q 358 919 446 919 q 192 765 192 919 q 228 663 192 703 q 354 592 264 624 l 472 550 q 627 473 578 513 q 695 388 676 433 q 714 281 714 342 q 620 67 714 147 q 353 -14 526 -14 q 151 17 235 -14 q 64 50 122 26 l 81 274 l 182 274 z "},"ŝ":{"ha":611,"x_min":60,"x_max":560,"o":"m 69 507 q 69 549 69 507 q 140 636 69 592 q 307 681 210 681 q 529 642 404 681 l 519 479 l 439 479 l 419 581 q 304 601 364 601 q 178 514 178 601 q 217 446 178 471 q 358 387 256 421 q 510 311 461 353 q 560 194 560 269 q 484 42 560 99 q 294 -14 408 -14 q 60 35 181 -14 l 69 203 l 153 203 l 165 101 q 293 72 238 72 q 447 174 447 72 q 405 242 447 214 q 262 301 363 269 q 115 377 161 332 q 69 507 69 422 m 257 1011 l 361 1011 l 511 803 l 458 758 l 308 926 l 158 758 l 104 803 l 257 1011 z "},"Ş":{"ha":746,"x_min":64,"x_max":714,"o":"m 182 274 l 203 132 q 378 83 283 83 q 532 128 474 83 q 590 245 590 174 q 555 356 590 317 q 419 432 519 394 l 250 496 q 115 592 165 528 q 64 749 64 656 q 144 941 64 869 q 364 1013 224 1013 q 661 975 504 1013 l 642 760 l 542 760 l 521 885 q 358 919 446 919 q 192 765 192 919 q 228 663 192 703 q 354 592 264 624 l 472 550 q 627 473 578 513 q 695 388 676 433 q 714 281 714 342 q 630 75 714 154 q 389 -12 546 -4 l 389 -86 l 426 -99 q 486 -132 471 -112 q 501 -186 501 -151 q 456 -285 501 -250 q 351 -319 411 -319 q 229 -290 292 -319 l 246 -236 q 346 -256 294 -256 q 414 -189 414 -256 q 399 -157 414 -168 q 351 -139 383 -146 l 300 -128 l 321 -12 q 64 50 204 -8 l 81 274 l 182 274 z "},"ş":{"ha":611,"x_min":60,"x_max":560,"o":"m 69 507 q 69 549 69 507 q 140 636 69 592 q 307 681 210 681 q 529 642 404 681 l 519 479 l 439 479 l 419 581 q 304 601 364 601 q 178 514 178 601 q 217 446 178 471 q 358 387 256 421 q 510 311 461 353 q 560 186 560 269 q 492 48 560 103 q 322 -12 424 -7 l 322 -86 l 360 -99 q 419 -132 404 -112 q 435 -186 435 -151 q 390 -285 435 -250 q 285 -319 344 -319 q 163 -290 225 -319 l 179 -236 q 279 -256 228 -256 q 347 -189 347 -256 q 332 -157 347 -168 q 285 -139 317 -146 l 233 -128 l 254 -12 q 60 35 158 -6 l 69 203 l 153 203 l 165 101 q 293 72 238 72 q 447 174 447 72 q 405 242 447 214 q 262 301 363 269 q 115 377 161 332 q 69 507 69 422 z "},"Š":{"ha":746,"x_min":64,"x_max":714,"o":"m 442 1047 l 338 1047 l 178 1235 l 232 1279 l 389 1132 l 547 1279 l 600 1235 l 442 1047 m 182 274 l 203 132 q 378 83 283 83 q 532 128 474 83 q 590 245 590 174 q 555 356 590 317 q 419 432 519 394 l 250 496 q 115 592 165 528 q 64 749 64 656 q 144 941 64 869 q 364 1013 224 1013 q 661 975 504 1013 l 642 760 l 542 760 l 521 885 q 358 919 446 919 q 192 765 192 919 q 228 663 192 703 q 354 592 264 624 l 472 550 q 627 473 578 513 q 695 388 676 433 q 714 281 714 342 q 620 67 714 147 q 353 -14 526 -14 q 151 17 235 -14 q 64 50 122 26 l 81 274 l 182 274 z "},"š":{"ha":611,"x_min":60,"x_max":560,"o":"m 69 507 q 69 549 69 507 q 140 636 69 592 q 307 681 210 681 q 529 642 404 681 l 519 479 l 439 479 l 419 581 q 304 601 364 601 q 178 514 178 601 q 217 446 178 471 q 358 387 256 421 q 510 311 461 353 q 560 194 560 269 q 484 42 560 99 q 294 -14 408 -14 q 60 35 181 -14 l 69 203 l 153 203 l 165 101 q 293 72 238 72 q 447 174 447 72 q 405 242 447 214 q 262 301 363 269 q 115 377 161 332 q 69 507 69 422 m 363 769 l 258 769 l 108 978 l 161 1022 l 311 854 l 461 1022 l 515 978 l 363 769 z "},"Ţ":{"ha":842,"x_min":10,"x_max":832,"o":"m 674 903 l 481 903 l 481 147 q 488 109 481 119 q 521 94 496 99 l 600 82 l 600 0 l 447 0 l 447 -86 l 485 -99 q 544 -132 529 -112 q 560 -186 560 -151 q 515 -285 560 -250 q 410 -319 469 -319 q 288 -290 350 -319 l 304 -236 q 404 -256 353 -256 q 472 -189 472 -256 q 457 -157 472 -168 q 410 -139 442 -146 l 358 -128 l 381 0 l 242 0 l 242 82 l 321 94 q 353 109 346 99 q 361 147 361 119 l 361 903 l 167 903 q 128 895 140 903 q 115 863 117 888 l 107 761 l 18 761 l 10 1000 l 832 1000 l 824 761 l 735 761 l 726 863 q 713 895 725 888 q 674 903 700 903 z "},"ţ":{"ha":492,"x_min":28,"x_max":474,"o":"m 28 588 l 28 654 l 132 667 l 132 790 l 242 815 l 242 667 l 426 681 l 426 588 l 242 588 l 242 272 q 266 117 242 161 q 375 74 290 74 q 474 83 411 74 l 461 13 q 390 -6 442 3 q 300 -14 339 -14 l 300 -86 l 338 -99 q 397 -132 382 -112 q 413 -186 413 -151 q 367 -285 413 -250 q 263 -319 322 -319 q 140 -290 203 -319 l 157 -236 q 257 -256 206 -256 q 325 -189 325 -256 q 310 -157 325 -168 q 263 -139 294 -146 l 211 -128 l 233 -6 q 176 24 197 4 q 144 83 154 44 q 132 251 132 139 l 132 588 l 28 588 z "},"Ť":{"ha":842,"x_min":10,"x_max":832,"o":"m 474 1047 l 369 1047 l 210 1235 l 264 1279 l 421 1132 l 579 1279 l 632 1235 l 474 1047 m 674 903 l 481 903 l 481 147 q 488 109 481 119 q 521 94 496 99 l 600 82 l 600 0 l 242 0 l 242 82 l 321 94 q 353 109 346 99 q 361 147 361 119 l 361 903 l 167 903 q 128 895 140 903 q 115 863 117 888 l 107 761 l 18 761 l 10 1000 l 832 1000 l 824 761 l 735 761 l 726 863 q 713 895 725 888 q 674 903 700 903 z "},"ť":{"ha":561,"x_min":28,"x_max":515,"o":"m 515 958 q 378 739 515 824 l 340 779 q 400 831 371 796 q 429 896 429 865 q 399 895 424 894 q 355 917 374 896 q 336 969 336 938 q 418 1054 336 1054 q 490 1028 465 1054 q 515 958 515 1001 m 28 588 l 28 654 l 132 667 l 132 790 l 242 815 l 242 667 l 426 681 l 426 588 l 242 588 l 242 272 q 266 117 242 161 q 375 74 290 74 q 474 83 411 74 l 461 13 q 390 -6 442 3 q 295 -14 339 -14 q 219 -1 251 -14 q 170 31 188 13 q 144 89 153 50 q 132 251 132 140 l 132 588 l 28 588 z "},"Ŧ":{"ha":842,"x_min":10,"x_max":832,"o":"m 674 903 l 481 903 l 481 550 l 710 550 l 710 460 l 481 460 l 481 147 q 488 109 481 119 q 521 94 496 99 l 600 82 l 600 0 l 242 0 l 242 82 l 321 94 q 353 109 346 99 q 361 147 361 119 l 361 460 l 132 460 l 132 550 l 361 550 l 361 903 l 167 903 q 128 895 140 903 q 115 863 117 888 l 107 761 l 18 761 l 10 1000 l 832 1000 l 824 761 l 735 761 l 726 863 q 713 895 725 888 q 674 903 700 903 z "},"ŧ":{"ha":492,"x_min":28,"x_max":474,"o":"m 28 588 l 28 654 l 132 667 l 132 790 l 242 815 l 242 667 l 426 681 l 426 588 l 242 588 l 242 413 l 414 413 l 414 329 l 242 329 l 242 272 q 266 117 242 161 q 375 74 290 74 q 474 83 411 74 l 461 13 q 390 -6 442 3 q 295 -14 339 -14 q 219 -1 251 -14 q 170 31 188 13 q 144 89 153 50 q 132 251 132 140 l 132 329 l 33 329 l 33 413 l 132 413 l 132 588 l 28 588 z "},"Ũ":{"ha":1001,"x_min":39,"x_max":965,"o":"m 851 853 l 851 322 q 794 128 851 206 q 488 -14 694 -14 q 238 73 322 -14 q 153 322 153 160 l 153 853 q 145 891 153 881 q 113 906 138 901 l 39 918 l 39 1000 l 386 1000 l 386 918 l 313 906 q 280 891 288 901 q 272 853 272 881 l 272 344 q 531 97 272 97 q 684 147 631 97 q 738 356 738 197 l 738 853 q 730 891 738 881 q 697 906 722 901 l 624 918 l 624 1000 l 965 1000 l 965 918 l 892 906 q 859 891 867 901 q 851 853 851 881 m 601 1075 q 502 1101 564 1075 q 404 1126 440 1126 q 315 1083 368 1126 l 294 1142 q 419 1222 351 1222 q 522 1198 461 1222 q 621 1174 583 1174 q 703 1211 658 1174 l 725 1156 q 601 1075 669 1075 z "},"ũ":{"ha":842,"x_min":38,"x_max":799,"o":"m 579 193 l 579 533 q 574 574 579 564 q 547 586 568 585 l 471 594 l 471 667 l 689 667 l 689 136 q 694 95 689 106 q 721 83 700 85 l 799 75 l 799 0 l 599 0 l 588 106 q 360 -14 486 -14 q 201 38 257 -14 q 146 185 146 89 l 146 533 q 140 574 146 564 q 114 586 135 585 l 38 594 l 38 667 l 256 667 l 256 222 q 392 89 256 89 q 510 127 456 89 q 579 193 564 165 m 494 797 q 395 823 457 797 q 297 849 333 849 q 208 806 261 849 l 188 864 q 313 944 244 944 q 415 920 354 944 q 514 896 476 896 q 596 933 551 896 l 618 878 q 494 797 563 797 z "},"Ū":{"ha":1001,"x_min":39,"x_max":965,"o":"m 851 853 l 851 322 q 794 128 851 206 q 488 -14 694 -14 q 238 73 322 -14 q 153 322 153 160 l 153 853 q 145 891 153 881 q 113 906 138 901 l 39 918 l 39 1000 l 386 1000 l 386 918 l 313 906 q 280 891 288 901 q 272 853 272 881 l 272 344 q 531 97 272 97 q 684 147 631 97 q 738 356 738 197 l 738 853 q 730 891 738 881 q 697 906 722 901 l 624 918 l 624 1000 l 965 1000 l 965 918 l 892 906 q 859 891 867 901 q 851 853 851 881 m 315 1122 l 329 1219 l 700 1219 l 686 1122 l 315 1122 z "},"ū":{"ha":842,"x_min":38,"x_max":799,"o":"m 579 193 l 579 533 q 574 574 579 564 q 547 586 568 585 l 471 594 l 471 667 l 689 667 l 689 136 q 694 95 689 106 q 721 83 700 85 l 799 75 l 799 0 l 599 0 l 588 106 q 360 -14 486 -14 q 201 38 257 -14 q 146 185 146 89 l 146 533 q 140 574 146 564 q 114 586 135 585 l 38 594 l 38 667 l 256 667 l 256 222 q 392 89 256 89 q 510 127 456 89 q 579 193 564 165 m 215 844 l 229 942 l 600 942 l 586 844 l 215 844 z "},"Ŭ":{"ha":1001,"x_min":39,"x_max":965,"o":"m 851 853 l 851 322 q 794 128 851 206 q 488 -14 694 -14 q 238 73 322 -14 q 153 322 153 160 l 153 853 q 145 891 153 881 q 113 906 138 901 l 39 918 l 39 1000 l 386 1000 l 386 918 l 313 906 q 280 891 288 901 q 272 853 272 881 l 272 344 q 531 97 272 97 q 684 147 631 97 q 738 356 738 197 l 738 853 q 730 891 738 881 q 697 906 722 901 l 624 918 l 624 1000 l 965 1000 l 965 918 l 892 906 q 859 891 867 901 q 851 853 851 881 m 644 1254 l 711 1233 q 635 1113 689 1160 q 503 1067 582 1067 q 370 1113 424 1067 q 294 1233 317 1160 l 361 1254 q 422 1186 385 1214 q 503 1158 458 1158 q 584 1186 547 1158 q 644 1254 621 1214 z "},"ŭ":{"ha":842,"x_min":38,"x_max":799,"o":"m 579 193 l 579 533 q 574 574 579 564 q 547 586 568 585 l 471 594 l 471 667 l 689 667 l 689 136 q 694 95 689 106 q 721 83 700 85 l 799 75 l 799 0 l 599 0 l 588 106 q 360 -14 486 -14 q 201 38 257 -14 q 146 185 146 89 l 146 533 q 140 574 146 564 q 114 586 135 585 l 38 594 l 38 667 l 256 667 l 256 222 q 392 89 256 89 q 510 127 456 89 q 579 193 564 165 m 544 976 l 611 956 q 535 835 589 882 q 403 789 482 789 q 270 835 324 789 q 194 956 217 882 l 261 976 q 322 908 285 936 q 403 881 358 881 q 484 908 447 881 q 544 976 521 936 z "},"Ů":{"ha":1001,"x_min":39,"x_max":965,"o":"m 851 853 l 851 322 q 794 128 851 206 q 488 -14 694 -14 q 238 73 322 -14 q 153 322 153 160 l 153 853 q 145 891 153 881 q 113 906 138 901 l 39 918 l 39 1000 l 386 1000 l 386 918 l 313 906 q 280 891 288 901 q 272 853 272 881 l 272 344 q 531 97 272 97 q 684 147 631 97 q 738 356 738 197 l 738 853 q 730 891 738 881 q 697 906 722 901 l 624 918 l 624 1000 l 965 1000 l 965 918 l 892 906 q 859 891 867 901 q 851 853 851 881 m 601 1270 q 618 1251 601 1270 q 635 1181 635 1232 q 597 1089 635 1129 q 499 1049 560 1049 q 403 1087 438 1049 q 369 1176 369 1125 q 407 1268 369 1228 q 506 1308 444 1308 q 601 1270 567 1308 m 565 1183 q 547 1225 565 1208 q 501 1242 528 1242 q 439 1172 439 1242 q 458 1131 439 1147 q 503 1114 476 1114 q 565 1183 565 1114 z "},"ů":{"ha":842,"x_min":38,"x_max":799,"o":"m 579 193 l 579 533 q 574 574 579 564 q 547 586 568 585 l 471 594 l 471 667 l 689 667 l 689 136 q 694 95 689 106 q 721 83 700 85 l 799 75 l 799 0 l 599 0 l 588 106 q 360 -14 486 -14 q 201 38 257 -14 q 146 185 146 89 l 146 533 q 140 574 146 564 q 114 586 135 585 l 38 594 l 38 667 l 256 667 l 256 222 q 392 89 256 89 q 510 127 456 89 q 579 193 564 165 m 501 992 q 518 973 501 992 q 535 903 535 954 q 497 811 535 851 q 399 771 460 771 q 303 809 338 771 q 269 899 269 847 q 307 990 269 950 q 406 1031 344 1031 q 501 992 467 1031 m 465 906 q 447 947 465 931 q 401 964 428 964 q 339 894 339 964 q 358 853 339 869 q 403 836 376 836 q 465 906 465 836 z "},"Ű":{"ha":1001,"x_min":39,"x_max":965,"o":"m 851 853 l 851 322 q 794 128 851 206 q 488 -14 694 -14 q 238 73 322 -14 q 153 322 153 160 l 153 853 q 145 891 153 881 q 113 906 138 901 l 39 918 l 39 1000 l 386 1000 l 386 918 l 313 906 q 280 891 288 901 q 272 853 272 881 l 272 344 q 531 97 272 97 q 684 147 631 97 q 738 356 738 197 l 738 853 q 730 891 738 881 q 697 906 722 901 l 624 918 l 624 1000 l 965 1000 l 965 918 l 892 906 q 859 891 867 901 q 851 853 851 881 m 490 1344 l 586 1283 l 450 1081 q 401 1049 426 1049 q 338 1063 376 1049 l 490 1344 m 706 1344 l 801 1283 l 665 1081 q 617 1049 642 1049 q 553 1063 592 1049 l 706 1344 z "},"ű":{"ha":842,"x_min":38,"x_max":799,"o":"m 579 193 l 579 533 q 574 574 579 564 q 547 586 568 585 l 471 594 l 471 667 l 689 667 l 689 136 q 694 95 689 106 q 721 83 700 85 l 799 75 l 799 0 l 599 0 l 588 106 q 360 -14 486 -14 q 201 38 257 -14 q 146 185 146 89 l 146 533 q 140 574 146 564 q 114 586 135 585 l 38 594 l 38 667 l 256 667 l 256 222 q 392 89 256 89 q 510 127 456 89 q 579 193 564 165 m 347 1067 l 443 1006 l 307 803 q 258 771 283 771 q 194 785 233 771 l 347 1067 m 563 1067 l 658 1006 l 522 803 q 474 771 499 771 q 410 785 449 771 l 563 1067 z "},"Ų":{"ha":1001,"x_min":39,"x_max":965,"o":"m 851 853 l 851 322 q 781 108 851 188 q 603 0 711 28 q 554 -30 593 -4 q 499 -69 515 -56 q 432 -157 432 -121 q 450 -215 432 -193 q 498 -236 468 -236 q 590 -218 528 -236 l 607 -275 q 588 -283 606 -275 q 556 -297 569 -292 q 472 -312 510 -312 q 376 -272 411 -312 q 340 -185 340 -232 q 360 -107 340 -139 q 401 -59 381 -75 q 467 -14 422 -43 q 232 78 311 -8 q 153 322 153 165 l 153 853 q 145 891 153 881 q 113 906 138 901 l 39 918 l 39 1000 l 386 1000 l 386 918 l 313 906 q 280 891 288 901 q 272 853 272 881 l 272 344 q 531 97 272 97 q 684 147 631 97 q 738 356 738 197 l 738 853 q 730 891 738 881 q 697 906 722 901 l 624 918 l 624 1000 l 965 1000 l 965 918 l 892 906 q 859 891 867 901 q 851 853 851 881 z "},"ų":{"ha":842,"x_min":38,"x_max":799,"o":"m 532 -184 q 532 -160 532 -184 q 545 -117 532 -136 q 565 -87 558 -97 q 591 -63 572 -78 q 616 -43 610 -49 q 647 -21 622 -37 q 678 0 672 -4 l 599 0 l 588 106 q 360 -14 486 -14 q 201 38 257 -14 q 146 185 146 89 l 146 533 q 140 574 146 564 q 114 586 135 585 l 38 594 l 38 667 l 256 667 l 256 222 q 392 89 256 89 q 510 127 456 89 q 579 193 564 165 l 579 533 q 574 574 579 564 q 547 586 568 585 l 471 594 l 471 667 l 689 667 l 689 136 q 694 95 689 106 q 721 83 700 85 l 799 75 l 799 0 l 794 0 q 746 -30 785 -4 q 690 -69 707 -56 q 624 -157 624 -121 q 642 -215 624 -193 q 690 -236 660 -236 q 782 -218 719 -236 l 799 -275 q 779 -283 797 -275 q 747 -297 761 -292 q 664 -312 701 -312 q 567 -272 603 -312 q 532 -184 532 -232 z "},"Ŵ":{"ha":1307,"x_min":-4,"x_max":1307,"o":"m 622 1268 l 726 1268 l 885 1081 l 832 1036 l 674 1183 l 517 1036 l 463 1081 l 622 1268 m 1196 853 l 1013 0 l 844 0 l 665 726 l 490 0 l 321 0 l 126 853 q 101 897 119 886 q 50 913 82 908 l -4 918 l -4 1000 l 371 1000 l 371 919 l 292 911 q 261 903 269 910 q 253 885 253 896 q 256 853 253 875 l 415 133 l 599 897 l 751 897 l 938 133 l 1088 853 q 1089 876 1089 861 q 1043 911 1089 906 l 969 919 l 969 1000 l 1307 1000 l 1307 918 l 1258 913 q 1228 906 1239 910 q 1196 853 1206 899 z "},"ŵ":{"ha":1057,"x_min":1,"x_max":1043,"o":"m 228 533 l 324 183 l 338 106 l 353 183 l 475 596 l 583 596 l 710 183 l 726 99 l 740 183 l 836 533 q 843 563 843 554 q 810 588 843 583 l 739 596 l 739 667 l 1043 667 l 1043 594 l 982 586 q 935 533 950 582 l 772 0 l 658 0 l 531 401 l 519 457 l 508 401 l 385 0 l 271 0 l 110 533 q 103 550 104 544 q 99 560 101 556 q 96 567 97 565 q 92 573 94 569 q 86 578 89 576 q 81 581 83 579 q 63 586 72 586 l 1 594 l 1 667 l 322 667 l 322 596 l 251 588 q 219 564 219 583 q 228 533 219 561 m 471 1011 l 575 1011 l 725 803 l 672 758 l 522 926 l 372 758 l 318 803 l 471 1011 z "},"Ŷ":{"ha":931,"x_min":-6,"x_max":928,"o":"m 422 1268 l 526 1268 l 685 1081 l 632 1036 l 474 1183 l 317 1036 l 263 1081 l 422 1268 m 406 353 l 131 853 q 96 895 113 883 q 47 911 79 907 l -6 918 l -6 1000 l 368 1000 l 368 919 l 299 911 q 254 885 254 904 q 265 853 254 875 l 483 460 l 692 853 q 701 882 701 871 q 653 910 701 903 l 583 918 l 583 1000 l 928 1000 l 928 918 l 875 911 q 835 897 847 907 q 806 853 824 886 l 525 356 l 525 147 q 533 109 525 119 q 565 94 540 99 l 644 82 l 644 0 l 286 0 l 286 82 l 365 94 q 398 109 390 99 q 406 147 406 119 l 406 353 z "},"ŷ":{"ha":726,"x_min":-19,"x_max":731,"o":"m 669 586 q 629 550 643 583 q 353 -181 622 533 q 146 -347 293 -347 q 21 -331 68 -347 l 7 -249 q 107 -260 78 -260 q 205 -223 161 -260 q 274 -118 249 -186 l 306 -31 l 89 533 q 82 550 83 544 q 78 560 81 556 q 75 567 76 565 q 71 573 74 569 q 65 578 68 576 q 58 581 63 579 q 42 586 51 586 l -19 594 l -19 667 l 303 667 l 303 596 l 232 588 q 200 564 200 583 q 208 533 200 554 l 368 106 l 524 533 q 531 563 531 554 q 497 588 531 583 l 426 596 l 426 667 l 731 667 l 731 594 l 669 586 m 313 1011 l 417 1011 l 567 803 l 514 758 l 364 926 l 214 758 l 160 803 l 313 1011 z "},"Ÿ":{"ha":931,"x_min":-6,"x_max":928,"o":"m 406 353 l 131 853 q 96 895 113 883 q 47 911 79 907 l -6 918 l -6 1000 l 368 1000 l 368 919 l 299 911 q 254 885 254 904 q 265 853 254 875 l 483 460 l 692 853 q 701 882 701 871 q 653 910 701 903 l 583 918 l 583 1000 l 928 1000 l 928 918 l 875 911 q 835 897 847 907 q 806 853 824 886 l 525 356 l 525 147 q 533 109 525 119 q 565 94 540 99 l 644 82 l 644 0 l 286 0 l 286 82 l 365 94 q 398 109 390 99 q 406 147 406 119 l 406 353 m 333 1239 q 355 1239 333 1239 q 392 1220 378 1239 q 406 1158 406 1201 q 387 1099 406 1114 q 325 1083 368 1083 q 266 1100 282 1083 q 250 1158 250 1117 q 269 1219 250 1200 q 333 1239 288 1239 m 617 1239 q 640 1239 617 1239 q 676 1220 663 1239 q 690 1158 690 1201 q 672 1099 690 1114 q 610 1083 653 1083 q 551 1100 567 1083 q 535 1158 535 1117 q 553 1219 535 1200 q 617 1239 572 1239 z "},"Ź":{"ha":867,"x_min":81,"x_max":821,"o":"m 636 1299 l 704 1206 l 492 1061 q 454 1047 469 1047 q 388 1088 422 1047 l 636 1299 m 651 903 l 263 903 q 224 895 236 903 q 210 863 211 888 l 201 765 l 110 765 l 101 1000 l 793 1000 l 793 903 l 222 101 l 658 101 q 697 109 685 101 q 711 142 710 117 l 719 246 l 813 246 l 821 0 l 81 0 l 81 101 l 651 903 z "},"ź":{"ha":657,"x_min":60,"x_max":643,"o":"m 488 582 l 217 582 q 175 576 186 582 q 163 550 164 571 l 153 460 l 78 460 l 68 667 l 626 667 l 626 586 l 199 88 l 494 88 q 536 93 525 88 q 549 119 547 99 l 558 221 l 635 221 l 643 0 l 60 0 l 60 83 l 488 582 m 419 1058 l 500 975 l 310 803 q 264 783 289 783 q 203 814 239 783 l 419 1058 z "},"Ż":{"ha":867,"x_min":81,"x_max":821,"o":"m 651 903 l 263 903 q 224 895 236 903 q 210 863 211 888 l 201 765 l 110 765 l 101 1000 l 793 1000 l 793 903 l 222 101 l 658 101 q 697 109 685 101 q 711 142 710 117 l 719 246 l 813 246 l 821 0 l 81 0 l 81 101 l 651 903 m 455 1257 q 479 1257 455 1257 q 517 1237 503 1257 q 532 1171 532 1217 q 513 1109 532 1125 q 447 1093 493 1093 q 385 1111 401 1093 q 368 1172 368 1129 q 388 1236 368 1215 q 455 1257 407 1257 z "},"ż":{"ha":657,"x_min":60,"x_max":643,"o":"m 488 582 l 217 582 q 175 576 186 582 q 163 550 164 571 l 153 460 l 78 460 l 68 667 l 626 667 l 626 586 l 199 88 l 494 88 q 536 93 525 88 q 549 119 547 99 l 558 221 l 635 221 l 643 0 l 60 0 l 60 83 l 488 582 m 356 979 q 380 979 356 979 q 419 959 404 979 q 433 893 433 939 q 414 831 433 847 q 349 815 394 815 q 286 833 303 815 q 269 894 269 851 q 289 958 269 938 q 356 979 308 979 z "},"Ž":{"ha":867,"x_min":81,"x_max":821,"o":"m 504 1047 l 400 1047 l 240 1235 l 294 1279 l 451 1132 l 610 1279 l 663 1235 l 504 1047 m 651 903 l 263 903 q 224 895 236 903 q 210 863 211 888 l 201 765 l 110 765 l 101 1000 l 793 1000 l 793 903 l 222 101 l 658 101 q 697 109 685 101 q 711 142 710 117 l 719 246 l 813 246 l 821 0 l 81 0 l 81 101 l 651 903 z "},"ž":{"ha":699,"x_min":60,"x_max":643,"o":"m 488 582 l 217 582 q 175 576 186 582 q 163 550 164 571 l 153 460 l 78 460 l 68 667 l 626 667 l 626 586 l 199 88 l 494 88 q 536 93 525 88 q 549 119 547 99 l 558 221 l 635 221 l 643 0 l 60 0 l 60 83 l 488 582 m 401 769 l 297 769 l 147 978 l 200 1022 l 350 854 l 500 1022 l 554 978 l 401 769 z "},"ſ":{"ha":485,"x_min":42,"x_max":557,"o":"m 153 136 l 153 819 q 224 1026 153 956 q 417 1097 296 1097 q 557 1071 486 1097 l 515 968 q 485 978 510 969 q 371 1000 425 1000 q 290 972 317 1000 q 263 897 263 944 l 263 136 q 268 95 263 106 q 294 83 274 85 l 403 74 l 403 0 l 42 0 l 42 75 l 121 83 q 147 95 142 85 q 153 136 153 106 z "},"ƒ":{"ha":557,"x_min":14,"x_max":606,"o":"m 88 551 l 199 563 l 201 563 l 201 771 q 270 978 201 907 q 456 1049 339 1049 q 606 1008 536 1049 l 558 906 q 540 915 556 907 q 514 928 524 924 q 486 939 504 932 q 409 951 456 951 q 339 924 363 951 q 315 849 315 896 l 315 563 l 493 576 l 479 476 l 315 476 l 315 15 q 267 -196 315 -133 q 71 -308 219 -258 l 14 -237 q 92 -204 61 -219 q 145 -167 124 -189 q 178 -128 167 -144 q 194 -72 189 -111 q 201 82 201 -25 l 201 476 l 88 476 l 88 551 z "},"Ơ":{"ha":996,"x_min":58,"x_max":1032,"o":"m 831 144 q 682 28 775 71 q 456 -14 589 -14 q 229 54 322 -14 q 97 233 136 122 q 58 474 58 344 q 85 692 58 603 q 166 856 111 782 q 314 972 221 929 q 531 1014 407 1014 q 831 886 726 1014 q 918 1010 918 919 q 907 1081 918 1022 l 1022 1097 q 1032 1021 1032 1061 q 869 829 1032 889 q 938 496 938 703 q 831 144 938 289 m 803 508 q 719 804 803 697 q 487 911 635 911 q 272 835 339 911 q 215 692 238 794 q 193 492 193 590 q 277 196 193 303 q 509 89 361 89 q 724 165 657 89 q 781 308 758 206 q 803 508 803 410 z "},"ơ":{"ha":808,"x_min":56,"x_max":811,"o":"m 653 546 q 699 333 699 464 q 621 100 699 203 q 513 17 582 49 q 354 -14 444 -14 q 128 79 200 -14 q 56 333 56 172 q 133 567 56 464 q 241 649 172 618 q 400 681 310 681 q 613 603 535 681 q 697 725 697 635 q 686 796 697 738 l 801 813 q 811 736 811 776 q 653 546 811 607 m 579 339 q 524 522 579 456 q 370 589 468 589 q 238 555 272 589 q 190 456 204 521 q 175 328 175 392 q 231 144 175 211 q 384 78 286 78 q 516 112 482 78 q 565 210 550 146 q 579 339 579 275 z "},"Ư":{"ha":1038,"x_min":40,"x_max":1061,"o":"m 936 1140 l 1051 1157 q 1061 1081 1061 1121 q 1001 947 1061 997 q 854 875 942 897 q 853 853 853 869 l 853 322 q 797 128 853 206 q 489 -14 696 -14 q 239 73 324 -14 q 154 322 154 160 l 154 853 q 147 891 154 881 q 114 906 139 901 l 40 918 l 40 1000 l 388 1000 l 388 918 l 314 906 q 281 891 289 901 q 274 853 274 881 l 274 344 q 532 97 274 97 q 685 147 632 97 q 739 356 739 197 l 739 853 q 731 891 739 881 q 699 906 724 901 l 625 918 l 625 1000 l 931 1000 q 947 1056 947 1031 q 936 1140 947 1082 z "},"ư":{"ha":894,"x_min":31,"x_max":896,"o":"m 572 193 l 572 533 q 567 574 572 564 q 540 586 561 585 l 464 594 l 464 667 l 682 667 l 682 597 q 782 725 782 629 q 771 796 782 738 l 886 813 q 896 736 896 776 q 833 601 896 651 q 682 529 771 550 l 682 136 q 688 95 682 106 q 714 83 693 85 l 792 75 l 792 0 l 592 0 l 581 106 q 353 -14 479 -14 q 194 38 250 -14 q 139 185 139 89 l 139 533 q 133 574 139 564 q 107 586 128 585 l 31 594 l 31 667 l 249 667 l 249 222 q 385 89 249 89 q 503 127 449 89 q 572 193 557 165 z "},"ǰ":{"ha":401,"x_min":-32,"x_max":386,"o":"m 153 35 l 153 533 q 147 574 153 564 q 121 586 142 585 l 44 594 l 44 667 l 263 667 l 263 -4 q 247 -161 263 -108 q 185 -255 231 -214 q 36 -347 140 -296 l -32 -292 q 90 -203 56 -237 q 138 -118 124 -169 q 153 35 153 -67 m 233 769 l 129 769 l -21 978 l 32 1022 l 182 854 l 332 1022 l 386 978 l 233 769 z "},"Ǻ":{"ha":913,"x_min":-25,"x_max":939,"o":"m 585 1064 q 522 951 585 990 l 818 156 q 844 109 831 121 q 885 92 857 97 l 939 82 l 939 0 l 582 0 l 582 79 l 658 92 q 694 125 694 97 q 689 153 694 138 l 631 315 l 257 315 l 201 157 q 196 128 196 142 q 233 92 196 97 l 308 79 l 308 0 l -25 0 l -25 82 l 28 92 q 68 109 56 97 q 93 156 81 121 l 388 944 q 319 1060 319 978 q 357 1151 319 1111 q 456 1192 394 1192 q 551 1153 517 1192 q 585 1064 585 1115 m 464 781 l 443 854 l 422 781 l 292 413 l 596 413 l 464 781 m 619 1475 l 688 1382 l 475 1238 q 438 1224 453 1224 q 371 1264 406 1224 l 619 1475 m 515 1067 q 497 1108 515 1092 q 451 1125 478 1125 q 389 1056 389 1125 q 408 1014 389 1031 q 453 997 426 997 q 515 1067 515 997 z "},"ǻ":{"ha":732,"x_min":51,"x_max":685,"o":"m 394 1315 l 463 1222 l 250 1078 q 213 1064 228 1064 q 146 1104 181 1064 l 394 1315 m 575 489 l 575 136 q 581 95 575 106 q 607 83 586 85 l 685 75 l 685 0 l 482 0 l 471 108 q 226 -14 356 -14 q 99 35 147 -14 q 51 166 51 85 q 100 299 51 247 q 240 363 149 350 l 465 393 l 465 486 q 315 597 465 597 q 193 571 251 597 l 174 469 l 93 469 l 83 629 q 328 681 226 681 q 502 633 429 681 q 575 489 575 586 m 465 318 l 272 286 q 194 250 222 279 q 167 176 167 221 q 195 108 167 132 q 268 85 224 85 q 465 194 343 85 l 465 318 m 406 992 q 423 973 406 992 q 440 903 440 954 q 403 811 440 851 q 304 771 365 771 q 209 809 243 771 q 175 899 175 847 q 213 990 175 950 q 311 1031 250 1031 q 406 992 372 1031 m 371 906 q 352 947 371 931 q 307 964 333 964 q 244 894 244 964 q 263 853 244 869 q 308 836 282 836 q 371 906 371 836 z "},"Ǽ":{"ha":1318,"x_min":32,"x_max":1236,"o":"m 876 1299 l 944 1206 l 732 1061 q 694 1047 710 1047 q 628 1088 663 1047 l 876 1299 m 360 922 l 360 1000 l 1218 1000 l 1210 761 l 1121 761 l 1113 858 q 1099 891 1111 883 q 1060 899 1086 899 l 764 899 l 764 519 l 1068 519 l 1068 422 l 764 422 l 764 101 l 1074 101 q 1113 109 1100 101 q 1126 142 1125 117 l 1135 246 l 1228 246 l 1236 0 l 535 0 l 535 83 l 608 96 q 641 110 633 100 q 649 149 649 121 l 649 421 l 363 421 l 264 157 q 257 128 257 139 q 296 92 257 99 l 371 79 l 371 0 l 32 0 l 32 82 l 90 92 q 131 109 118 97 q 156 156 143 121 l 447 911 q 433 915 446 913 l 360 922 m 649 518 l 649 843 q 641 884 649 871 q 608 899 633 897 l 543 903 l 399 518 l 649 518 z "},"ǽ":{"ha":1069,"x_min":51,"x_max":1015,"o":"m 1015 336 l 571 304 q 772 78 574 78 q 990 118 869 78 l 1010 50 q 911 14 969 29 q 733 -14 815 -14 q 494 106 557 -14 q 429 50 460 72 q 343 7 399 28 q 217 -14 288 -14 q 99 35 147 -14 q 51 164 51 85 q 94 292 51 243 q 203 353 138 340 q 366 380 268 367 q 465 393 464 393 l 465 486 q 315 597 465 597 q 193 571 251 597 l 174 469 l 93 469 l 83 629 q 319 681 226 681 q 540 590 478 681 q 763 681 618 681 q 961 595 907 681 q 1015 336 1015 510 m 569 388 l 906 417 q 874 542 906 494 q 753 589 842 589 q 663 581 694 589 q 610 547 631 574 q 583 488 590 521 q 569 388 576 454 m 257 281 q 167 175 167 263 q 194 109 167 133 q 269 85 222 85 q 374 113 317 85 q 465 178 432 142 l 465 315 q 428 308 461 314 q 257 281 304 290 m 685 1058 l 765 975 l 575 803 q 529 783 554 783 q 468 814 504 783 l 685 1058 z "},"Ǿ":{"ha":996,"x_min":58,"x_max":938,"o":"m 269 -74 l 193 -37 l 233 50 q 58 500 58 169 q 167 856 58 711 q 314 972 221 929 q 509 1014 407 1014 q 674 993 611 1014 l 710 1069 l 786 1033 l 750 957 q 938 500 938 842 q 831 144 938 289 q 682 28 775 71 q 486 -14 589 -14 q 308 11 383 -14 l 269 -74 m 803 508 q 693 833 803 728 l 361 124 q 515 89 428 89 q 724 165 657 89 q 781 308 758 206 q 803 508 803 410 m 481 911 q 272 835 339 911 q 215 692 238 794 q 193 492 193 590 q 293 176 193 281 l 622 882 q 481 911 560 911 m 669 1299 l 738 1206 l 525 1061 q 488 1047 503 1047 q 421 1088 456 1047 l 669 1299 z "},"ǿ":{"ha":754,"x_min":56,"x_max":699,"o":"m 208 -75 l 139 -43 l 175 35 q 56 333 56 119 q 133 567 56 464 q 241 649 172 618 q 400 681 310 681 q 474 674 435 681 l 504 739 l 574 707 l 547 650 q 699 333 699 575 q 621 100 699 203 q 513 17 582 49 q 369 -14 444 -14 q 244 1 294 -14 l 208 -75 m 579 339 q 499 546 579 482 l 289 99 q 389 78 333 78 q 516 112 482 78 q 565 210 550 146 q 579 339 579 275 m 365 589 q 238 555 272 589 q 190 456 204 521 q 175 328 175 392 q 228 147 175 213 l 431 581 q 365 589 400 589 m 517 1044 l 597 961 l 407 789 q 361 769 386 769 q 300 800 336 769 l 517 1044 z "},"Ș":{"ha":746,"x_min":64,"x_max":714,"o":"m 182 274 l 203 132 q 378 83 283 83 q 532 128 474 83 q 590 245 590 174 q 555 356 590 317 q 419 432 519 394 l 250 496 q 115 592 165 528 q 64 749 64 656 q 144 941 64 869 q 364 1013 224 1013 q 661 975 504 1013 l 642 760 l 542 760 l 521 885 q 358 919 446 919 q 192 765 192 919 q 228 663 192 703 q 354 592 264 624 l 472 550 q 627 473 578 513 q 695 388 676 433 q 714 281 714 342 q 620 67 714 147 q 353 -14 526 -14 q 151 17 235 -14 q 64 50 122 26 l 81 274 l 182 274 m 376 -50 q 465 -158 465 -50 q 426 -268 465 -212 q 335 -347 388 -324 l 303 -314 q 366 -258 339 -290 q 393 -201 393 -226 q 356 -206 382 -206 q 313 -184 331 -206 q 296 -131 296 -162 q 376 -50 296 -50 z "},"ș":{"ha":611,"x_min":60,"x_max":560,"o":"m 69 507 q 69 549 69 507 q 140 636 69 592 q 307 681 210 681 q 529 642 404 681 l 519 479 l 439 479 l 419 581 q 304 601 364 601 q 178 514 178 601 q 217 446 178 471 q 358 387 256 421 q 510 311 461 353 q 560 194 560 269 q 484 42 560 99 q 294 -14 408 -14 q 60 35 181 -14 l 69 203 l 153 203 l 165 101 q 293 72 238 72 q 447 174 447 72 q 405 242 447 214 q 262 301 363 269 q 115 377 161 332 q 69 507 69 422 m 301 -50 q 390 -158 390 -50 q 351 -268 390 -212 q 260 -347 313 -324 l 228 -314 q 291 -258 264 -290 q 318 -201 318 -226 q 282 -206 308 -206 q 238 -184 256 -206 q 221 -131 221 -162 q 301 -50 221 -50 z "},"ȷ":{"ha":401,"x_min":-32,"x_max":263,"o":"m 153 35 l 153 533 q 147 574 153 564 q 121 586 142 585 l 44 594 l 44 667 l 263 667 l 263 -4 q 247 -161 263 -108 q 185 -255 231 -214 q 36 -347 140 -296 l -32 -292 q 90 -203 56 -237 q 138 -118 124 -169 q 153 35 153 -67 z "},"ˆ":{"ha":490,"x_min":42,"x_max":449,"o":"m 194 1025 l 299 1025 l 449 817 l 396 772 l 246 940 l 96 772 l 42 817 l 194 1025 z "},"ˇ":{"ha":490,"x_min":42,"x_max":449,"o":"m 296 783 l 192 783 l 42 992 l 94 1036 l 244 868 l 394 1036 l 449 992 l 296 783 z "},"˘":{"ha":522,"x_min":60,"x_max":476,"o":"m 410 990 l 476 969 q 401 849 454 896 q 268 803 347 803 q 135 849 189 803 q 60 969 82 896 l 126 990 q 187 922 150 950 q 268 894 224 894 q 349 922 313 894 q 410 990 386 950 z "},"˙":{"ha":413,"x_min":121,"x_max":285,"o":"m 208 993 q 232 993 208 993 q 270 973 256 993 q 285 907 285 953 q 265 845 285 861 q 200 829 246 829 q 138 847 154 829 q 121 908 121 865 q 140 972 121 951 q 208 993 160 993 z "},"˚":{"ha":432,"x_min":83,"x_max":349,"o":"m 315 1006 q 332 987 315 1006 q 349 917 349 968 q 311 825 349 865 q 213 785 274 785 q 117 823 151 785 q 83 913 83 861 q 121 1004 83 964 q 219 1044 158 1044 q 315 1006 281 1044 m 279 919 q 260 961 279 944 q 215 978 242 978 q 153 908 153 978 q 172 867 153 883 q 217 850 190 850 q 279 919 279 850 z "},"˛":{"ha":333,"x_min":40,"x_max":307,"o":"m 40 -184 q 40 -160 40 -184 q 53 -117 40 -136 q 74 -87 67 -97 q 99 -63 81 -78 q 124 -43 118 -49 q 156 -21 131 -37 q 186 0 181 -4 l 303 0 q 254 -30 293 -4 q 199 -69 215 -56 q 132 -157 132 -121 q 150 -215 132 -193 q 198 -236 168 -236 q 290 -218 228 -236 l 307 -275 q 288 -283 306 -275 q 256 -297 269 -292 q 172 -312 210 -312 q 76 -272 111 -312 q 40 -184 40 -232 z "},"˜":{"ha":561,"x_min":65,"x_max":496,"o":"m 372 811 q 273 837 335 811 q 175 863 211 863 q 86 819 139 863 l 65 878 q 190 958 122 958 q 293 934 232 958 q 392 910 354 910 q 474 947 431 910 l 496 892 q 372 811 440 811 z "},"˝":{"ha":575,"x_min":61,"x_max":525,"o":"m 214 1067 l 310 1006 l 174 803 q 125 771 150 771 q 61 785 100 771 l 214 1067 m 429 1067 l 525 1006 l 389 803 q 340 771 365 771 q 276 785 315 771 l 429 1067 z "},"̉":{"ha":349,"x_min":51,"x_max":299,"o":"m 171 810 l 114 803 l 100 928 q 186 962 157 944 q 215 1007 215 979 q 139 1063 215 1063 q 58 1050 111 1063 l 51 1106 q 174 1125 129 1125 q 259 1097 219 1125 q 299 1017 299 1069 q 266 936 299 964 q 171 888 233 908 l 171 810 z "},"Ḁ":{"ha":921,"x_min":-21,"x_max":943,"o":"m 540 -84 q 557 -103 540 -84 q 574 -174 574 -122 q 536 -265 574 -225 q 438 -306 499 -306 q 342 -267 376 -306 q 308 -178 308 -229 q 346 -86 308 -126 q 444 -46 383 -46 q 540 -84 506 -46 m 504 -171 q 485 -129 504 -146 q 440 -112 467 -112 q 378 -182 378 -112 q 397 -224 378 -207 q 442 -240 415 -240 q 504 -171 504 -240 m 97 156 l 396 1000 l 525 1000 l 822 156 q 848 109 835 121 q 889 92 861 97 l 943 82 l 943 0 l 586 0 l 586 79 l 663 92 q 699 125 699 97 q 693 153 699 138 l 632 329 l 264 329 l 206 157 q 200 128 200 142 q 238 92 200 97 l 313 79 l 313 0 l -21 0 l -21 82 l 32 92 q 72 109 60 97 q 97 156 85 121 m 463 818 l 447 881 l 432 818 l 297 426 l 597 426 l 463 818 z "},"ḁ":{"ha":732,"x_min":51,"x_max":685,"o":"m 428 -84 q 445 -103 428 -84 q 463 -174 463 -122 q 425 -265 463 -225 q 326 -306 388 -306 q 231 -267 265 -306 q 197 -178 197 -229 q 235 -86 197 -126 q 333 -46 272 -46 q 428 -84 394 -46 m 393 -171 q 374 -129 393 -146 q 329 -112 356 -112 q 267 -182 267 -112 q 285 -224 267 -207 q 331 -240 304 -240 q 393 -171 393 -240 m 575 489 l 575 136 q 581 95 575 106 q 607 83 586 85 l 685 75 l 685 0 l 482 0 l 471 108 q 226 -14 356 -14 q 99 35 147 -14 q 51 166 51 85 q 100 299 51 247 q 240 363 149 350 l 465 393 l 465 486 q 315 597 465 597 q 193 571 251 597 l 174 469 l 93 469 l 83 629 q 328 681 226 681 q 502 633 429 681 q 575 489 575 586 m 465 318 l 272 286 q 194 250 222 279 q 167 176 167 221 q 195 108 167 132 q 268 85 224 85 q 465 194 343 85 l 465 318 z "},"Ḿ":{"ha":1240,"x_min":26,"x_max":1225,"o":"m 771 1299 l 839 1206 l 626 1061 q 589 1047 604 1047 q 522 1088 557 1047 l 771 1299 m 357 0 l 26 0 l 26 82 l 100 94 q 131 108 125 99 q 140 146 138 118 l 189 868 q 147 910 189 904 l 75 918 l 75 1000 l 353 1000 l 628 186 l 874 1000 l 1168 1000 l 1168 918 l 1090 910 q 1056 897 1065 907 q 1047 865 1047 888 l 1103 146 q 1112 108 1106 118 q 1143 94 1118 99 l 1225 82 l 1225 0 l 869 0 l 869 82 l 944 90 q 985 135 985 96 l 933 849 l 668 0 l 569 0 l 275 849 l 242 138 q 251 104 243 115 q 283 90 260 93 l 357 82 l 357 0 z "},"ḿ":{"ha":1278,"x_min":58,"x_max":1225,"o":"m 697 496 l 699 481 l 699 136 q 704 95 699 106 q 731 83 710 85 l 814 74 l 814 0 l 589 0 l 589 447 q 458 578 589 578 q 351 547 403 578 q 276 472 300 515 l 276 136 q 282 95 276 106 q 308 83 288 85 l 392 74 l 392 0 l 58 0 l 58 75 l 135 83 q 161 95 156 85 q 167 136 167 106 l 167 533 q 161 574 167 564 q 135 586 156 585 l 58 594 l 58 667 l 263 667 l 275 565 q 326 616 306 597 q 397 658 346 635 q 504 681 447 681 q 682 569 635 681 q 913 681 774 681 q 1067 622 1017 681 q 1117 481 1117 564 l 1117 136 q 1122 96 1117 106 q 1149 83 1128 86 l 1225 75 l 1225 0 l 1007 0 l 1007 447 q 971 544 1007 510 q 867 578 935 578 q 697 496 774 578 m 808 1044 l 889 961 l 699 789 q 653 769 678 769 q 592 800 628 769 l 808 1044 z "},"Ẁ":{"ha":1307,"x_min":-4,"x_max":1307,"o":"m 479 1206 l 547 1299 l 796 1088 q 729 1047 761 1047 q 692 1061 714 1047 l 479 1206 m 1196 853 l 1013 0 l 844 0 l 665 726 l 490 0 l 321 0 l 126 853 q 101 897 119 886 q 50 913 82 908 l -4 918 l -4 1000 l 371 1000 l 371 919 l 292 911 q 261 903 269 910 q 253 885 253 896 q 256 853 253 875 l 415 133 l 599 897 l 751 897 l 938 133 l 1088 853 q 1089 876 1089 861 q 1043 911 1089 906 l 969 919 l 969 1000 l 1307 1000 l 1307 918 l 1258 913 q 1228 906 1239 910 q 1196 853 1206 899 z "},"ẁ":{"ha":1057,"x_min":1,"x_max":1043,"o":"m 228 533 l 324 183 l 338 106 l 353 183 l 475 596 l 583 596 l 710 183 l 726 99 l 740 183 l 836 533 q 843 563 843 554 q 810 588 843 583 l 739 596 l 739 667 l 1043 667 l 1043 594 l 982 586 q 935 533 950 582 l 772 0 l 658 0 l 531 401 l 519 457 l 508 401 l 385 0 l 271 0 l 110 533 q 103 550 104 544 q 99 560 101 556 q 96 567 97 565 q 92 573 94 569 q 86 578 89 576 q 81 581 83 579 q 63 586 72 586 l 1 594 l 1 667 l 322 667 l 322 596 l 251 588 q 219 564 219 583 q 228 533 219 561 m 306 961 l 386 1044 l 603 800 q 542 769 567 769 q 496 789 517 769 l 306 961 z "},"Ẃ":{"ha":1307,"x_min":-4,"x_max":1307,"o":"m 778 1299 l 846 1206 l 633 1061 q 596 1047 611 1047 q 529 1088 564 1047 l 778 1299 m 1196 853 l 1013 0 l 844 0 l 665 726 l 490 0 l 321 0 l 126 853 q 101 897 119 886 q 50 913 82 908 l -4 918 l -4 1000 l 371 1000 l 371 919 l 292 911 q 261 903 269 910 q 253 885 253 896 q 256 853 253 875 l 415 133 l 599 897 l 751 897 l 938 133 l 1088 853 q 1089 876 1089 861 q 1043 911 1089 906 l 969 919 l 969 1000 l 1307 1000 l 1307 918 l 1258 913 q 1228 906 1239 910 q 1196 853 1206 899 z "},"ẃ":{"ha":1057,"x_min":1,"x_max":1043,"o":"m 228 533 l 324 183 l 338 106 l 353 183 l 475 596 l 583 596 l 710 183 l 726 99 l 740 183 l 836 533 q 843 563 843 554 q 810 588 843 583 l 739 596 l 739 667 l 1043 667 l 1043 594 l 982 586 q 935 533 950 582 l 772 0 l 658 0 l 531 401 l 519 457 l 508 401 l 385 0 l 271 0 l 110 533 q 103 550 104 544 q 99 560 101 556 q 96 567 97 565 q 92 573 94 569 q 86 578 89 576 q 81 581 83 579 q 63 586 72 586 l 1 594 l 1 667 l 322 667 l 322 596 l 251 588 q 219 564 219 583 q 228 533 219 561 m 621 1044 l 701 961 l 511 789 q 465 769 490 769 q 404 800 440 769 l 621 1044 z "},"Ẅ":{"ha":1307,"x_min":-4,"x_max":1307,"o":"m 1196 853 l 1013 0 l 844 0 l 665 726 l 490 0 l 321 0 l 126 853 q 101 897 119 886 q 50 913 82 908 l -4 918 l -4 1000 l 371 1000 l 371 919 l 292 911 q 261 903 269 910 q 253 885 253 896 q 256 853 253 875 l 415 133 l 599 897 l 751 897 l 938 133 l 1088 853 q 1089 876 1089 861 q 1043 911 1089 906 l 969 919 l 969 1000 l 1307 1000 l 1307 918 l 1258 913 q 1228 906 1239 910 q 1196 853 1206 899 m 526 1239 q 548 1239 526 1239 q 585 1220 571 1239 q 599 1158 599 1201 q 580 1099 599 1114 q 518 1083 561 1083 q 459 1100 475 1083 q 443 1158 443 1117 q 462 1219 443 1200 q 526 1239 481 1239 m 810 1239 q 833 1239 810 1239 q 869 1220 856 1239 q 883 1158 883 1201 q 865 1099 883 1114 q 803 1083 846 1083 q 744 1100 760 1083 q 728 1158 728 1117 q 747 1219 728 1200 q 810 1239 765 1239 z "},"ẅ":{"ha":1057,"x_min":1,"x_max":1043,"o":"m 228 533 l 324 183 l 338 106 l 353 183 l 475 596 l 583 596 l 710 183 l 726 99 l 740 183 l 836 533 q 843 563 843 554 q 810 588 843 583 l 739 596 l 739 667 l 1043 667 l 1043 594 l 982 586 q 935 533 950 582 l 772 0 l 658 0 l 531 401 l 519 457 l 508 401 l 385 0 l 271 0 l 110 533 q 103 550 104 544 q 99 560 101 556 q 96 567 97 565 q 92 573 94 569 q 86 578 89 576 q 81 581 83 579 q 63 586 72 586 l 1 594 l 1 667 l 322 667 l 322 596 l 251 588 q 219 564 219 583 q 228 533 219 561 m 391 961 q 414 961 391 961 q 450 942 436 961 q 464 880 464 924 q 445 821 464 836 q 383 806 426 806 q 324 822 340 806 q 308 881 308 839 q 327 942 308 922 q 391 961 346 961 m 676 961 q 698 961 676 961 q 735 942 721 961 q 749 880 749 924 q 730 821 749 836 q 668 806 711 806 q 609 822 625 806 q 593 881 593 839 q 612 942 593 922 q 676 961 631 961 z "},"Ỳ":{"ha":931,"x_min":-6,"x_max":928,"o":"m 225 1206 l 293 1299 l 542 1088 q 475 1047 507 1047 q 438 1061 460 1047 l 225 1206 m 406 353 l 131 853 q 96 895 113 883 q 47 911 79 907 l -6 918 l -6 1000 l 368 1000 l 368 919 l 299 911 q 254 885 254 904 q 265 853 254 875 l 483 460 l 692 853 q 701 882 701 871 q 653 910 701 903 l 583 918 l 583 1000 l 928 1000 l 928 918 l 875 911 q 835 897 847 907 q 806 853 824 886 l 525 356 l 525 147 q 533 109 525 119 q 565 94 540 99 l 644 82 l 644 0 l 286 0 l 286 82 l 365 94 q 398 109 390 99 q 406 147 406 119 l 406 353 z "},"ỳ":{"ha":726,"x_min":-19,"x_max":731,"o":"m 669 586 q 629 550 643 583 q 353 -181 622 533 q 146 -347 293 -347 q 21 -331 68 -347 l 7 -249 q 107 -260 78 -260 q 205 -223 161 -260 q 274 -118 249 -186 l 306 -31 l 89 533 q 82 550 83 544 q 78 560 81 556 q 75 567 76 565 q 71 573 74 569 q 65 578 68 576 q 58 581 63 579 q 42 586 51 586 l -19 594 l -19 667 l 303 667 l 303 596 l 232 588 q 200 564 200 583 q 208 533 200 554 l 368 106 l 524 533 q 531 563 531 554 q 497 588 531 583 l 426 596 l 426 667 l 731 667 l 731 594 l 669 586 m 136 961 l 217 1044 l 433 800 q 372 769 397 769 q 326 789 347 769 l 136 961 z "},"Ỵ":{"ha":931,"x_min":-6,"x_max":928,"o":"m 406 353 l 131 853 q 96 895 113 883 q 47 911 79 907 l -6 918 l -6 1000 l 368 1000 l 368 919 l 299 911 q 254 885 254 904 q 265 853 254 875 l 483 460 l 692 853 q 701 882 701 871 q 653 910 701 903 l 583 918 l 583 1000 l 928 1000 l 928 918 l 875 911 q 835 897 847 907 q 806 853 824 886 l 525 356 l 525 147 q 533 109 525 119 q 565 94 540 99 l 644 82 l 644 0 l 286 0 l 286 82 l 365 94 q 398 109 390 99 q 406 147 406 119 l 406 353 m 470 -93 q 494 -93 470 -93 q 533 -113 518 -93 q 547 -179 547 -133 q 528 -241 547 -225 q 463 -257 508 -257 q 400 -239 417 -257 q 383 -178 383 -221 q 403 -114 383 -135 q 470 -93 422 -93 z "},"ỵ":{"ha":726,"x_min":-19,"x_max":731,"o":"m 669 586 q 629 550 643 583 q 353 -181 622 533 q 146 -347 293 -347 q 21 -331 68 -347 l 7 -249 q 107 -260 78 -260 q 205 -223 161 -260 q 274 -118 249 -186 l 306 -31 l 89 533 q 82 550 83 544 q 78 560 81 556 q 75 567 76 565 q 71 573 74 569 q 65 578 68 576 q 58 581 63 579 q 42 586 51 586 l -19 594 l -19 667 l 303 667 l 303 596 l 232 588 q 200 564 200 583 q 208 533 200 554 l 368 106 l 524 533 q 531 563 531 554 q 497 588 531 583 l 426 596 l 426 667 l 731 667 l 731 594 l 669 586 m 563 -93 q 587 -93 563 -93 q 626 -113 611 -93 q 640 -179 640 -133 q 621 -241 640 -225 q 556 -257 601 -257 q 493 -239 510 -257 q 476 -178 476 -221 q 496 -114 476 -135 q 563 -93 515 -93 z "},"Ỷ":{"ha":931,"x_min":-6,"x_max":928,"o":"m 406 353 l 131 853 q 96 895 113 883 q 47 911 79 907 l -6 918 l -6 1000 l 368 1000 l 368 919 l 299 911 q 254 885 254 904 q 265 853 254 875 l 483 460 l 692 853 q 701 882 701 871 q 653 910 701 903 l 583 918 l 583 1000 l 928 1000 l 928 918 l 875 911 q 835 897 847 907 q 806 853 824 886 l 525 356 l 525 147 q 533 109 525 119 q 565 94 540 99 l 644 82 l 644 0 l 286 0 l 286 82 l 365 94 q 398 109 390 99 q 406 147 406 119 l 406 353 m 497 1014 l 440 1007 l 426 1132 q 513 1166 483 1149 q 542 1211 542 1183 q 465 1267 542 1267 q 385 1254 438 1267 l 378 1310 q 501 1329 456 1329 q 585 1301 546 1329 q 625 1221 625 1274 q 592 1140 625 1168 q 497 1092 560 1113 l 497 1014 z "},"ỷ":{"ha":726,"x_min":-19,"x_max":731,"o":"m 669 586 q 629 550 643 583 q 353 -181 622 533 q 146 -347 293 -347 q 21 -331 68 -347 l 7 -249 q 107 -260 78 -260 q 205 -223 161 -260 q 274 -118 249 -186 l 306 -31 l 89 533 q 82 550 83 544 q 78 560 81 556 q 75 567 76 565 q 71 573 74 569 q 65 578 68 576 q 58 581 63 579 q 42 586 51 586 l -19 594 l -19 667 l 303 667 l 303 596 l 232 588 q 200 564 200 583 q 208 533 200 554 l 368 106 l 524 533 q 531 563 531 554 q 497 588 531 583 l 426 596 l 426 667 l 731 667 l 731 594 l 669 586 m 379 810 l 322 803 l 308 928 q 394 962 365 944 q 424 1007 424 979 q 347 1063 424 1063 q 267 1050 319 1063 l 260 1106 q 383 1125 338 1125 q 467 1097 428 1125 q 507 1017 507 1069 q 474 936 507 964 q 379 888 442 908 l 379 810 z "},"Ỹ":{"ha":931,"x_min":-6,"x_max":928,"o":"m 406 353 l 131 853 q 96 895 113 883 q 47 911 79 907 l -6 918 l -6 1000 l 368 1000 l 368 919 l 299 911 q 254 885 254 904 q 265 853 254 875 l 483 460 l 692 853 q 701 882 701 871 q 653 910 701 903 l 583 918 l 583 1000 l 928 1000 l 928 918 l 875 911 q 835 897 847 907 q 806 853 824 886 l 525 356 l 525 147 q 533 109 525 119 q 565 94 540 99 l 644 82 l 644 0 l 286 0 l 286 82 l 365 94 q 398 109 390 99 q 406 147 406 119 l 406 353 m 560 1074 q 460 1099 522 1074 q 363 1125 399 1125 q 274 1082 326 1125 l 253 1140 q 378 1221 310 1221 q 481 1197 419 1221 q 579 1172 542 1172 q 661 1210 617 1172 l 683 1154 q 560 1074 628 1074 z "},"ỹ":{"ha":726,"x_min":-19,"x_max":731,"o":"m 669 586 q 629 550 643 583 q 353 -181 622 533 q 146 -347 293 -347 q 21 -331 68 -347 l 7 -249 q 107 -260 78 -260 q 205 -223 161 -260 q 274 -118 249 -186 l 306 -31 l 89 533 q 82 550 83 544 q 78 560 81 556 q 75 567 76 565 q 71 573 74 569 q 65 578 68 576 q 58 581 63 579 q 42 586 51 586 l -19 594 l -19 667 l 303 667 l 303 596 l 232 588 q 200 564 200 583 q 208 533 200 554 l 368 106 l 524 533 q 531 563 531 554 q 497 588 531 583 l 426 596 l 426 667 l 731 667 l 731 594 l 669 586 m 451 811 q 352 837 414 811 q 254 863 290 863 q 165 819 218 863 l 144 878 q 269 958 201 958 q 372 934 311 958 q 471 910 433 910 q 553 947 508 910 l 575 892 q 451 811 519 811 z "},"–":{"ha":622,"x_min":0,"x_max":622,"o":"m 0 307 l 0 396 l 622 396 l 622 307 l 0 307 z "},"—":{"ha":1244,"x_min":0,"x_max":1244,"o":"m 0 307 l 0 396 l 1244 396 l 1244 307 l 0 307 z "},"‘":{"ha":319,"x_min":68,"x_max":268,"o":"m 68 856 q 116 1000 68 933 q 224 1097 164 1067 l 268 1050 q 194 986 229 1026 q 160 907 160 946 q 228 881 207 901 q 250 818 250 860 q 164 735 250 735 q 68 856 68 735 z "},"’":{"ha":318,"x_min":51,"x_max":251,"o":"m 251 976 q 203 832 251 899 q 96 735 156 765 l 51 782 q 125 846 90 806 q 160 925 160 886 q 91 951 113 931 q 69 1014 69 972 q 156 1097 69 1097 q 251 976 251 1097 z "},"‚":{"ha":313,"x_min":56,"x_max":244,"o":"m 244 36 q 202 -98 244 -39 q 100 -187 160 -157 l 56 -144 q 156 -15 156 -82 q 89 10 108 -10 q 69 74 69 31 q 151 157 69 157 q 244 36 244 157 z "},"“":{"ha":583,"x_min":68,"x_max":532,"o":"m 68 856 q 116 1000 68 933 q 224 1097 164 1067 l 268 1050 q 194 986 229 1026 q 160 907 160 946 q 228 881 207 901 q 250 818 250 860 q 164 735 250 735 q 68 856 68 735 m 332 856 q 380 1000 332 933 q 488 1097 428 1067 l 532 1050 q 458 986 493 1026 q 424 907 424 946 q 492 881 471 901 q 514 818 514 860 q 428 735 514 735 q 332 856 332 735 z "},"”":{"ha":582,"x_min":51,"x_max":515,"o":"m 515 976 q 467 832 515 899 q 360 735 419 765 l 315 782 q 389 846 354 806 q 424 925 424 886 q 355 951 376 931 q 333 1014 333 972 q 419 1097 333 1097 q 515 976 515 1097 m 251 976 q 203 832 251 899 q 96 735 156 765 l 51 782 q 125 846 90 806 q 160 925 160 886 q 91 951 113 931 q 69 1014 69 972 q 156 1097 69 1097 q 251 976 251 1097 z "},"„":{"ha":578,"x_min":56,"x_max":510,"o":"m 244 36 q 202 -98 244 -39 q 100 -187 160 -157 l 56 -144 q 156 -15 156 -82 q 89 10 108 -10 q 69 74 69 31 q 151 157 69 157 q 244 36 244 157 m 510 36 q 467 -98 510 -39 q 365 -187 425 -157 l 321 -144 q 421 -15 421 -82 q 354 10 374 -10 q 335 74 335 31 q 417 157 335 157 q 510 36 510 157 z "},"•":{"ha":531,"x_min":114,"x_max":417,"o":"m 274 640 q 319 640 274 640 q 390 602 364 640 q 417 480 417 564 q 378 367 417 396 q 244 338 340 338 q 114 471 114 338 q 149 601 114 561 q 274 640 185 640 z "},"…":{"ha":972,"x_min":69,"x_max":903,"o":"m 168 176 q 196 176 168 176 q 239 153 224 176 q 254 79 254 131 q 232 10 254 28 q 159 -8 210 -8 q 89 12 108 -8 q 69 81 69 32 q 91 153 69 129 q 168 176 113 176 m 493 176 q 521 176 493 176 q 564 153 549 176 q 579 79 579 131 q 557 10 579 28 q 484 -8 535 -8 q 414 12 433 -8 q 394 81 394 32 q 416 153 394 129 q 493 176 438 176 m 817 176 q 844 176 817 176 q 888 153 872 176 q 903 79 903 131 q 881 10 903 28 q 808 -8 858 -8 q 738 12 757 -8 q 718 81 718 32 q 740 153 718 129 q 817 176 761 176 z "},"‹":{"ha":433,"x_min":78,"x_max":326,"o":"m 285 61 l 78 329 l 285 597 q 299 583 290 592 q 313 568 307 574 q 326 538 326 554 q 315 500 326 521 l 208 329 l 315 158 q 326 125 326 138 q 322 103 326 113 q 313 89 317 93 q 298 74 310 85 q 285 61 286 63 z "},"›":{"ha":433,"x_min":78,"x_max":326,"o":"m 326 329 l 119 61 q 106 74 118 63 q 92 89 94 85 q 78 121 78 104 q 89 158 78 138 l 196 329 l 89 500 q 78 534 78 521 q 83 556 78 547 q 102 578 89 565 q 119 597 115 592 l 326 329 z "},"⁄":{"ha":236,"x_min":-236,"x_max":472,"o":"m 388 1014 l 472 1014 l -153 0 l -236 0 l 388 1014 z "},"⁰":{"ha":613,"x_min":14,"x_max":599,"o":"m 315 1008 q 384 1008 315 1008 q 526 922 453 1008 q 599 701 599 836 q 517 467 599 565 q 298 369 436 369 q 87 456 160 369 q 14 677 14 542 q 95 910 14 813 q 315 1008 176 1008 m 315 450 q 360 450 315 450 q 451 517 406 450 q 496 692 496 585 q 441 864 496 800 q 296 928 386 928 q 161 860 206 928 q 117 685 117 793 q 171 514 117 578 q 315 450 225 450 z "},"⁴":{"ha":513,"x_min":10,"x_max":513,"o":"m 513 597 l 513 522 l 414 522 l 414 383 l 326 383 l 326 522 l 47 522 l 10 597 l 326 1010 l 383 961 l 118 597 l 326 597 l 326 779 l 414 779 l 414 597 l 513 597 z "},"⁵":{"ha":472,"x_min":21,"x_max":438,"o":"m 419 1000 l 419 917 l 179 917 l 164 757 l 269 749 q 438 575 438 736 q 372 426 438 482 q 210 369 306 369 q 21 411 114 369 l 39 474 q 206 443 146 443 q 300 481 267 443 q 333 567 333 518 q 308 640 333 615 q 219 675 282 665 l 78 686 l 101 1000 l 419 1000 z "},"⁶":{"ha":518,"x_min":33,"x_max":490,"o":"m 285 794 q 335 794 285 794 q 438 740 385 794 q 490 588 490 686 q 428 429 490 489 q 251 369 365 369 q 85 441 138 369 q 33 615 33 513 q 134 899 33 790 q 435 1008 235 1008 l 435 936 q 133 724 189 936 q 285 794 185 794 m 397 585 q 265 722 397 722 q 160 678 193 722 q 128 584 128 649 q 165 481 128 519 q 267 443 201 443 q 365 481 333 443 q 397 585 397 519 z "},"⁷":{"ha":496,"x_min":58,"x_max":485,"o":"m 192 350 l 100 389 q 382 919 360 825 l 182 919 q 155 915 163 919 q 146 894 147 911 l 140 831 l 68 831 l 58 1000 l 485 1000 l 485 978 q 454 867 485 925 q 383 726 443 846 q 192 350 222 399 z "},"⁸":{"ha":482,"x_min":19,"x_max":469,"o":"m 164 700 q 79 765 108 732 q 50 865 50 799 q 108 969 50 931 q 253 1008 165 1008 q 392 972 342 1008 q 442 872 442 936 q 425 806 442 835 q 392 764 408 776 q 319 713 368 744 q 432 635 394 674 q 469 540 469 597 q 401 415 469 461 q 233 369 332 369 q 76 409 133 369 q 19 518 19 449 q 56 624 19 588 q 164 700 92 661 m 113 540 q 152 461 113 488 q 252 435 192 435 q 344 461 313 435 q 376 532 376 488 q 361 569 376 554 q 335 594 346 585 q 308 614 325 603 q 281 633 292 625 q 218 669 260 646 l 217 669 q 193 652 208 661 q 165 634 178 643 q 150 622 153 625 q 138 609 147 618 q 126 594 129 600 q 119 578 124 588 q 113 540 113 564 m 358 863 q 320 923 358 903 q 231 943 282 943 q 138 871 138 943 q 167 804 138 832 q 265 739 196 776 q 280 749 267 740 q 295 760 293 758 q 308 771 297 763 q 322 783 319 779 q 333 796 325 788 q 344 810 342 804 q 351 825 347 817 q 358 863 358 839 z "},"⁹":{"ha":507,"x_min":28,"x_max":486,"o":"m 214 582 q 80 636 132 582 q 28 787 28 690 q 91 945 28 883 q 267 1007 154 1007 q 433 936 381 1007 q 486 761 486 865 q 389 483 486 594 q 94 361 292 372 l 90 436 q 386 656 331 453 q 214 582 332 582 m 240 935 q 151 893 182 935 q 121 788 121 851 q 153 690 121 725 q 253 654 185 654 q 363 703 322 654 q 392 793 392 738 q 240 935 392 935 z "},"ⁿ":{"ha":539,"x_min":39,"x_max":506,"o":"m 506 601 l 368 601 l 368 872 q 345 930 368 910 q 285 950 322 950 q 176 886 213 950 l 176 689 q 180 666 176 672 q 196 658 183 660 l 246 653 l 246 601 l 39 601 l 39 653 l 85 658 q 100 665 97 660 q 103 689 103 671 l 103 926 q 100 951 103 944 q 85 958 97 957 l 39 964 l 39 1007 l 168 1007 l 176 951 q 310 1014 236 1014 q 413 981 383 1014 q 442 896 442 947 l 442 689 q 460 658 442 660 l 506 653 l 506 601 z "},"₣":{"ha":808,"x_min":83,"x_max":783,"o":"m 99 233 l 99 317 l 197 317 l 197 808 q 189 844 197 833 q 157 858 181 856 l 83 867 l 83 944 l 783 944 l 775 706 l 686 706 l 678 803 q 664 835 676 828 q 625 843 651 843 l 317 843 l 317 564 l 614 564 l 614 463 l 317 463 l 317 317 l 524 317 l 510 233 l 317 233 l 317 147 q 325 108 317 119 q 358 94 333 97 l 457 83 l 457 0 l 83 0 l 83 82 l 157 94 q 190 109 182 99 q 197 147 197 119 l 197 233 l 99 233 z "},"₤":{"ha":778,"x_min":68,"x_max":744,"o":"m 76 483 l 76 560 l 188 560 q 185 629 185 613 q 208 776 185 713 q 265 873 232 839 q 342 928 297 907 q 490 961 414 961 q 689 907 614 961 l 629 785 q 443 851 540 851 q 341 815 375 851 q 307 708 307 779 q 313 560 307 638 l 547 560 l 522 483 l 317 483 l 321 410 l 526 410 l 501 333 l 324 333 l 324 285 q 250 99 324 172 q 357 114 314 114 q 475 101 400 114 q 583 88 550 88 q 644 146 644 88 l 644 221 l 728 221 l 744 6 q 633 -14 714 -14 q 444 -1 553 -14 q 272 13 335 13 q 110 -19 208 13 l 68 68 q 157 104 106 74 q 208 233 208 135 q 204 333 208 274 l 69 333 l 69 410 l 199 410 l 192 483 l 76 483 z "},"₧":{"ha":1686,"x_min":86,"x_max":1636,"o":"m 1174 466 q 1174 508 1174 466 q 1240 594 1174 550 q 1398 639 1307 639 q 1606 600 1489 639 l 1596 438 l 1515 438 l 1496 539 q 1394 560 1446 560 q 1282 472 1282 560 q 1304 419 1282 442 q 1352 386 1326 397 q 1461 346 1378 375 q 1590 281 1544 317 q 1636 181 1636 244 q 1565 38 1636 90 q 1384 -14 1493 -14 q 1176 29 1275 -14 q 1104 -1 1154 11 q 1010 -14 1054 -14 q 935 -1 967 -14 q 885 31 903 13 q 858 89 868 50 q 847 251 847 140 l 847 532 l 743 532 l 743 539 q 610 397 700 449 q 419 346 521 346 l 319 346 l 319 147 q 328 108 319 121 q 361 94 338 96 l 488 83 l 488 0 l 86 0 l 86 82 l 160 94 q 192 109 185 99 q 200 147 200 119 l 200 797 q 192 835 200 825 q 160 850 185 846 l 86 863 l 86 944 l 451 944 q 692 888 610 944 q 775 686 775 832 q 764 601 775 643 l 847 611 l 847 735 l 957 760 l 957 611 l 1142 625 l 1142 532 l 957 532 l 957 272 q 981 117 957 161 q 1090 74 1006 74 q 1167 89 1124 74 l 1174 203 l 1257 203 l 1269 101 q 1383 72 1333 72 q 1524 160 1524 72 q 1368 260 1524 221 q 1216 340 1258 297 q 1174 466 1174 382 m 319 847 l 319 443 l 415 443 q 572 479 525 443 q 640 672 640 529 q 439 847 640 847 l 319 847 z "},"₫":{"ha":813,"x_min":61,"x_max":758,"o":"m 254 803 l 254 893 l 535 893 l 535 950 q 528 990 535 979 q 500 1003 521 1001 l 417 1011 l 417 1083 l 644 1083 l 644 893 l 744 893 l 744 803 l 644 803 l 644 136 q 650 95 644 106 q 676 83 656 85 l 757 75 l 757 0 l 551 0 l 540 94 q 506 53 526 74 q 433 10 485 33 q 322 -14 382 -14 q 131 72 201 -14 q 61 310 61 158 q 150 572 61 463 q 390 681 239 681 q 535 656 460 681 l 535 803 l 254 803 m 535 185 l 535 535 q 382 589 481 589 q 239 551 283 589 q 196 458 211 528 q 181 332 181 389 q 360 78 181 78 q 474 117 424 78 q 535 185 524 157 m 64 -239 l 64 -164 l 758 -164 l 758 -239 l 64 -239 z "},"€":{"ha":804,"x_min":14,"x_max":764,"o":"m 14 497 l 14 578 l 110 578 q 228 860 131 758 q 476 961 325 961 q 764 890 626 961 l 728 793 q 488 851 615 851 q 383 835 419 851 q 313 781 347 818 q 243 578 265 729 l 597 578 l 572 497 l 235 497 l 235 474 q 236 406 235 426 l 547 406 l 526 325 l 246 325 q 334 150 268 206 q 501 94 400 94 q 733 157 601 94 l 761 68 q 489 -14 619 -14 q 114 325 167 -14 l 14 325 l 14 406 l 106 406 q 104 474 104 428 l 104 497 l 14 497 z "},"−":{"ha":717,"x_min":56,"x_max":661,"o":"m 56 279 l 56 374 l 661 374 l 661 279 l 56 279 z "},"ﬁ":{"ha":819,"x_min":51,"x_max":785,"o":"m 676 674 l 676 136 q 682 96 676 106 q 708 83 688 86 l 785 75 l 785 0 l 458 0 l 458 75 l 535 83 q 561 96 556 86 q 567 136 567 106 l 567 533 q 561 574 567 564 q 535 586 556 585 l 440 594 l 276 594 l 276 136 q 282 95 276 106 q 308 83 288 85 l 417 74 l 417 0 l 56 0 l 56 75 l 135 83 q 161 95 156 85 q 167 136 167 106 l 167 594 l 51 594 l 51 661 l 167 674 l 167 819 q 238 1026 167 954 q 429 1097 310 1097 q 689 1040 581 1097 l 667 843 l 558 843 l 536 968 q 405 997 469 997 q 308 972 340 997 q 276 893 276 947 l 276 674 l 676 674 z "},"ﬂ":{"ha":829,"x_min":51,"x_max":785,"o":"m 675 1022 l 676 1022 l 676 136 q 682 96 676 106 q 708 83 688 86 l 785 75 l 785 0 l 458 0 l 458 75 l 535 83 q 561 96 556 86 q 567 136 567 106 l 567 939 q 388 1000 499 1000 q 276 893 276 1000 l 276 674 l 454 688 l 454 594 l 276 594 l 276 136 q 282 95 276 106 q 308 83 288 85 l 417 74 l 417 0 l 56 0 l 56 75 l 135 83 q 161 95 156 85 q 167 136 167 106 l 167 594 l 51 594 l 51 661 l 164 674 l 167 674 l 167 819 q 238 1026 167 954 q 426 1097 310 1097 q 675 1040 543 1097 l 675 1022 z "}}}
